<svg width="256" height="76" viewBox="0 0 256 76" fill="none" xmlns="http://www.w3.org/2000/svg">
<mask id="path-1-outside-1_1675_6492" maskUnits="userSpaceOnUse" x="3" y="30.5386" width="95" height="46" fill="black">
<rect fill="white" x="3" y="30.5386" width="95" height="46"/>
<path d="M10.044 58.1986V73.9466H4.464V32.5926H10.044V36.8706C12.214 33.8946 15.81 31.8486 19.84 31.8486C27.652 31.8486 33.17 37.7386 33.17 47.5346C33.17 57.3306 27.652 63.2826 19.84 63.2826C15.934 63.2826 12.462 61.4846 10.044 58.1986ZM27.342 47.5346C27.342 41.3346 23.932 36.8086 18.352 36.8086C14.942 36.8086 11.532 38.7926 10.044 41.2106V53.9206C11.532 56.2766 14.942 58.3226 18.352 58.3226C23.932 58.3226 27.342 53.7966 27.342 47.5346ZM37.6432 58.6326L40.3092 54.5406C42.3552 56.7726 46.3232 58.8186 50.3532 58.8186C54.5692 58.8186 56.8012 57.0826 56.8012 54.5406C56.8012 51.5646 53.3912 50.5726 49.5472 49.7046C44.4632 48.5266 38.5112 47.1626 38.5112 40.7146C38.5112 35.9406 42.6032 31.8486 49.9192 31.8486C55.0652 31.8486 58.7852 33.7086 61.3272 36.1266L58.8472 40.0326C57.1112 37.9246 53.7632 36.3746 49.9812 36.3746C46.1992 36.3746 43.8432 37.8626 43.8432 40.2806C43.8432 42.8846 47.0672 43.7526 50.7872 44.6206C55.9952 45.7986 62.1952 47.2246 62.1952 54.1066C62.1952 59.2526 57.9792 63.2826 50.1052 63.2826C45.0832 63.2826 40.6812 61.7326 37.6432 58.6326ZM67.7612 74.2566L68.6292 69.2346C69.3112 69.5446 70.3652 69.7306 71.1092 69.7306C73.1552 69.7306 74.5192 69.0486 75.4492 66.8166L77.1852 62.8486L64.8472 32.5926H70.7992L80.1612 56.0906L89.5232 32.5926H95.5372L80.7812 68.2426C78.8592 72.9546 75.5732 74.6286 71.2332 74.6906C70.3032 74.6906 68.6292 74.5046 67.7612 74.2566Z"/>
</mask>
<path d="M10.044 58.1986V73.9466H4.464V32.5926H10.044V36.8706C12.214 33.8946 15.81 31.8486 19.84 31.8486C27.652 31.8486 33.17 37.7386 33.17 47.5346C33.17 57.3306 27.652 63.2826 19.84 63.2826C15.934 63.2826 12.462 61.4846 10.044 58.1986ZM27.342 47.5346C27.342 41.3346 23.932 36.8086 18.352 36.8086C14.942 36.8086 11.532 38.7926 10.044 41.2106V53.9206C11.532 56.2766 14.942 58.3226 18.352 58.3226C23.932 58.3226 27.342 53.7966 27.342 47.5346ZM37.6432 58.6326L40.3092 54.5406C42.3552 56.7726 46.3232 58.8186 50.3532 58.8186C54.5692 58.8186 56.8012 57.0826 56.8012 54.5406C56.8012 51.5646 53.3912 50.5726 49.5472 49.7046C44.4632 48.5266 38.5112 47.1626 38.5112 40.7146C38.5112 35.9406 42.6032 31.8486 49.9192 31.8486C55.0652 31.8486 58.7852 33.7086 61.3272 36.1266L58.8472 40.0326C57.1112 37.9246 53.7632 36.3746 49.9812 36.3746C46.1992 36.3746 43.8432 37.8626 43.8432 40.2806C43.8432 42.8846 47.0672 43.7526 50.7872 44.6206C55.9952 45.7986 62.1952 47.2246 62.1952 54.1066C62.1952 59.2526 57.9792 63.2826 50.1052 63.2826C45.0832 63.2826 40.6812 61.7326 37.6432 58.6326ZM67.7612 74.2566L68.6292 69.2346C69.3112 69.5446 70.3652 69.7306 71.1092 69.7306C73.1552 69.7306 74.5192 69.0486 75.4492 66.8166L77.1852 62.8486L64.8472 32.5926H70.7992L80.1612 56.0906L89.5232 32.5926H95.5372L80.7812 68.2426C78.8592 72.9546 75.5732 74.6286 71.2332 74.6906C70.3032 74.6906 68.6292 74.5046 67.7612 74.2566Z" fill="#0A6EBD"/>
<path d="M10.044 58.1986L10.8494 57.6059L9.044 55.1524V58.1986H10.044ZM10.044 73.9466V74.9466H11.044V73.9466H10.044ZM4.464 73.9466H3.464V74.9466H4.464V73.9466ZM4.464 32.5926V31.5926H3.464V32.5926H4.464ZM10.044 32.5926H11.044V31.5926H10.044V32.5926ZM10.044 36.8706H9.044V39.9393L10.852 37.4597L10.044 36.8706ZM10.044 41.2106L9.19234 40.6865L9.044 40.9275V41.2106H10.044ZM10.044 53.9206H9.044V54.2099L9.19851 54.4546L10.044 53.9206ZM9.044 58.1986V73.9466H11.044V58.1986H9.044ZM10.044 72.9466H4.464V74.9466H10.044V72.9466ZM5.464 73.9466V32.5926H3.464V73.9466H5.464ZM4.464 33.5926H10.044V31.5926H4.464V33.5926ZM9.044 32.5926V36.8706H11.044V32.5926H9.044ZM10.852 37.4597C12.8474 34.7232 16.152 32.8486 19.84 32.8486V30.8486C15.468 30.8486 11.5806 33.0659 9.23599 36.2814L10.852 37.4597ZM19.84 32.8486C23.4795 32.8486 26.5294 34.2125 28.6814 36.676C30.8435 39.151 32.17 42.82 32.17 47.5346H34.17C34.17 42.4531 32.7375 38.2791 30.1876 35.3602C27.6276 32.4297 24.0125 30.8486 19.84 30.8486V32.8486ZM32.17 47.5346C32.17 52.2493 30.8434 55.935 28.6795 58.4263C26.526 60.9057 23.4761 62.2826 19.84 62.2826V64.2826C24.0159 64.2826 27.631 62.6835 30.1895 59.7378C32.7376 56.8041 34.17 52.6159 34.17 47.5346H32.17ZM19.84 62.2826C16.2672 62.2826 13.0882 60.6483 10.8494 57.6059L9.23856 58.7913C11.8358 62.3209 15.6008 64.2826 19.84 64.2826V62.2826ZM28.342 47.5346C28.342 44.2601 27.4418 41.3392 25.7154 39.2157C23.9726 37.0721 21.4384 35.8086 18.352 35.8086V37.8086C20.8456 37.8086 22.8064 38.8081 24.1636 40.4774C25.5372 42.167 26.342 44.609 26.342 47.5346H28.342ZM18.352 35.8086C14.6111 35.8086 10.8707 37.9591 9.19234 40.6865L10.8957 41.7347C12.1933 39.6261 15.2729 37.8086 18.352 37.8086V35.8086ZM9.044 41.2106V53.9206H11.044V41.2106H9.044ZM9.19851 54.4546C10.8703 57.1016 14.5999 59.3226 18.352 59.3226V57.3226C15.2841 57.3226 12.1937 55.4516 10.8895 53.3866L9.19851 54.4546ZM18.352 59.3226C21.4386 59.3226 23.9736 58.0588 25.7167 55.9061C27.4429 53.7742 28.342 50.8379 28.342 47.5346H26.342C26.342 50.4932 25.5361 52.9509 24.1623 54.6475C22.8054 56.3234 20.8454 57.3226 18.352 57.3226V59.3226ZM37.6432 58.6326L36.8053 58.0867L36.3672 58.7592L36.929 59.3325L37.6432 58.6326ZM40.3092 54.5406L41.0464 53.8648L40.1751 52.9144L39.4713 53.9947L40.3092 54.5406ZM49.5472 49.7046L49.3215 50.6788L49.3269 50.68L49.5472 49.7046ZM61.3272 36.1266L62.1714 36.6626L62.612 35.9686L62.0164 35.402L61.3272 36.1266ZM58.8472 40.0326L58.0753 40.6683L58.9521 41.733L59.6914 40.5686L58.8472 40.0326ZM50.7872 44.6206L50.56 45.5944L50.5666 45.5959L50.7872 44.6206ZM38.4811 59.1785L41.1471 55.0865L39.4713 53.9947L36.8053 58.0867L38.4811 59.1785ZM39.572 55.2163C41.798 57.6446 46.0292 59.8186 50.3532 59.8186V57.8186C46.6172 57.8186 42.9124 55.9006 41.0464 53.8648L39.572 55.2163ZM50.3532 59.8186C52.58 59.8186 54.4172 59.3628 55.7277 58.4548C57.0773 57.5197 57.8012 56.1456 57.8012 54.5406H55.8012C55.8012 55.4775 55.4091 56.2424 54.5887 56.8108C53.7292 57.4063 52.3424 57.8186 50.3532 57.8186V59.8186ZM57.8012 54.5406C57.8012 52.5571 56.6163 51.2858 55.0953 50.4546C53.6213 49.649 51.6731 49.1594 49.7675 48.7291L49.3269 50.68C51.2653 51.1177 52.9441 51.5581 54.1361 52.2096C55.2811 52.8353 55.8012 53.5481 55.8012 54.5406H57.8012ZM49.7729 48.7304C47.1895 48.1318 44.6022 47.526 42.6431 46.3319C41.6837 45.7471 40.9117 45.0407 40.3761 44.156C39.8437 43.2765 39.5112 42.1654 39.5112 40.7146H37.5112C37.5112 42.4878 37.9227 43.9652 38.6652 45.1917C39.4045 46.413 40.4382 47.3303 41.6023 48.0397C43.8902 49.4342 46.821 50.0994 49.3215 50.6788L49.7729 48.7304ZM39.5112 40.7146C39.5112 38.6293 40.3986 36.6918 42.1131 35.2585C43.835 33.819 46.4445 32.8486 49.9192 32.8486V30.8486C46.0779 30.8486 42.9834 31.9241 40.8303 33.7241C38.6698 35.5303 37.5112 38.0258 37.5112 40.7146H39.5112ZM49.9192 32.8486C54.8012 32.8486 58.2764 34.6047 60.638 36.8511L62.0164 35.402C59.294 32.8124 55.3292 30.8486 49.9192 30.8486V32.8486ZM60.483 35.5906L58.003 39.4966L59.6914 40.5686L62.1714 36.6626L60.483 35.5906ZM59.6191 39.3969C57.6591 37.0168 54.0039 35.3746 49.9812 35.3746V37.3746C53.5225 37.3746 56.5633 38.8323 58.0753 40.6683L59.6191 39.3969ZM49.9812 35.3746C47.9783 35.3746 46.235 35.7656 44.9579 36.5767C43.6413 37.4127 42.8432 38.6908 42.8432 40.2806H44.8432C44.8432 39.4523 45.2231 38.7774 46.03 38.265C46.8764 37.7275 48.2021 37.3746 49.9812 37.3746V35.3746ZM42.8432 40.2806C42.8432 42.1198 44.0334 43.2587 45.4643 43.9916C46.8642 44.7086 48.7256 45.1664 50.56 45.5944L51.0144 43.6467C49.1288 43.2068 47.5182 42.7965 46.3761 42.2115C45.265 41.6425 44.8432 41.0453 44.8432 40.2806H42.8432ZM50.5666 45.5959C53.2091 46.1936 55.8854 46.8153 57.9174 48.0746C58.9134 48.6918 59.7215 49.4445 60.2845 50.3959C60.845 51.3433 61.1952 52.5427 61.1952 54.1066H63.1952C63.1952 52.2294 62.7704 50.6698 62.0057 49.3775C61.2434 48.0891 60.1761 47.1214 58.971 46.3746C56.601 44.9058 53.5733 44.2255 51.0078 43.6452L50.5666 45.5959ZM61.1952 54.1066C61.1952 56.3857 60.2714 58.3912 58.4736 59.8472C56.6591 61.3168 53.8797 62.2826 50.1052 62.2826V64.2826C54.2047 64.2826 57.4703 63.2334 59.7323 61.4014C62.011 59.556 63.1952 56.9735 63.1952 54.1066H61.1952ZM50.1052 62.2826C45.2827 62.2826 41.1638 60.7963 38.3574 57.9326L36.929 59.3325C40.1986 62.6688 44.8837 64.2826 50.1052 64.2826V62.2826ZM67.7612 74.2566L66.7758 74.0863L66.6228 74.9713L67.4864 75.2181L67.7612 74.2566ZM68.6292 69.2346L69.043 68.3242L67.8643 67.7884L67.6438 69.0643L68.6292 69.2346ZM75.4492 66.8166L74.533 66.4158L74.5295 66.4238L74.5261 66.432L75.4492 66.8166ZM77.1852 62.8486L78.1013 63.2494L78.2707 62.8623L78.1111 62.471L77.1852 62.8486ZM64.8472 32.5926V31.5926H63.3594L63.9212 32.9702L64.8472 32.5926ZM70.7992 32.5926L71.7281 32.2225L71.4772 31.5926H70.7992V32.5926ZM80.1612 56.0906L79.2322 56.4607L80.1612 58.7924L81.0901 56.4607L80.1612 56.0906ZM89.5232 32.5926V31.5926H88.8451L88.5942 32.2225L89.5232 32.5926ZM95.5372 32.5926L96.4611 32.975L97.0333 31.5926H95.5372V32.5926ZM80.7812 68.2426L79.8572 67.8601L79.8552 67.8649L80.7812 68.2426ZM71.2332 74.6906V75.6906H71.2403L71.2474 75.6905L71.2332 74.6906ZM68.7465 74.4269L69.6145 69.4049L67.6438 69.0643L66.7758 74.0863L68.7465 74.4269ZM68.2154 70.1449C69.054 70.5261 70.255 70.7306 71.1092 70.7306V68.7306C70.4754 68.7306 69.5683 68.563 69.043 68.3242L68.2154 70.1449ZM71.1092 70.7306C72.2366 70.7306 73.2995 70.5437 74.231 69.9565C75.1686 69.3654 75.8544 68.444 76.3722 67.2012L74.5261 66.432C74.1139 67.4212 73.6527 67.9568 73.1644 68.2646C72.6698 68.5764 72.0277 68.7306 71.1092 68.7306V70.7306ZM76.3653 67.2174L78.1013 63.2494L76.269 62.4478L74.533 66.4158L76.3653 67.2174ZM78.1111 62.471L65.7731 32.215L63.9212 32.9702L76.2592 63.2262L78.1111 62.471ZM64.8472 33.5926H70.7992V31.5926H64.8472V33.5926ZM69.8702 32.9627L79.2322 56.4607L81.0901 55.7205L71.7281 32.2225L69.8702 32.9627ZM81.0901 56.4607L90.4521 32.9627L88.5942 32.2225L79.2322 55.7205L81.0901 56.4607ZM89.5232 33.5926H95.5372V31.5926H89.5232V33.5926ZM94.6132 32.2101L79.8572 67.8601L81.7051 68.625L96.4611 32.975L94.6132 32.2101ZM79.8552 67.8649C78.9563 70.0687 77.7739 71.4827 76.3791 72.3653C74.9764 73.2531 73.2671 73.6614 71.2189 73.6907L71.2474 75.6905C73.5392 75.6577 75.6429 75.1981 77.4487 74.0553C79.2624 72.9075 80.684 71.1284 81.7071 68.6203L79.8552 67.8649ZM71.2332 73.6906C70.3684 73.6906 68.7913 73.5109 68.0359 73.2951L67.4864 75.2181C68.467 75.4983 70.2379 75.6906 71.2332 75.6906V73.6906Z" fill="#0A6EBD" mask="url(#path-1-outside-1_1675_6492)"/>
<mask id="path-3-outside-2_1675_6492" maskUnits="userSpaceOnUse" x="157" y="27" width="92" height="34" fill="black">
<rect fill="white" x="157" y="27" width="92" height="34"/>
<path d="M158.604 43.996C158.604 35.316 164.866 28.31 173.608 28.31C182.598 28.31 188.178 35.316 188.178 44.492V45.856H164.494C164.928 50.94 168.648 55.156 174.662 55.156C177.824 55.156 181.296 53.916 183.528 51.622L186.132 55.28C183.156 58.194 178.94 59.744 174.104 59.744C165.176 59.744 158.604 53.42 158.604 43.996ZM173.608 32.898C167.594 32.898 164.742 37.734 164.432 41.826H182.722C182.598 37.858 179.932 32.898 173.608 32.898ZM218.399 59H212.075L203.705 47.344L195.273 59H188.949L200.171 43.624L189.631 29.054H195.955L203.705 39.842L211.393 29.054H217.717L207.115 43.624L218.399 59ZM247.428 59H241.848V55.714C239.492 58.318 236.082 59.744 232.052 59.744C227.092 59.744 221.636 56.396 221.636 49.824C221.636 43.004 227.03 40.028 232.052 40.028C236.082 40.028 239.554 41.33 241.848 43.996V39.036C241.848 35.316 238.81 33.084 234.532 33.084C231.122 33.084 228.208 34.386 225.542 37.052L223.124 33.208C226.472 29.922 230.564 28.31 235.4 28.31C241.91 28.31 247.428 31.162 247.428 38.788V59ZM241.848 52.428V47.344C240.174 45.112 237.26 43.934 234.16 43.934C230.13 43.934 227.278 46.352 227.278 49.886C227.278 53.42 230.13 55.838 234.16 55.838C237.26 55.838 240.174 54.66 241.848 52.428Z"/>
</mask>
<path d="M158.604 43.996C158.604 35.316 164.866 28.31 173.608 28.31C182.598 28.31 188.178 35.316 188.178 44.492V45.856H164.494C164.928 50.94 168.648 55.156 174.662 55.156C177.824 55.156 181.296 53.916 183.528 51.622L186.132 55.28C183.156 58.194 178.94 59.744 174.104 59.744C165.176 59.744 158.604 53.42 158.604 43.996ZM173.608 32.898C167.594 32.898 164.742 37.734 164.432 41.826H182.722C182.598 37.858 179.932 32.898 173.608 32.898ZM218.399 59H212.075L203.705 47.344L195.273 59H188.949L200.171 43.624L189.631 29.054H195.955L203.705 39.842L211.393 29.054H217.717L207.115 43.624L218.399 59ZM247.428 59H241.848V55.714C239.492 58.318 236.082 59.744 232.052 59.744C227.092 59.744 221.636 56.396 221.636 49.824C221.636 43.004 227.03 40.028 232.052 40.028C236.082 40.028 239.554 41.33 241.848 43.996V39.036C241.848 35.316 238.81 33.084 234.532 33.084C231.122 33.084 228.208 34.386 225.542 37.052L223.124 33.208C226.472 29.922 230.564 28.31 235.4 28.31C241.91 28.31 247.428 31.162 247.428 38.788V59ZM241.848 52.428V47.344C240.174 45.112 237.26 43.934 234.16 43.934C230.13 43.934 227.278 46.352 227.278 49.886C227.278 53.42 230.13 55.838 234.16 55.838C237.26 55.838 240.174 54.66 241.848 52.428Z" fill="#0A6EBD"/>
<path d="M188.178 45.856V46.856H189.178V45.856H188.178ZM164.494 45.856V44.856H163.405L163.498 45.9411L164.494 45.856ZM183.528 51.622L184.343 51.0421L183.647 50.0653L182.811 50.9246L183.528 51.622ZM186.132 55.28L186.832 55.9945L187.442 55.3965L186.947 54.7001L186.132 55.28ZM164.432 41.826L163.435 41.7505L163.353 42.826H164.432V41.826ZM182.722 41.826V42.826H183.754L183.722 41.7948L182.722 41.826ZM159.604 43.996C159.604 35.8062 165.478 29.31 173.608 29.31V27.31C164.254 27.31 157.604 34.8258 157.604 43.996H159.604ZM173.608 29.31C177.823 29.31 181.187 30.9434 183.509 33.6159C185.844 36.3023 187.178 40.1018 187.178 44.492H189.178C189.178 39.7062 187.722 35.4147 185.019 32.3041C182.304 29.1796 178.383 27.31 173.608 27.31V29.31ZM187.178 44.492V45.856H189.178V44.492H187.178ZM188.178 44.856H164.494V46.856H188.178V44.856ZM163.498 45.9411C163.971 51.4894 168.077 56.156 174.662 56.156V54.156C169.219 54.156 165.885 50.3906 165.49 45.7709L163.498 45.9411ZM174.662 56.156C178.048 56.156 181.795 54.8372 184.245 52.3194L182.811 50.9246C180.797 52.9948 177.6 54.156 174.662 54.156V56.156ZM182.713 52.2019L185.317 55.8599L186.947 54.7001L184.343 51.0421L182.713 52.2019ZM185.432 54.5655C182.676 57.2647 178.728 58.744 174.104 58.744V60.744C179.152 60.744 183.636 59.1233 186.832 55.9945L185.432 54.5655ZM174.104 58.744C169.881 58.744 166.268 57.2522 163.713 54.6969C161.159 52.1428 159.604 48.4685 159.604 43.996H157.604C157.604 48.9475 159.335 53.1472 162.299 56.1111C165.262 59.0738 169.399 60.744 174.104 60.744V58.744ZM173.608 31.898C170.302 31.898 167.815 33.2396 166.128 35.1695C164.463 37.0751 163.604 39.5208 163.435 41.7505L165.429 41.9015C165.57 40.0392 166.292 38.0209 167.634 36.4855C168.954 34.9744 170.9 33.898 173.608 33.898V31.898ZM164.432 42.826H182.722V40.826H164.432V42.826ZM183.722 41.7948C183.654 39.6191 182.892 37.1602 181.253 35.2271C179.589 33.266 177.062 31.898 173.608 31.898V33.898C176.478 33.898 178.446 35.01 179.727 36.5209C181.033 38.0598 181.666 40.0649 181.722 41.8572L183.722 41.7948ZM218.399 59V60H220.373L219.205 58.4084L218.399 59ZM212.075 59L211.263 59.5833L211.562 60H212.075V59ZM203.705 47.344L204.517 46.7607L203.708 45.6337L202.895 46.7579L203.705 47.344ZM195.273 59V60H195.784L196.083 59.5861L195.273 59ZM188.949 59L188.141 58.4105L186.981 60H188.949V59ZM200.171 43.624L200.979 44.2135L201.407 43.6266L200.981 43.0379L200.171 43.624ZM189.631 29.054V28.054H187.673L188.821 29.6401L189.631 29.054ZM195.955 29.054L196.767 28.4706L196.468 28.054H195.955V29.054ZM203.705 39.842L202.893 40.4254L203.708 41.5605L204.519 40.4224L203.705 39.842ZM211.393 29.054V28.054H210.878L210.579 28.4736L211.393 29.054ZM217.717 29.054L218.526 29.6424L219.682 28.054H217.717V29.054ZM207.115 43.624L206.307 43.0356L205.877 43.6265L206.309 44.2156L207.115 43.624ZM218.399 58H212.075V60H218.399V58ZM212.887 58.4167L204.517 46.7607L202.893 47.9273L211.263 59.5833L212.887 58.4167ZM202.895 46.7579L194.463 58.4139L196.083 59.5861L204.515 47.9301L202.895 46.7579ZM195.273 58H188.949V60H195.273V58ZM189.757 59.5895L200.979 44.2135L199.363 43.0345L188.141 58.4105L189.757 59.5895ZM200.981 43.0379L190.441 28.4679L188.821 29.6401L199.361 44.2101L200.981 43.0379ZM189.631 30.054H195.955V28.054H189.631V30.054ZM195.143 29.6374L202.893 40.4254L204.517 39.2586L196.767 28.4706L195.143 29.6374ZM204.519 40.4224L212.207 29.6344L210.579 28.4736L202.891 39.2616L204.519 40.4224ZM211.393 30.054H217.717V28.054H211.393V30.054ZM216.909 28.4656L206.307 43.0356L207.924 44.2124L218.526 29.6424L216.909 28.4656ZM206.309 44.2156L217.593 59.5916L219.205 58.4084L207.921 43.0324L206.309 44.2156ZM247.428 59V60H248.428V59H247.428ZM241.848 59H240.848V60H241.848V59ZM241.848 55.714H242.848V53.1182L241.107 55.0431L241.848 55.714ZM241.848 43.996L241.09 44.6482L242.848 46.6913V43.996H241.848ZM225.542 37.052L224.696 37.5845L225.363 38.6453L226.249 37.7591L225.542 37.052ZM223.124 33.208L222.424 32.4943L221.849 33.0586L222.278 33.7405L223.124 33.208ZM241.848 52.428L242.648 53.028L242.848 52.7613V52.428H241.848ZM241.848 47.344H242.848V47.0107L242.648 46.744L241.848 47.344ZM247.428 58H241.848V60H247.428V58ZM242.848 59V55.714H240.848V59H242.848ZM241.107 55.0431C238.965 57.4104 235.839 58.744 232.052 58.744V60.744C236.326 60.744 240.02 59.2256 242.59 56.3849L241.107 55.0431ZM232.052 58.744C227.469 58.744 222.636 55.6834 222.636 49.824H220.636C220.636 57.1086 226.715 60.744 232.052 60.744V58.744ZM222.636 49.824C222.636 46.709 223.854 44.5486 225.589 43.1464C227.354 41.7205 229.723 41.028 232.052 41.028V39.028C229.359 39.028 226.52 39.8235 224.333 41.5906C222.116 43.3814 220.636 46.119 220.636 49.824H222.636ZM232.052 41.028C235.872 41.028 239.033 42.2576 241.09 44.6482L242.606 43.3438C240.075 40.4024 236.293 39.028 232.052 39.028V41.028ZM242.848 43.996V39.036H240.848V43.996H242.848ZM242.848 39.036C242.848 36.8751 241.953 35.0962 240.415 33.8805C238.901 32.6838 236.834 32.084 234.532 32.084V34.084C236.508 34.084 238.1 34.6002 239.174 35.4495C240.225 36.2798 240.848 37.4769 240.848 39.036H242.848ZM234.532 32.084C230.823 32.084 227.663 33.5166 224.835 36.3449L226.249 37.7591C228.753 35.2554 231.421 34.084 234.532 34.084V32.084ZM226.389 36.5195L223.971 32.6755L222.278 33.7405L224.696 37.5845L226.389 36.5195ZM223.825 33.9217C226.976 30.8286 230.812 29.31 235.4 29.31V27.31C230.316 27.31 225.968 29.0154 222.424 32.4943L223.825 33.9217ZM235.4 29.31C238.531 29.31 241.294 29.9989 243.251 31.4855C245.163 32.9384 246.428 35.2452 246.428 38.788H248.428C248.428 34.7048 246.934 31.7726 244.46 29.893C242.031 28.0471 238.78 27.31 235.4 27.31V29.31ZM246.428 38.788V59H248.428V38.788H246.428ZM242.848 52.428V47.344H240.848V52.428H242.848ZM242.648 46.744C240.739 44.198 237.488 42.934 234.16 42.934V44.934C237.032 44.934 239.61 46.026 241.048 47.944L242.648 46.744ZM234.16 42.934C231.949 42.934 229.984 43.5983 228.556 44.8265C227.116 46.0647 226.278 47.8307 226.278 49.886H228.278C228.278 48.4073 228.866 47.1973 229.86 46.343C230.865 45.4787 232.341 44.934 234.16 44.934V42.934ZM226.278 49.886C226.278 51.9413 227.116 53.7073 228.556 54.9455C229.984 56.1737 231.949 56.838 234.16 56.838V54.838C232.341 54.838 230.865 54.2933 229.86 53.429C228.866 52.5747 228.278 51.3647 228.278 49.886H226.278ZM234.16 56.838C237.488 56.838 240.739 55.574 242.648 53.028L241.048 51.828C239.61 53.746 237.032 54.838 234.16 54.838V56.838Z" fill="#0A6EBD" mask="url(#path-3-outside-2_1675_6492)"/>
<path d="M116.594 60.485V68.5397C115.937 72.9659 105.437 72.7469 105 68.5397V39.6368C105 33.9907 111.781 30.2684 116.594 35.4766L124.25 46.4715L131.906 57.6385C137.375 66.8348 147 63.5504 147 56.7626V49.7559V42.5302V30.6595C147 23.2616 130.812 23.2616 130.812 30.6594V41.1696" stroke="#0A6EBD" stroke-width="6" stroke-linecap="round"/>
<circle cx="140" cy="9" r="8.25" fill="#F5F5F7" stroke="#0A6EBD" stroke-width="1.5"/>
<path d="M131.667 8.86737C134.651 10.0899 141.365 11.3614 147.333 6.66675" stroke="#0A6EBD" stroke-width="1.5" stroke-linecap="round"/>
<circle cx="140.5" cy="9.50016" r="1.41667" fill="#0A6EBD" stroke="#0A6EBD" stroke-width="1.5"/>
<circle cx="140" cy="9" r="8.25" stroke="#0A6EBD" stroke-width="1.5"/>
</svg>
