<svg width="62" height="108" viewBox="0 0 62 108" fill="none" xmlns="http://www.w3.org/2000/svg">
<g clip-path="url(#clip0_1547_11216)">
<path d="M30.0392 71.9324C13.4788 71.9324 0.0625 80.0039 0.0625 89.9662C0.0625 99.9286 13.4788 108 30.0392 108C46.5995 108 60.0158 99.9286 60.0158 89.9662C60.0158 80.0039 46.5995 71.9324 30.0392 71.9324Z" fill="#FF6E98"/>
<path d="M28.2494 104.382C20.0081 102.859 13.6891 99.8661 10.4595 95.9514C7.47115 92.3259 7.4945 88.005 10.514 84.4107C13.798 80.4883 20.8641 77.6988 28.9498 77.1284C36.5295 76.5893 43.619 78.0504 48.4206 81.1446C48.4361 81.1524 48.4595 81.1681 48.475 81.1837C53.6112 84.5123 54.7241 89.4427 51.1832 93.162C47.1988 97.3579 38.7007 99.4754 30.5295 98.3112C22.9342 97.2329 17.4556 93.3729 17.5023 89.138C17.5334 86.5438 19.5568 84.3326 22.9264 83.2152C26.3038 82.0979 30.9887 81.8869 35.1599 82.6605C39.7513 83.52 42.9731 85.5437 43.5723 87.9503C44.2105 90.521 41.1832 92.9744 36.8097 93.4276C34.2494 93.6933 31.1988 93.0916 29.0431 91.8883C27.1365 90.8335 26.2961 89.5208 26.7396 88.2941C27.012 87.5518 27.7591 86.9658 28.9108 86.5985C30.2494 86.1688 35.2999 85.2702 39.5879 88.1925C39.868 88.4035 40.3116 88.4269 40.6618 88.2863C41.0354 88.1456 41.121 87.8643 40.8719 87.6534C39.261 86.3094 34.9186 84.2388 29.0354 85.2389C27.3311 85.5281 25.9926 86.1531 25.1677 87.0361C24.226 88.044 24.0859 89.2786 24.7708 90.4194C26.2027 92.7947 29.9069 94.4122 34.4439 94.6309C38.8175 94.8419 42.7785 93.6542 44.7785 91.5211C46.5217 89.6693 46.4984 87.5987 44.7319 85.6921C42.5062 83.3012 37.868 81.4728 32.9108 81.043C27.7202 80.5898 22.7085 81.3243 19.5101 83.0121C16.4984 84.5982 14.8875 87.1377 15.2066 89.8099C15.8213 94.9747 23.1599 99.1863 32.654 99.827C42.6385 100.499 52.1793 96.9281 54.8486 91.5133C57.3622 86.4188 53.3155 80.7852 44.9964 77.8238C37.0587 74.9953 26.5373 74.9562 18.1949 77.7379C9.40111 80.668 4.6229 86.3485 6.00812 92.2243C6.70851 95.1701 9.07427 97.9361 12.5762 100.186C16.4595 102.687 21.7435 104.554 27.6813 105.351C28.1793 105.422 28.6774 105.257 28.8175 104.984C28.9498 104.726 28.7007 104.468 28.226 104.382H28.2494Z" fill="white"/>
<path d="M40.5056 50.3588C39.4161 50.351 36.7935 51.4449 34.957 51.945C33.7585 50.7339 32.7935 49.8041 31.634 48.8274C30.0231 47.4443 29.8441 47.1787 28.1476 46.6317C26.4511 46.0926 27.3383 46.9443 27.3383 46.9443C27.3383 46.9443 26.8558 47.1631 26.7468 47.4209C26.6379 47.6788 28.1476 48.046 28.1476 48.046C28.1476 48.046 27.0426 48.1163 26.9336 48.4132C26.8247 48.7102 28.2566 48.6164 28.2566 48.6164C28.2566 48.6164 28.918 49.4681 29.2838 49.679C29.6496 49.89 30.7468 49.89 30.7468 49.89C30.7468 49.89 31.6573 51.6403 32.7235 52.7107C33.7896 53.7812 34.1398 54.3985 34.7857 54.2109C35.4317 54.0234 40.2955 53.2889 40.7546 53.0076C41.2138 52.7342 42.3188 50.3588 40.4978 50.3432L40.5056 50.3588Z" fill="#FFC9B6"/>
<path d="M37.1445 50.9996C37.1523 50.9371 39.4635 50.1479 40.3663 49.9917C41.269 49.8354 44.4441 51.4606 42.5919 52.8358C40.7398 54.211 37.6814 54.4142 37.6814 54.4142C37.6814 54.4142 37.02 51.906 37.1523 50.9996H37.1445Z" fill="#D7D7FF"/>
<path d="M17.0429 69.0803C16.3969 69.135 15.6654 69.1896 15.0117 69.2287C14.1324 69.2834 13.144 69.2834 12.2569 69.26C11.1752 69.2287 10.537 69.8226 11.5487 70.6821C13.1829 72.0651 14.1635 71.7525 15.4008 71.8775C15.572 71.8932 15.5643 72.237 16.109 72.4479C16.8016 72.7214 16.9339 72.698 17.4008 72.1979C17.6966 71.8775 18.2569 71.1743 18.4281 70.7133C18.4359 70.7133 18.4514 70.7133 18.4592 70.7133C18.6148 70.6977 17.9067 69.0099 17.0429 69.0803Z" fill="#522796"/>
<path d="M19.3623 78.6755C18.7397 78.8708 18.0471 79.0896 17.4167 79.2693C16.5685 79.5193 15.6035 79.7381 14.7397 79.9178C13.6813 80.1288 13.1833 80.8555 14.3662 81.4649C16.2728 82.4494 17.1521 81.9259 18.3895 81.7697C18.5607 81.7462 18.6307 82.0822 19.2066 82.1681C19.9381 82.2775 20.0627 82.2228 20.4128 81.6368C20.6307 81.2618 21.0199 80.4491 21.0821 79.9569C21.0899 79.9569 21.0977 79.9569 21.1132 79.9491C21.2611 79.9022 20.1949 78.4098 19.37 78.6755H19.3623Z" fill="#522796"/>
<path d="M37.5639 66.3846C37.6884 65.9861 35.6417 62.1731 35.6884 62.2825C32.4511 60.9307 28.6145 59.1883 24.9802 59.0242C24.5522 58.7351 24.062 58.5085 23.4394 59.2039C22.9569 59.7508 22.4044 60.9541 21.9919 61.5792C20.5522 63.728 18.1009 67.1113 16.4822 69.135C16.2721 69.9945 17.1981 70.8775 18.1943 71.0181C19.6417 69.8382 21.4083 68.088 22.6456 67.2285C24.2876 66.0877 24.4433 64.9235 24.7234 63.7514C25.8518 64.9078 29.6417 65.9861 31.0814 66.744C32.8246 67.666 33.2137 68.0098 35.2371 67.9239C36.6223 67.8614 37.097 67.8536 37.5717 66.3924L37.5639 66.3846Z" fill="#522796"/>
<path d="M37.2762 65.5095C36.389 65.0173 35.3773 64.5094 34.677 63.7437C34.5213 63.8218 34.3579 63.8843 34.21 63.9937C33.5252 64.4469 32.9493 64.7594 32.7703 65.6267C31.9921 65.9783 28.6925 67.2129 27.9299 67.7364C27.2295 67.9161 26.8482 68.0255 26.3112 69.0725C25.7042 70.2602 25.3151 70.7447 24.4357 71.948C22.747 74.2608 21.0972 76.0814 19.4785 78.4411C19.533 79.66 20.2801 80.1445 21.4396 79.8944C23.5096 78.0348 25.8832 77.2847 27.2061 75.3703C28.0777 74.1045 28.6847 73.1122 28.5914 71.9245C31.7976 72.0183 35.3384 73.0966 38.1556 71.3385C39.9844 70.1977 40.2801 68.7287 40.3812 66.5175C39.284 66.5409 38.3034 66.0565 37.2917 65.4939L37.2762 65.5095Z" fill="#6234A5"/>
<path d="M41.2064 50.4682C42.9962 49.9916 42.3659 50.0384 42.9962 51.5152C43.7744 53.3202 44.506 54.6407 44.7316 55.5939C45.113 57.1957 44.4048 59.3835 42.9418 61.6964C42.7239 62.048 42.0779 63.3294 41.9457 63.7514C41.4709 65.2594 41.1207 65.3063 40.6149 65.361C41.0585 65.6891 40.7939 66.4783 40.2958 66.4627C37.113 66.3689 33.1052 63.3841 34.3659 60.5165C34.4437 60.3368 34.9573 59.9852 35.1441 59.9305C34.9962 59.5945 35.2453 59.0007 35.4943 58.6725C35.2141 58.0708 35.4087 57.5942 35.7978 56.8519C35.0196 55.9377 34.825 54.1484 36.0779 53.3983C37.0974 52.7888 37.6421 52.5622 38.3581 52.1481C40.0079 51.2027 40.7005 50.601 41.2141 50.4682H41.2064Z" fill="#E9E9FF"/>
<path d="M41.0897 51.0854C41.0897 51.0854 39.9069 51.8277 39.4788 52.2575C39.0508 52.6872 39.2687 53.5233 39.2687 53.5233L37.5645 54.4766L37.9302 55.0079L39.5178 54.039C39.5178 54.039 40.3894 55.1173 41.261 54.961C42.1325 54.8047 44.1948 54.1718 44.1948 54.1718C44.1948 54.1718 43.9146 53.1404 43.4477 52.5466C42.973 51.945 41.082 51.0933 41.082 51.0933L41.0897 51.0854Z" fill="#D7D7FF"/>
<path d="M41.1131 51.4059C41.401 51.5543 42.3271 51.7184 43.0586 50.3198C43.2609 49.9291 45.5255 50.1635 45.4944 50.2104C44.6383 51.3277 43.9924 52.7576 44.078 53.7343C42.7551 53.9531 40.7317 55.2033 39.9224 53.6093C39.5177 52.8123 39.5411 52.4607 41.1208 51.4059H41.1131Z" fill="#FFB9A4"/>
<path d="M43.2767 46.1707C44.5141 46.7255 45.1055 47.1006 45.7592 48.1945C46.1795 48.7336 46.4985 49.3509 46.7475 50.0229C46.7631 50.0697 46.7553 50.1479 46.7164 50.1869C45.4324 51.4059 43.8526 52.5388 41.8215 51.9841C40.1483 51.5309 40.483 49.5619 40.9732 48.4445C41.5413 47.1396 42.4207 45.7879 43.2845 46.1707H43.2767Z" fill="#FFC9B6"/>
<path d="M48.1243 46.5927C47.7741 46.0614 48.6612 45.0456 49.4005 45.5066C49.8363 44.7565 51.0348 45.069 51.6184 45.5847C52.4433 46.3192 52.2176 47.1787 51.634 47.8585C51.9064 47.9054 52.1398 48.1242 52.2176 48.468C52.3499 49.0149 51.9842 49.4447 51.5639 49.7338C51.992 50.187 52.3499 50.9996 51.8441 51.4997C51.6729 51.6637 51.385 51.7184 51.1359 51.6637C51.206 52.2498 50.9336 52.7967 50.1709 52.742C49.813 53.3515 48.9881 53.6797 48.3655 53.0936C47.7429 52.5076 48.0464 51.5856 48.6534 51.1246C48.6067 50.7964 48.6301 50.4604 48.7157 50.1557C47.7118 49.9994 46.7079 49.4056 46.669 48.2726C46.6379 47.4209 47.3149 46.6552 48.1165 46.5771L48.1243 46.5927Z" fill="#522796"/>
<path d="M47.1592 45.9051C47.1592 45.9051 48.093 45.3504 48.8635 46.3115C49.6417 47.2725 48.2409 48.1398 48.2409 48.1398L47.1592 45.9051Z" fill="#E9E9FF"/>
<path d="M42.5529 44.1549C42.9031 44.0611 43.3233 44.1314 43.5879 44.3815C44.3661 44.022 45.4011 43.9986 46.1482 44.3815C46.833 44.7409 47.5723 45.5769 47.4478 46.3974C47.4478 46.4286 47.4322 46.4443 47.4167 46.4599C48.7085 46.6005 49.5334 47.9523 49.1599 49.2025C48.7941 50.4058 47.1754 51.6872 45.868 51.4215C45.7435 51.5309 45.619 51.6247 45.4478 51.695C45.191 51.8044 44.9186 51.8825 44.6462 51.9372C44.5295 51.9607 44.4517 51.8513 44.4517 51.7497C44.4595 51.5544 44.5373 51.3122 44.6618 51.109C44.4206 50.773 44.4673 50.187 44.5762 49.8276C44.6151 49.6947 44.6696 49.5697 44.7319 49.4603C44.3739 49.3431 44.0626 48.9993 43.9459 48.6711C43.8447 48.3977 43.8603 48.132 43.9459 47.8742C43.2844 47.7569 42.8175 47.2334 42.6229 46.6083C42.405 46.7568 42.0548 46.6943 41.8447 46.5224C41.4634 46.2177 41.44 45.6395 41.5645 45.2097C41.7046 44.7253 42.047 44.2721 42.5529 44.1392V44.1549Z" fill="#6234A5"/>
<path d="M44.1169 50.2416C44.1169 50.2416 45.0118 49.5697 45.2453 50.437C45.4709 51.2965 44.0312 51.5778 44.0312 51.5778L44.1169 50.2494V50.2416Z" fill="#FFC9B6"/>
<path d="M37.2998 61.8293C37.2998 61.8293 38.8718 62.3685 39.4944 62.9623C40.1169 63.5562 40.5216 64.2438 40.5216 64.2438C40.5216 64.2438 39.4554 63.6577 38.794 63.1967C38.1325 62.7357 37.3076 61.8215 37.3076 61.8215L37.2998 61.8293Z" fill="#D7D7FF"/>
<path d="M36.2256 62.5793C36.3112 62.6419 37.7587 63.6654 38.568 64.189C39.3773 64.7125 39.7042 64.9 39.7042 64.9C39.7042 64.9 38.7236 64.9 37.8365 64.2358C36.9493 63.5717 36.2334 62.5793 36.2334 62.5793H36.2256Z" fill="#D7D7FF"/>
<path d="M43.3855 59.2585L43.191 62.7122C43.191 62.7122 38.9808 64.9859 37.5256 65.8064C36.0703 66.6268 34.9808 67.7363 34.6618 68.924C34.4983 69.5413 34.8408 69.8538 34.9264 69.7913C35.0197 69.7288 35.2921 69.5257 35.2921 69.5257C35.2921 69.5257 35.2065 69.932 35.4867 69.9398C35.7668 69.9398 36.6696 69.0412 37.2065 68.6818C37.7435 68.3224 38.4828 67.2753 38.4828 67.2753C38.4828 67.2753 42.296 65.6032 43.8836 65.2907C45.4711 64.9781 45.7746 64.6343 45.9847 63.1966C46.2026 61.7667 45.8913 59.657 45.8913 59.657L43.3855 59.2585Z" fill="#FFC9B6"/>
<path d="M37.3074 65.9705C37.3074 65.9705 36.2568 66.2518 35.5954 66.6659C34.9339 67.0878 34.4592 67.4551 34.8327 67.5019C35.2063 67.5488 35.2607 67.2988 35.5175 67.1816C35.7743 67.0722 36.607 67.2519 36.8171 67.0566C37.1907 66.7049 37.2996 65.9626 37.2996 65.9626L37.3074 65.9705Z" fill="#FFC9B6"/>
<path d="M42.7468 55.7424C42.4899 56.3675 42.3499 57.1567 42.3654 58.4303C42.381 59.7039 42.8012 61.6651 42.8012 61.6651C42.8012 61.6651 43.6417 62.2043 44.8635 62.0324C45.6884 61.9152 47.0113 61.5167 47.0113 61.5167C47.0113 61.5167 46.3187 56.9535 45.6261 55.8283C44.9335 54.711 43.2837 54.4375 42.7468 55.7424Z" fill="#D7D7FF"/>
<path d="M11.7278 39.6777L13.3231 40.5763L5.02737 58.4304L3.28418 57.4772L11.7278 39.6777Z" fill="#D7D7FF"/>
<path d="M13.9763 44.8971C13.9763 49.6322 11.1125 55.133 7.57166 57.188C4.03081 59.2352 1.16699 57.063 1.16699 52.3279C1.16699 47.5928 4.03081 42.092 7.57166 40.0371C11.1125 37.9899 13.9763 40.1621 13.9763 44.8971Z" fill="#D7D7FF"/>
<path d="M15.5642 45.7879C15.5642 50.523 12.6926 56.0238 9.15955 58.0788C5.6187 60.1259 2.75488 57.9537 2.75488 53.2187C2.75488 48.4836 5.6187 42.9828 9.15955 40.9278C12.7004 38.8729 15.5642 41.0529 15.5642 45.7879Z" fill="#E9E9FF"/>
<path d="M8.09224 48.5384C8.09224 48.8666 7.89768 49.2416 7.64866 49.3823C7.39963 49.5229 7.20508 49.3745 7.20508 49.0463C7.20508 48.7181 7.39963 48.3431 7.64866 48.2024C7.8899 48.0618 8.09224 48.2102 8.09224 48.5384Z" fill="#6234A5"/>
<path d="M11.0883 46.8038C11.0883 47.132 10.8938 47.507 10.6448 47.6477C10.4035 47.7883 10.2012 47.6398 10.2012 47.3117C10.2012 46.9835 10.3957 46.6085 10.6448 46.4678C10.886 46.3272 11.0883 46.4756 11.0883 46.8038Z" fill="#6234A5"/>
<path d="M9.15879 55.6488C6.62183 57.1178 4.55957 55.555 4.55957 52.1639C4.55957 48.7728 6.62183 44.8191 9.15879 43.3502C11.6958 41.8812 13.758 43.4439 13.758 46.835C13.758 50.2261 11.6958 54.1798 9.15879 55.6488ZM9.15879 44.2018C6.9798 45.4676 5.20548 48.8744 5.20548 51.7889C5.20548 54.7034 6.9798 56.0551 9.15879 54.7893C11.3378 53.5235 13.1121 50.1168 13.1121 47.2023C13.1121 44.2878 11.3378 42.936 9.15879 44.2018Z" fill="#6234A5"/>
<path d="M9.1748 53.6016C6.75457 55.0003 6.38881 52.5234 6.38881 52.4999C6.35768 52.2811 6.47441 51.992 6.6534 51.8514C6.81682 51.7186 6.98803 51.7733 7.01916 51.9842C7.02694 52.0624 7.31488 53.8204 9.1748 52.7421C11.0503 51.6561 11.2838 49.562 11.2993 49.4682C11.3227 49.2182 11.4861 48.9604 11.6651 48.8978C11.8363 48.8275 11.9608 48.976 11.9374 49.226C11.9374 49.2573 11.6028 52.1952 9.18258 53.5938L9.1748 53.6016Z" fill="#6234A5"/>
<path d="M36.482 0.414062L34.8789 1.31263L43.1746 19.1668L44.9256 18.2135L36.482 0.414062Z" fill="#D7D7FF"/>
<path d="M34.2334 5.63362C34.2334 10.3687 37.0972 15.8695 40.6381 17.9245C44.1789 19.9794 47.0427 17.7994 47.0427 13.0644C47.0427 8.32932 44.1789 2.82852 40.6381 0.773538C37.0972 -1.28145 34.2334 0.898557 34.2334 5.63362Z" fill="#D7D7FF"/>
<path d="M32.6455 6.52434C32.6455 11.2594 35.5093 16.7602 39.0502 18.8152C42.591 20.8624 45.4548 18.6902 45.4548 13.9551C45.4548 9.22004 42.591 3.71925 39.0502 1.66426C35.5093 -0.38291 32.6455 1.78928 32.6455 6.52434Z" fill="#E9E9FF"/>
<path d="M40.1084 9.27474C40.1084 9.60291 40.303 9.97797 40.552 10.1186C40.7932 10.2593 40.9956 10.1108 40.9956 9.78263C40.9956 9.45445 40.801 9.0794 40.552 8.93875C40.3107 8.79811 40.1084 8.94657 40.1084 9.27474Z" fill="#6234A5"/>
<path d="M37.1123 7.54012C37.1123 7.86829 37.3069 8.24335 37.5559 8.38399C37.7971 8.52464 37.9995 8.37618 37.9995 8.04801C37.9995 7.71983 37.8049 7.34478 37.5559 7.20413C37.3146 7.06349 37.1123 7.21195 37.1123 7.54012Z" fill="#6234A5"/>
<path d="M39.0504 16.3851C41.5874 17.8541 43.6496 16.2914 43.6496 12.9003C43.6496 9.50914 41.5874 5.55544 39.0504 4.08648C36.5134 2.61752 34.4512 4.18025 34.4512 7.57136C34.4512 10.9625 36.5134 14.9162 39.0504 16.3851ZM39.0504 4.93817C41.2294 6.20398 43.0037 9.61072 43.0037 12.5252C43.0037 15.4397 41.2294 16.7914 39.0504 15.5256C36.8714 14.2598 35.0971 10.8531 35.0971 7.9386C35.0971 5.02412 36.8714 3.67236 39.0504 4.93817Z" fill="#6234A5"/>
<path d="M39.035 14.338C41.4552 15.7366 41.821 13.2597 41.821 13.2363C41.8521 13.0175 41.7354 12.7284 41.5564 12.5877C41.393 12.4549 41.2218 12.5096 41.1906 12.7206C41.1829 12.7987 40.8949 14.5568 39.035 13.4785C37.1595 12.3924 36.926 10.2983 36.9105 10.2046C36.8871 9.95453 36.7237 9.69668 36.5447 9.63417C36.3735 9.56385 36.249 9.71231 36.2723 9.96235C36.2723 9.9936 36.607 12.9315 39.0272 14.3302L39.035 14.338Z" fill="#6234A5"/>
<path d="M51.4401 23.7456L49.8447 24.6442L58.1404 42.4983L59.8836 41.5529L51.4401 23.7456Z" fill="#D7D7FF"/>
<path d="M49.1914 28.965C49.1914 33.7001 52.0552 39.2009 55.5961 41.2559C59.1369 43.303 62.0007 41.1308 62.0007 36.3958C62.0007 31.6607 59.1369 26.1599 55.5961 24.1049C52.0552 22.0578 49.1914 24.23 49.1914 28.965Z" fill="#D7D7FF"/>
<path d="M47.6035 29.8559C47.6035 34.5909 50.4673 40.0917 54.0082 42.1467C57.549 44.1939 60.4129 42.0217 60.4129 37.2866C60.4129 32.5516 57.5413 27.0508 54.0082 24.9958C50.4673 22.9486 47.6035 25.1208 47.6035 29.8559Z" fill="#E9E9FF"/>
<path d="M49.8915 28.4181C51.4869 26.8163 53.269 30.3949 53.8915 31.8092C54.5141 31.1138 56.2962 29.6057 57.8915 33.0515C60.6386 38.9977 53.8993 39.1305 53.8993 39.1305V39.0133V39.1227C53.8993 39.1227 47.1522 31.1763 49.9071 28.4181H49.8915Z" fill="#FF557E"/>
<path d="M10.5608 10.8455L12.1561 11.744L3.86816 29.5982L2.11719 28.6527L10.5608 10.8455Z" fill="#D7D7FF"/>
<path d="M12.8093 16.0649C12.8093 20.7999 9.94553 26.3007 6.40467 28.3557C2.86381 30.4029 0 28.2307 0 23.4956C0 18.7606 2.86381 13.2598 6.40467 11.2048C9.94553 9.15762 12.8093 11.3298 12.8093 16.0649Z" fill="#D7D7FF"/>
<path d="M14.3972 16.9557C14.3972 21.6908 11.5334 27.1916 7.99256 29.2466C4.4517 31.3016 1.58789 29.1216 1.58789 24.3865C1.58789 19.6514 4.4517 14.1506 7.99256 12.0957C11.5334 10.0485 14.3972 12.2207 14.3972 16.9557Z" fill="#E9E9FF"/>
<path d="M12.1085 15.5179C10.5131 13.9161 8.73103 17.4948 8.10846 18.909C7.4859 18.2136 5.70379 16.7056 4.10846 20.1514C1.36138 26.1054 8.10068 26.2304 8.10068 26.2304V26.1132V26.2226C8.10068 26.2226 14.8478 18.2761 12.0929 15.5179H12.1085Z" fill="#FF557E"/>
<path d="M29.5022 17.7915L31.0975 18.6901L22.8018 36.5442L21.0586 35.591L29.5022 17.7915Z" fill="#D7D7FF"/>
<path d="M31.7507 23.0111C31.7507 27.7461 28.8869 33.2469 25.3461 35.3019C21.8052 37.3491 18.9414 35.1769 18.9414 30.4418C18.9414 25.7068 21.8052 20.206 25.3461 18.151C28.8869 16.096 31.7507 18.276 31.7507 23.0111Z" fill="#D7D7FF"/>
<path d="M33.3386 23.9018C33.3386 28.6368 30.4748 34.1376 26.934 36.1926C23.3931 38.2398 20.5293 36.0676 20.5293 31.3325C20.5293 26.5975 23.3931 21.0967 26.934 19.0417C30.4748 16.9945 33.3386 19.1667 33.3386 23.9018Z" fill="#E9E9FF"/>
<path d="M26.7467 33.8016C24.2097 35.2706 22.1475 33.7079 22.1475 30.3168C22.1475 26.9256 24.2097 22.9719 26.7467 21.503C29.2836 20.034 31.3459 21.5967 31.3459 24.9879C31.3459 28.379 29.2836 32.3327 26.7467 33.8016ZM26.7467 22.3547C24.5677 23.6205 22.7934 27.0272 22.7934 29.9417C22.7934 32.8562 24.5677 34.2079 26.7467 32.9421C28.9257 31.6763 30.7 28.2696 30.7 25.3551C30.7 22.4406 28.9257 21.0889 26.7467 22.3547Z" fill="#FF557E"/>
<path d="M26.7313 27.6602C29.1515 26.2615 29.5173 28.7385 29.5173 28.7619C29.5484 28.9807 29.4317 29.2698 29.2527 29.4104C29.0893 29.5433 28.9181 29.4886 28.8869 29.2776C28.8791 29.1995 28.5912 27.4414 26.7313 28.5197C24.8558 29.6058 24.6223 31.6998 24.6068 31.7936C24.5834 32.0436 24.42 32.3015 24.241 32.364C24.0698 32.4343 23.9453 32.2859 23.9686 32.0358C23.9686 32.0046 24.3033 29.0666 26.7235 27.668L26.7313 27.6602Z" fill="#FF557E"/>
<path d="M26.0927 27.0976C26.0305 27.1366 25.9682 27.1444 25.9137 27.1288L24.3651 26.6053C24.2173 26.5584 24.1861 26.3084 24.2795 26.0583C24.3807 25.8083 24.583 25.6442 24.7231 25.6911L26.2717 26.2146C26.4196 26.2615 26.4507 26.5115 26.3573 26.7616C26.2951 26.9178 26.1939 27.0429 26.0927 27.0976Z" fill="#FF557E"/>
<path d="M27.3766 26.3552C27.2754 26.4177 27.1743 26.4099 27.112 26.324C27.0109 26.1833 27.0498 25.902 27.1976 25.6832L28.7463 23.3626C28.8941 23.1438 29.0887 23.0813 29.1898 23.2141C29.291 23.3548 29.2521 23.6361 29.1042 23.8549L27.5556 26.1755C27.5011 26.2615 27.4389 26.3162 27.3766 26.3552Z" fill="#FF557E"/>
</g>
<defs>
<clipPath id="clip0_1547_11216">
<rect width="62" height="108" fill="white"/>
</clipPath>
</defs>
</svg>
