<svg width="246" height="255" viewBox="0 0 246 255" fill="none" xmlns="http://www.w3.org/2000/svg">
<g clip-path="url(#clip0_1600_7523)">
<path d="M46.6502 146.681C46.2886 145.628 45.6387 144.283 44.6489 142.999L44.4662 142.763C42.7568 140.666 40.4022 140.238 39.4915 142.597C39.531 142.461 39.5696 142.317 39.596 142.165C39.9708 140.116 38.5233 138.421 34.1061 138.749C27.3081 139.802 25.1984 145.388 24.0164 147.664C22.2721 145.402 17.2447 141.553 12.3614 140.618C6.74056 139.544 3.51011 141.588 2.89981 144.213C2.85178 144.414 2.82164 144.62 2.80846 144.824C2.73029 145.824 3.01377 146.877 3.68058 147.851C3.73333 147.939 3.7936 148.026 3.85953 148.109C3.85953 148.109 1.43057 149.637 1.77999 152.874C1.7847 152.935 1.79317 153.001 1.80165 153.067C1.83179 153.276 1.87982 153.473 1.94575 153.661C2.55605 155.43 4.65349 156.221 6.13591 156.566C7.02122 156.767 7.68803 156.815 7.68803 156.815C7.68803 156.815 7.64 156.841 7.54865 156.89C6.84228 157.283 3.63349 159.218 3.73333 162.061C3.73803 162.209 3.75499 162.358 3.77665 162.516C3.85482 163.052 4.05543 163.617 4.41803 164.206C6.35441 167.391 12.2662 163.739 16.0994 166.643C19.9232 169.539 32.699 173.449 40.2732 167.954C42.737 166.167 44.6592 163.555 45.9109 160.589C47.7682 156.208 48.1562 151.058 46.6521 146.681H46.6502ZM36.4164 153.67C34.8596 153.67 33.4949 152.85 32.7273 151.613C32.3129 150.948 32.0737 150.163 32.0737 149.319C32.0737 147.057 33.7916 145.2 35.9888 144.986C36.1197 144.972 36.2507 144.964 36.3853 144.964H36.39C37.1011 144.881 38.5657 144.532 39.272 143.138C39.3116 143.055 39.3549 142.967 39.3897 142.876C38.8793 144.527 39.5122 146.021 39.9256 146.75C40.0349 146.894 40.1347 147.047 40.2176 147.208C40.2223 147.217 40.2261 147.222 40.2261 147.222C40.5708 147.842 40.762 148.559 40.762 149.318C40.762 151.72 38.8171 153.669 36.4145 153.669L36.4164 153.67Z" fill="#FFB78A" stroke="#390075" stroke-width="5" stroke-linecap="round" stroke-linejoin="round"/>
<path d="M30.4669 172.457C24.1935 172.457 17.9322 170.219 15.0474 168.034C13.6733 166.992 11.7642 167.125 9.74309 167.264C7.26704 167.435 4.45948 167.629 2.92807 165.112C2.00509 163.592 1.75268 161.966 2.1991 160.406C2.5099 159.319 3.11738 158.393 3.79737 157.638C1.99567 156.849 0.376678 155.492 0.0743537 153.304C-0.267528 150.836 0.628145 148.961 1.63966 147.775C0.774127 145.873 0.857949 143.785 1.93257 142.051C3.73992 139.136 7.76056 137.959 12.6891 138.9C16.8699 139.7 21.0167 142.359 23.5766 144.676C25.1051 141.872 27.9466 137.933 33.8405 137.021C33.8867 137.013 33.9319 137.008 33.978 137.005C36.9627 136.782 39.1063 137.374 40.3495 138.761C40.5077 138.938 40.649 139.126 40.7724 139.323C40.8166 139.314 40.8599 139.307 40.9042 139.299C42.5637 139.035 44.3993 139.916 45.8177 141.656L46.0268 141.924C47.3387 143.626 48.014 145.277 48.3003 146.11C51.1022 154.269 48.0253 164.485 41.2951 169.366C38.2078 171.606 34.335 172.457 30.4669 172.457ZM11.7162 163.679C13.5245 163.679 15.4571 163.964 17.1515 165.247C20.5411 167.814 32.4834 171.445 39.2494 166.536C44.7129 162.572 47.2935 153.92 45.0021 147.247C44.7854 146.617 44.2722 145.365 43.2701 144.064L43.0911 143.834C42.364 142.942 41.669 142.717 41.4533 142.75C41.3572 142.765 41.2225 142.956 41.1189 143.225C41.1058 143.258 41.0926 143.291 41.0775 143.323C41.0718 143.346 41.0653 143.369 41.0577 143.391C40.7582 144.359 41.1218 145.289 41.3987 145.803C41.5277 145.983 41.6398 146.16 41.7368 146.342C41.7424 146.352 41.7481 146.362 41.7537 146.372C42.2482 147.262 42.51 148.281 42.51 149.317C42.51 152.68 39.7778 155.415 36.4183 155.415C33.0588 155.415 30.3313 152.68 30.3313 149.317C30.3313 146.16 32.6915 143.55 35.8221 143.245C35.9681 143.231 36.1179 143.22 36.2704 143.217C36.7414 143.15 37.4901 142.931 37.7726 142.224C37.783 142.198 37.7943 142.171 37.8056 142.146C37.8094 142.133 37.8131 142.119 37.8169 142.107C37.8386 142.032 37.8631 141.951 37.8772 141.866C37.9733 141.34 37.8141 141.162 37.7538 141.095C37.4063 140.706 36.3175 140.344 34.3049 140.484C29.0787 141.326 27.1103 145.332 25.933 147.73C25.8002 148.001 25.6778 148.249 25.5638 148.468C25.2897 148.997 24.7642 149.349 24.1718 149.402C23.5775 149.455 23.0002 149.201 22.6366 148.729C21.0223 146.635 16.3179 143.152 12.0345 142.332C7.96776 141.554 5.67913 142.629 4.8946 143.894C4.31349 144.832 4.44252 145.983 5.24966 147.052C5.54445 147.442 5.66218 147.939 5.57459 148.42C5.487 148.902 5.20163 149.324 4.78723 149.585C4.6469 149.68 3.23416 150.7 3.52801 152.823C3.75122 154.438 6.96378 155.005 7.81142 155.069C8.59313 155.127 9.24299 155.701 9.39462 156.472C9.54625 157.242 9.16952 158.02 8.46975 158.373C7.79917 158.716 5.95697 159.93 5.54822 161.376C5.43803 161.766 5.35515 162.388 5.90611 163.294C6.3045 163.949 7.52887 163.914 9.50105 163.778C10.1971 163.73 10.9449 163.678 11.7143 163.678L11.7162 163.679ZM37.8631 146.416C37.4618 146.551 37.0371 146.646 36.5925 146.698C36.4456 146.715 36.2996 146.709 36.165 146.723C34.8257 146.853 33.8198 147.968 33.8198 149.317C33.8198 150.752 34.9858 151.92 36.4183 151.92C37.8508 151.92 39.0215 150.752 39.0215 149.317C39.0215 148.887 38.9188 148.469 38.7239 148.104C38.7013 148.066 38.6796 148.027 38.6608 147.989C38.6391 147.946 38.5949 147.878 38.5383 147.804C38.4922 147.743 38.4508 147.679 38.4131 147.613C38.2379 147.306 38.0364 146.899 37.864 146.416H37.8631Z" fill="#390075"/>
<path d="M17.5922 153.497C17.1599 153.497 16.7276 153.337 16.3895 153.015C10.4937 147.391 4.77686 149.658 4.53576 149.758C3.64856 150.123 2.62951 149.707 2.25749 148.822C1.88641 147.937 2.2914 146.92 3.172 146.542C3.49599 146.403 11.1822 143.221 18.7949 150.484C19.4928 151.15 19.5192 152.256 18.8552 152.954C18.5124 153.315 18.0528 153.497 17.5922 153.497Z" fill="#390075"/>
<path d="M17.5913 160.236C17.2607 160.236 16.9273 160.143 16.6306 159.947C12.0647 156.923 8.54416 158.385 8.39629 158.449C7.51757 158.829 6.49099 158.433 6.10296 157.559C5.71493 156.684 6.0926 155.663 6.9619 155.265C7.17663 155.167 12.3049 152.895 18.5548 157.032C19.3582 157.564 19.5795 158.648 19.0483 159.453C18.713 159.962 18.1573 160.237 17.5913 160.237V160.236Z" fill="#390075"/>
<g opacity="0.2">
<path d="M3.88965 147.852C3.22284 146.878 2.93936 145.825 3.01753 144.825C5.07164 143.654 7.70497 143.453 10.0812 143.9C14.1357 144.658 17.7985 147.15 20.137 150.541C20.8076 151.513 19.651 152.7 18.6631 152.054C16.6542 150.74 14.5134 149.627 12.2822 148.735C9.62723 147.678 6.50886 146.992 3.88871 147.853L3.88965 147.852Z" fill="#390075"/>
</g>
<g opacity="0.2">
<path d="M6.34506 156.566C4.86263 156.221 2.7652 155.43 2.1549 153.661C2.08991 153.473 2.04188 153.277 2.0108 153.067C2.00232 153.002 1.9929 152.936 1.98914 152.874C5.45975 152.394 8.96521 152.158 12.3755 152.879C15.3668 153.506 18.2968 155.02 20.3104 157.263C21.2597 158.322 20.0674 159.939 18.7677 159.364C17.1845 158.665 15.5862 158 13.9587 157.412C12.2107 156.783 10.3968 156.242 8.53856 156.255C7.79264 156.259 7.05614 156.368 6.34506 156.565V156.566Z" fill="#390075"/>
</g>
<g opacity="0.2">
<path d="M46.1191 160.589C44.8674 163.555 42.9452 166.167 40.4814 167.954C32.9072 173.449 20.1324 169.54 16.3076 166.643C12.4754 163.738 6.56262 167.391 4.62623 164.206C4.26457 163.617 4.06397 163.053 3.98485 162.516C3.96319 162.358 3.9453 162.21 3.94153 162.061C5.13387 161.122 8.96897 161.563 11.4629 161.86C15.5222 162.345 19.4505 163.568 23.4278 164.524C28.0239 165.629 33.1945 166.298 37.1972 163.782C38.6929 162.847 39.9135 161.519 41.427 160.615C42.8745 159.75 44.9805 159.441 46.1182 160.589H46.1191Z" fill="#390075"/>
</g>
<g opacity="0.2">
<path d="M39.2729 143.139C38.5666 144.533 37.1011 144.882 36.391 144.965H36.3863C36.2506 144.965 36.1207 144.973 35.9898 144.987C33.7925 145.201 32.0746 147.057 32.0746 149.32C32.0746 150.163 32.3148 150.949 32.7282 151.614C31.7779 151.12 30.9623 150.351 30.5131 149.381C29.8331 147.909 30.0817 146.101 30.9755 144.752C31.8693 143.401 33.3432 142.493 34.9085 142.092C35.7722 141.869 38.3923 141.336 39.1204 142.052C39.3473 142.275 39.3605 142.682 39.2729 143.14V143.139Z" fill="#390075"/>
</g>
<path d="M200.091 160.589C201.343 163.555 203.265 166.167 205.729 167.954C213.303 173.449 226.078 169.54 229.902 166.643C233.735 163.738 239.647 167.391 241.584 164.206C241.946 163.617 242.146 163.053 242.225 162.516C242.247 162.358 242.265 162.21 242.269 162.061C242.369 159.217 239.16 157.282 238.453 156.89C238.362 156.841 238.314 156.815 238.314 156.815C238.314 156.815 238.981 156.767 239.866 156.566C241.348 156.221 243.446 155.43 244.056 153.661C244.121 153.473 244.169 153.277 244.2 153.067C244.209 153.002 244.218 152.935 244.222 152.874C244.57 149.637 242.142 148.109 242.142 148.109C242.207 148.026 242.269 147.938 242.321 147.851C242.988 146.877 243.272 145.824 243.193 144.824C243.18 144.619 243.15 144.414 243.102 144.213C242.492 141.588 239.26 139.544 233.641 140.618C228.757 141.553 223.73 145.401 221.985 147.664C220.803 145.389 218.694 139.802 211.896 138.749C207.479 138.422 206.031 140.116 206.406 142.165C206.432 142.317 206.471 142.462 206.51 142.597C205.599 140.238 203.244 140.666 201.536 142.763L201.353 142.999C200.363 144.283 199.713 145.628 199.352 146.681C197.848 151.058 198.236 156.207 200.093 160.589H200.091ZM205.236 149.32C205.236 148.56 205.428 147.843 205.772 147.224C205.772 147.224 205.777 147.219 205.78 147.21C205.863 147.049 205.963 146.896 206.072 146.752C206.487 146.023 207.119 144.529 206.608 142.878C206.643 142.969 206.687 143.057 206.726 143.14C207.432 144.534 208.898 144.883 209.608 144.966H209.613C209.748 144.966 209.878 144.974 210.009 144.988C212.207 145.202 213.924 147.058 213.924 149.321C213.924 150.164 213.684 150.95 213.271 151.615C212.503 152.851 211.139 153.672 209.582 153.672C207.179 153.672 205.234 151.724 205.234 149.322L205.236 149.32Z" fill="#FFB78A" stroke="#390075" stroke-width="5" stroke-linecap="round" stroke-linejoin="round"/>
<path d="M215.533 172.457C211.664 172.457 207.792 171.606 204.704 169.366C197.974 164.485 194.897 154.27 197.699 146.11C197.985 145.276 198.66 143.626 199.969 141.929L200.155 141.688C201.6 139.915 203.434 139.035 205.094 139.298C205.138 139.306 205.182 139.313 205.227 139.322C205.35 139.125 205.491 138.937 205.65 138.76C206.893 137.373 209.037 136.78 212.021 137.004C212.067 137.007 212.113 137.012 212.158 137.02C218.053 137.933 220.895 141.872 222.423 144.675C224.983 142.359 229.129 139.699 233.31 138.899C238.238 137.956 242.26 139.135 244.067 142.05C245.142 143.784 245.226 145.873 244.36 147.774C245.372 148.96 246.267 150.835 245.926 153.304C245.622 155.491 244.003 156.849 242.203 157.638C242.882 158.393 243.489 159.318 243.801 160.406C244.247 161.966 243.995 163.592 243.072 165.112C241.541 167.63 238.735 167.437 236.257 167.265C234.237 167.126 232.327 166.993 230.953 168.034C228.069 170.219 221.807 172.457 215.533 172.457ZM204.501 142.747C204.242 142.747 203.59 143.001 202.883 143.866L202.726 144.069C201.727 145.366 201.214 146.617 200.997 147.247C198.706 153.92 201.286 162.572 206.75 166.535C213.517 171.445 225.458 167.813 228.849 165.246C231.262 163.417 234.164 163.617 236.497 163.778C238.468 163.914 239.694 163.95 240.092 163.294C240.642 162.389 240.559 161.766 240.449 161.376C240.041 159.931 238.198 158.716 237.523 158.371C236.826 158.013 236.448 157.232 236.605 156.464C236.763 155.695 237.41 155.124 238.191 155.07C239.034 155.006 242.247 154.44 242.47 152.825C242.764 150.702 241.351 149.682 241.189 149.573C240.776 149.312 240.501 148.896 240.413 148.415C240.326 147.934 240.454 147.444 240.748 147.054C241.556 145.985 241.686 144.834 241.103 143.896C240.319 142.631 238.03 141.555 233.963 142.333C229.68 143.152 224.976 146.636 223.361 148.729C222.997 149.201 222.415 149.454 221.826 149.402C221.234 149.349 220.708 148.997 220.433 148.468C220.319 148.249 220.198 148.001 220.065 147.731C218.888 145.333 216.919 141.326 211.693 140.485C209.681 140.345 208.593 140.708 208.244 141.096C208.185 141.163 208.025 141.341 208.117 141.849C208.135 141.951 208.159 142.031 208.18 142.105C208.184 142.119 208.188 142.134 208.192 142.147C208.204 142.172 208.214 142.199 208.225 142.225C208.509 142.932 209.257 143.151 209.729 143.218C209.883 143.221 210.033 143.232 210.182 143.247C213.307 143.552 215.668 146.161 215.668 149.318C215.668 152.681 212.937 155.416 209.581 155.416C206.224 155.416 203.489 152.681 203.489 149.318C203.489 148.282 203.751 147.263 204.245 146.373C204.251 146.362 204.257 146.353 204.262 146.342C204.359 146.162 204.47 145.984 204.599 145.804C204.876 145.289 205.239 144.359 204.94 143.392C204.934 143.369 204.927 143.347 204.922 143.324C204.906 143.292 204.893 143.26 204.88 143.226C204.777 142.957 204.642 142.766 204.546 142.751C204.532 142.749 204.517 142.748 204.5 142.748L204.501 142.747ZM207.277 148.104C207.081 148.469 206.979 148.888 206.979 149.317C206.979 150.752 208.147 151.92 209.583 151.92C211.018 151.92 212.181 150.752 212.181 149.317C212.181 147.968 211.175 146.853 209.841 146.724C209.693 146.708 209.55 146.714 209.408 146.698C208.964 146.647 208.538 146.551 208.137 146.416C207.964 146.898 207.763 147.305 207.588 147.612C207.55 147.679 207.509 147.743 207.463 147.804C207.404 147.88 207.361 147.948 207.332 148.005C207.315 148.038 207.296 148.071 207.277 148.104Z" fill="#390075"/>
<path d="M228.408 153.497C227.947 153.497 227.487 153.315 227.145 152.954C226.48 152.256 226.507 151.15 227.204 150.484C234.818 143.221 242.504 146.403 242.827 146.542C243.712 146.922 244.122 147.949 243.742 148.836C243.364 149.72 242.346 150.132 241.461 149.757C241.195 149.647 235.49 147.405 229.61 153.015C229.272 153.337 228.84 153.497 228.408 153.497Z" fill="#390075"/>
<path d="M228.41 160.236C227.844 160.236 227.289 159.961 226.953 159.452C226.421 158.647 226.642 157.563 227.446 157.031C233.694 152.894 238.823 155.165 239.039 155.264C239.915 155.666 240.299 156.703 239.899 157.58C239.501 158.453 238.475 158.839 237.602 158.448C237.422 158.371 233.913 156.938 229.37 159.946C229.075 160.143 228.74 160.236 228.411 160.236H228.41Z" fill="#390075"/>
<g opacity="0.2">
<path d="M242.11 147.852C242.777 146.878 243.061 145.825 242.982 144.825C240.928 143.654 238.295 143.453 235.919 143.9C231.864 144.658 228.201 147.15 225.863 150.541C225.192 151.513 226.349 152.7 227.337 152.054C229.346 150.74 231.487 149.627 233.718 148.735C236.373 147.678 239.491 146.992 242.111 147.853L242.11 147.852Z" fill="#390075"/>
</g>
<g opacity="0.2">
<path d="M239.655 156.566C241.137 156.221 243.235 155.43 243.845 153.661C243.91 153.473 243.958 153.277 243.989 153.067C243.998 153.002 244.007 152.936 244.011 152.874C240.54 152.394 237.035 152.158 233.625 152.879C230.633 153.506 227.703 155.02 225.69 157.263C224.74 158.322 225.933 159.939 227.232 159.364C228.816 158.665 230.414 158 232.041 157.412C233.789 156.783 235.603 156.242 237.461 156.255C238.207 156.259 238.944 156.368 239.655 156.565V156.566Z" fill="#390075"/>
</g>
<g opacity="0.2">
<path d="M199.881 160.589C201.133 163.555 203.055 166.167 205.519 167.954C213.093 173.449 225.868 169.54 229.692 166.643C233.525 163.738 239.437 167.391 241.374 164.206C241.735 163.617 241.936 163.053 242.015 162.516C242.037 162.358 242.055 162.21 242.058 162.061C240.866 161.122 237.031 161.563 234.537 161.86C230.478 162.345 226.549 163.568 222.572 164.524C217.976 165.629 212.805 166.298 208.803 163.782C207.307 162.847 206.087 161.519 204.573 160.615C203.125 159.75 201.02 159.441 199.882 160.589H199.881Z" fill="#390075"/>
</g>
<g opacity="0.2">
<path d="M206.727 143.139C207.433 144.533 208.899 144.882 209.609 144.965H209.614C209.749 144.965 209.879 144.973 210.01 144.987C212.207 145.201 213.925 147.057 213.925 149.32C213.925 150.163 213.685 150.949 213.272 151.614C214.222 151.12 215.038 150.351 215.487 149.381C216.167 147.909 215.918 146.101 215.024 144.752C214.131 143.401 212.657 142.493 211.091 142.092C210.228 141.869 207.608 141.336 206.88 142.052C206.653 142.275 206.639 142.682 206.727 143.14V143.139Z" fill="#390075"/>
</g>
<path d="M205.535 171.653C178.065 190.746 161.531 167.722 161.531 167.722V210.965C161.531 213.773 138.888 216.486 122.877 216.486C107.864 216.486 84.2271 213.773 84.2271 210.965V167.722C84.2271 167.722 71.3769 185.608 49.5238 176.776C46.5806 175.589 43.4764 173.916 40.2186 171.652L44.357 159.679L47.788 149.751C47.788 149.751 51.5987 153.63 57.599 153.704C63.8263 153.789 72.4139 149.773 81.5476 133.056C83.2457 129.947 85.8753 127.458 89.0351 125.864C95.6184 122.544 107.781 117.845 122.877 118.581C138.112 117.839 150.357 122.629 156.896 125.954C160.018 127.541 162.567 130.064 164.252 133.14C182.161 165.842 197.97 149.751 197.97 149.751L203.062 164.498L205.535 171.652V171.653Z" fill="white"/>
<path d="M122.877 216.722C109.566 216.722 83.9917 214.29 83.9917 210.965V168.4C82.1081 170.689 74.0649 179.44 61.3343 179.441C57.7318 179.441 53.7555 178.741 49.4353 176.994C46.3631 175.755 43.2165 174.021 40.084 171.846C39.9973 171.785 39.9615 171.675 39.9954 171.575L47.5649 149.674C47.5912 149.596 47.6562 149.539 47.7353 149.521C47.8154 149.503 47.8983 149.527 47.9548 149.585C47.9925 149.624 51.7739 153.396 57.6009 153.467C57.6612 153.467 57.7224 153.468 57.7836 153.468C63.459 153.468 72.0946 149.864 81.3405 132.942C83.0489 129.815 85.6728 127.295 88.9287 125.653C94.9809 122.6 107.44 117.593 122.888 118.345C138.416 117.59 150.928 122.654 157.003 125.743C160.146 127.341 162.723 129.86 164.458 133.026C171.268 145.461 178.526 152.296 186.031 153.338C193.061 154.316 197.754 149.633 197.801 149.586C197.859 149.527 197.942 149.504 198.021 149.521C198.1 149.539 198.165 149.596 198.191 149.674L205.756 171.575C205.791 171.675 205.754 171.785 205.668 171.846C191.388 181.771 180.093 180.16 173.135 177.061C166.959 174.311 163.012 169.928 161.765 168.403V210.964C161.765 214.141 138.233 216.721 122.876 216.721L122.877 216.722ZM84.2271 167.486C84.2516 167.486 84.2761 167.49 84.2997 167.497C84.3967 167.528 84.4626 167.619 84.4626 167.722V210.965C84.4626 213.286 106.003 216.25 122.877 216.25C139.75 216.25 161.295 213.336 161.295 210.965V167.722C161.295 167.62 161.361 167.528 161.458 167.497C161.556 167.465 161.662 167.5 161.722 167.584C161.763 167.641 165.917 173.338 173.346 176.64C180.169 179.672 191.233 181.242 205.254 171.561L197.865 150.17C196.745 151.161 192.255 154.681 185.966 153.806C178.307 152.742 170.931 145.827 164.046 133.254C162.357 130.171 159.848 127.72 156.79 126.165C150.757 123.098 138.329 118.065 122.888 118.818C107.525 118.069 95.1513 123.044 89.1406 126.076C85.9705 127.675 83.4162 130.128 81.7539 133.171C72.2952 150.483 63.3903 154.039 57.5953 153.942C52.4718 153.879 48.8787 151.044 47.8926 150.171L40.4993 171.562C43.5546 173.67 46.6193 175.351 49.6114 176.558C71.036 185.217 83.9079 167.761 84.036 167.585C84.0812 167.522 84.1527 167.487 84.2271 167.487V167.486Z" fill="#390075"/>
<g opacity="0.2">
<path d="M205.535 171.653C178.065 190.746 161.531 167.722 161.531 167.722V210.965C161.531 213.773 138.888 216.486 122.877 216.486C107.864 216.486 84.2271 213.773 84.2271 210.965V167.722C84.2271 167.722 71.3769 185.608 49.5238 176.776C46.5806 175.589 43.4764 173.916 40.2186 171.652L44.357 159.679C50.104 166.091 65.3605 178.536 84.2271 157.391C84.2271 157.391 93.5229 179.235 105.139 185.69C105.139 185.69 99.899 185.69 95.2003 183.893C94.0946 183.47 93.182 184.834 94.0042 185.686C98.7698 190.621 107.84 197.204 122.318 197.204C138.473 197.204 148.337 188.595 152.824 183.387C153.489 182.616 152.611 181.48 151.701 181.937C148.775 183.411 144.633 184.902 140.614 184.288C140.614 184.288 157.262 175.158 161.53 155.503C161.53 155.503 173.861 177.67 203.061 164.496L205.534 171.65L205.535 171.653Z" fill="#390075"/>
</g>
<path d="M141.888 95.8367H103.054V129.389H141.888V95.8367Z" fill="#FFB78A"/>
<path d="M141.889 129.625H103.055C102.925 129.625 102.82 129.519 102.82 129.389V95.8367C102.82 95.7065 102.925 95.6008 103.055 95.6008H141.889C142.019 95.6008 142.125 95.7065 142.125 95.8367V129.389C142.125 129.519 142.019 129.625 141.889 129.625ZM103.29 129.153H141.653V96.0726H103.29V129.153Z" fill="#390075"/>
<g opacity="0.2">
<path d="M141.888 95.8367H103.054V129.389H141.888V95.8367Z" fill="#390075"/>
</g>
<path d="M141.889 131.136H103.055C102.092 131.136 101.311 130.354 101.311 129.389V95.8367C101.311 94.8715 102.092 94.0894 103.055 94.0894H141.889C142.853 94.0894 143.633 94.8715 143.633 95.8367V129.389C143.633 130.354 142.853 131.136 141.889 131.136ZM104.798 127.642H140.144V97.584H104.798V127.642Z" fill="#390075"/>
<path d="M133.424 178.485C133.424 180.673 132.953 182.552 132.255 184.256C131.458 186.191 130.363 187.894 129.321 189.541C129.316 189.546 129.316 189.55 129.312 189.554C127.607 192.24 126.177 194.949 124.664 196.298C123.304 197.508 121.328 197.508 119.973 196.298C118.512 194.996 117.043 192.577 115.377 190.018C113.328 186.877 111.213 183.29 111.213 178.486C111.213 168.938 117.823 155.344 120.845 149.632C121.011 149.317 121.163 149.029 121.308 148.766V148.762C121.936 147.6 122.319 146.936 122.319 146.936C122.319 146.936 133.425 166.103 133.425 178.486L133.424 178.485Z" fill="#E62036"/>
<path d="M122.317 198.864C121.095 198.864 119.873 198.419 118.878 197.53C117.44 196.249 116.138 194.232 114.631 191.897L113.997 190.918C111.756 187.482 109.566 183.69 109.566 178.484C109.566 168.508 116.436 154.441 119.389 148.856C119.544 148.562 119.688 148.29 119.825 148.039C119.836 148.017 119.847 147.995 119.859 147.973C120.501 146.785 120.893 146.106 120.893 146.106C121.188 145.596 121.731 145.282 122.319 145.282C122.907 145.282 123.45 145.595 123.745 146.104C124.207 146.902 135.073 165.8 135.073 178.482C135.073 180.664 134.65 182.756 133.781 184.879C132.956 186.881 131.873 188.591 130.827 190.244L130.715 190.421C130.708 190.431 130.702 190.441 130.695 190.45C130.294 191.083 129.907 191.717 129.533 192.333C128.278 194.392 127.093 196.339 125.761 197.527C124.762 198.415 123.539 198.859 122.317 198.859V198.864ZM122.318 150.371C122.313 150.381 122.308 150.391 122.303 150.4C119.464 155.771 112.861 169.25 112.861 178.485C112.861 182.784 114.785 186.093 116.757 189.114L117.398 190.105C118.718 192.15 119.964 194.08 121.067 195.064C121.803 195.72 122.831 195.72 123.569 195.064C124.533 194.205 125.594 192.462 126.716 190.618C127.105 189.98 127.505 189.324 127.92 188.669C127.926 188.66 127.931 188.651 127.938 188.642L128.041 188.48C129.012 186.945 130.017 185.359 130.731 183.626C131.443 181.888 131.774 180.254 131.774 178.486C131.774 169.314 125.268 155.958 122.316 150.372L122.318 150.371Z" fill="#390075"/>
<g opacity="0.6">
<path d="M133.424 178.485C133.424 180.673 132.953 182.551 132.255 184.255C131.458 186.19 130.363 187.893 129.321 189.541C130.96 176.957 123.683 156.855 120.844 149.63C121.01 149.316 121.163 149.027 121.307 148.765V148.76C121.935 147.599 122.318 146.935 122.318 146.935C122.318 146.935 133.424 166.102 133.424 178.485Z" fill="white"/>
</g>
<g opacity="0.2">
<path d="M132.256 184.254C131.459 186.194 130.359 187.902 129.313 189.553C127.608 192.239 126.178 194.948 124.665 196.297C123.305 197.507 121.329 197.507 119.974 196.297C118.513 194.995 117.044 192.576 115.378 190.016C113.329 186.875 111.214 183.289 111.214 178.485C111.214 168.412 118.565 153.845 121.309 148.765C121.065 149.538 112.932 176 132.257 184.255L132.256 184.254Z" fill="#390075"/>
</g>
<path d="M122.318 198.961C121.073 198.961 119.829 198.509 118.814 197.604C117.367 196.314 116.064 194.297 114.557 191.962L113.916 190.973C111.665 187.518 109.468 183.707 109.468 178.485C109.468 165.779 120.347 146.859 120.81 146.06C121.122 145.522 121.697 145.19 122.319 145.19C122.941 145.19 123.515 145.522 123.828 146.06C124.291 146.859 135.17 165.779 135.17 178.485C135.17 183.578 132.898 187.16 130.893 190.321L130.787 190.488C130.386 191.12 130.001 191.754 129.626 192.369C128.363 194.443 127.17 196.403 125.824 197.603C124.808 198.508 123.564 198.96 122.32 198.96L122.318 198.961ZM122.318 150.58C119.332 156.253 112.955 169.429 112.955 178.484C112.955 182.751 114.791 185.923 116.837 189.063L117.485 190.064C118.798 192.097 120.038 194.018 121.132 194.992C121.831 195.614 122.806 195.614 123.504 194.992C124.462 194.139 125.523 192.396 126.646 190.55C127.031 189.916 127.428 189.265 127.841 188.614L127.947 188.446C129.782 185.553 131.681 182.56 131.681 178.484C131.681 169.43 125.305 156.254 122.318 150.58Z" fill="#390075"/>
<path d="M130.459 139.129C130.337 139.575 130.098 139.998 129.744 140.348L124.503 145.599C123.4 146.704 121.612 146.704 120.509 145.599L115.264 140.348C114.161 139.243 114.161 137.453 115.264 136.347L118.229 133.377L122.507 129.096L129.744 136.347C130.494 137.098 130.734 138.173 130.459 139.129Z" fill="#E62036"/>
<path d="M122.506 148.078C121.311 148.078 120.189 147.612 119.344 146.766L114.099 141.516C113.253 140.669 112.788 139.544 112.788 138.348C112.788 137.152 113.253 136.026 114.098 135.18L121.341 127.928C121.984 127.284 123.027 127.285 123.671 127.928L130.908 135.179C132.056 136.328 132.49 138.011 132.044 139.576C131.841 140.31 131.446 140.982 130.901 141.522L125.666 146.766C124.821 147.612 123.699 148.078 122.504 148.078H122.506ZM122.506 131.43L116.429 137.515C116.207 137.738 116.084 138.033 116.084 138.348C116.084 138.663 116.207 138.959 116.429 139.181L121.674 144.431C122.119 144.877 122.894 144.877 123.337 144.431L128.578 139.18C128.722 139.039 128.82 138.872 128.869 138.692C128.871 138.685 128.873 138.678 128.875 138.673C128.994 138.26 128.88 137.816 128.578 137.514L122.506 131.43V131.43Z" fill="#390075"/>
<g opacity="0.6">
<path d="M130.459 139.015C130.337 139.461 130.098 139.884 129.744 140.234L129.003 140.977C125.694 136.404 121.321 134.259 118.229 133.263L122.507 128.982L129.744 136.233C130.494 136.984 130.734 138.059 130.459 139.015Z" fill="white"/>
</g>
<g opacity="0.2">
<path d="M129.517 140.902C129.395 141.347 129.156 141.771 128.803 142.121L123.561 147.372C122.458 148.476 120.671 148.476 119.567 147.372L114.322 142.121C113.219 141.016 113.219 139.226 114.322 138.12L116.118 136.321C117.866 138.618 121.751 141.811 129.517 140.902Z" fill="#390075"/>
</g>
<path d="M122.505 148.531C121.335 148.531 120.165 148.085 119.274 147.193L114.032 141.942C113.169 141.078 112.695 139.928 112.695 138.706C112.695 137.483 113.169 136.335 114.032 135.47L121.271 128.218C121.953 127.536 123.056 127.536 123.737 128.218L130.976 135.47C131.839 136.334 132.314 137.483 132.314 138.706C132.314 139.928 131.839 141.077 130.976 141.942L125.734 147.193C124.843 148.086 123.673 148.531 122.504 148.531H122.505ZM122.505 131.925L116.5 137.941C116.295 138.145 116.183 138.417 116.183 138.707C116.183 138.996 116.295 139.267 116.5 139.472L121.742 144.723C122.163 145.145 122.847 145.145 123.269 144.723L128.511 139.472C128.715 139.267 128.827 138.995 128.827 138.707C128.827 138.418 128.715 138.146 128.511 137.941L122.506 131.925H122.505Z" fill="#390075"/>
<path d="M153.089 157.998H136.271C135.491 157.998 134.858 157.364 134.858 156.583V151.622C134.858 150.841 135.491 150.207 136.271 150.207H153.089C153.87 150.207 154.502 150.841 154.502 151.622V156.583C154.502 157.364 153.87 157.998 153.089 157.998ZM137.683 155.168H151.676V153.037H137.683V155.168Z" fill="#390075"/>
<path d="M122.877 218.233C115.381 218.233 105.731 217.574 97.6942 216.511C93.5737 215.967 90.121 215.341 87.709 214.702C84.9947 213.983 82.4828 213.032 82.4828 210.966V172.226C80.8808 173.74 78.6845 175.521 75.9287 177.082C70.1713 180.344 60.803 183.22 48.8711 178.397C45.6953 177.115 42.4498 175.329 39.225 173.089C38.5817 172.643 38.3142 171.822 38.5704 171.081L46.1398 149.18C46.3376 148.61 46.8151 148.181 47.4037 148.048C47.9924 147.915 48.6074 148.096 49.0312 148.526C49.0595 148.555 52.4557 151.894 57.6206 151.958C65.1655 152.081 72.9054 145.236 80.0181 132.218C81.8735 128.822 84.7206 126.086 88.2515 124.304C94.4251 121.19 107.125 116.087 122.878 116.833C138.736 116.083 151.49 121.246 157.686 124.397C161.101 126.133 163.9 128.866 165.781 132.3C172.239 144.093 179.295 150.847 186.184 151.834C192.442 152.733 196.561 148.693 196.732 148.522C197.158 148.096 197.773 147.918 198.36 148.053C198.946 148.188 199.422 148.613 199.619 149.181L207.184 171.082C207.439 171.822 207.172 172.643 206.53 173.089C191.675 183.415 179.839 181.701 172.525 178.444C168.478 176.642 165.37 174.209 163.277 172.23V210.966C163.277 212.763 162.132 214.672 148.442 216.511C140.531 217.574 130.736 218.234 122.879 218.234L122.877 218.233ZM85.9713 210.426C89.0266 212.268 107.823 214.739 122.877 214.739C137.93 214.739 156.814 212.3 159.786 210.446V167.722C159.786 166.963 160.274 166.291 160.995 166.059C161.718 165.826 162.504 166.087 162.946 166.702C162.984 166.754 166.978 172.197 174.071 175.309C183.167 179.301 193.045 177.836 203.448 170.958L197.12 152.639C194.854 154.142 190.871 156.015 185.758 155.304C177.6 154.17 169.85 146.996 162.722 133.981C161.18 131.165 158.893 128.929 156.107 127.512C150.207 124.513 138.054 119.59 122.961 120.327C122.905 120.329 122.848 120.329 122.792 120.327C107.797 119.595 95.6975 124.46 89.8196 127.424C86.9235 128.885 84.5925 131.123 83.078 133.895C75.195 148.322 66.6103 155.585 57.5754 155.451C53.6235 155.402 50.5306 153.889 48.6375 152.635L42.3057 170.956C44.9531 172.703 47.5949 174.113 50.1765 175.155C70.4558 183.352 82.3189 167.381 82.8143 166.698C83.2579 166.085 84.0462 165.826 84.7658 166.06C85.4844 166.294 85.9723 166.964 85.9723 167.721V210.425L85.9713 210.426Z" fill="#390075"/>
<path d="M82.5817 167.632C82.4781 166.308 82.5525 164.995 82.6514 163.683C82.7569 162.371 82.9622 161.064 83.1685 159.758C83.3757 158.451 83.6177 157.147 83.8842 155.844C84.163 154.542 84.4578 153.24 84.8421 151.943C84.8807 151.815 85.0154 151.741 85.1435 151.78C85.2339 151.807 85.297 151.881 85.313 151.968C85.556 153.299 85.7086 154.625 85.8451 155.95C85.9704 157.274 86.0702 158.597 86.1361 159.918C86.2011 161.239 86.2642 162.561 86.2284 163.876C86.1861 165.191 86.1183 166.506 85.8734 167.809C85.7039 168.713 84.8336 169.308 83.9313 169.138C83.1769 168.995 82.6392 168.362 82.5817 167.631V167.632Z" fill="#390075"/>
<path d="M159.882 167.786C159.654 166.44 159.605 165.087 159.58 163.732C159.562 162.377 159.644 161.019 159.727 159.661C159.811 158.302 159.929 156.942 160.072 155.582C160.227 154.22 160.399 152.859 160.66 151.494C160.685 151.363 160.811 151.277 160.942 151.301C161.035 151.319 161.106 151.389 161.13 151.475C161.496 152.816 161.773 154.16 162.034 155.505C162.283 156.85 162.507 158.196 162.696 159.544C162.884 160.891 163.072 162.239 163.159 163.591C163.24 164.943 163.297 166.296 163.175 167.656C163.093 168.572 162.285 169.247 161.372 169.165C160.603 169.096 160.005 168.512 159.882 167.785V167.786Z" fill="#390075"/>
<path d="M49.5238 178.524C49.3025 178.524 49.0811 178.481 48.872 178.397C45.6953 177.115 42.4498 175.329 39.225 173.089C38.5817 172.643 38.3142 171.822 38.5704 171.082L46.1398 149.18C46.3376 148.61 46.8151 148.181 47.4037 148.048C47.9924 147.915 48.6074 148.096 49.0312 148.527C49.0595 148.555 52.4557 151.894 57.6206 151.958C58.1819 151.966 58.7056 152.243 59.0277 152.703C59.3498 153.165 59.4308 153.753 59.2443 154.284L51.1691 177.356C51.0119 177.806 50.6766 178.172 50.2424 178.369C50.0145 178.473 49.7687 178.525 49.5228 178.525L49.5238 178.524ZM42.3057 170.957C44.3814 172.327 46.4544 173.49 48.4972 174.43L55.2124 155.244C52.3832 154.781 50.135 153.628 48.6375 152.635L42.3057 170.956V170.957Z" fill="#390075"/>
<path d="M196.23 178.625C195.985 178.625 195.74 178.573 195.511 178.469C195.078 178.272 194.742 177.906 194.585 177.456L186.51 154.384C186.324 153.852 186.405 153.265 186.726 152.803C187.049 152.342 187.572 152.066 188.134 152.058C193.299 151.994 196.694 148.655 196.728 148.621C197.153 148.195 197.769 148.017 198.354 148.152C198.94 148.287 199.417 148.711 199.613 149.28L207.183 171.182C207.438 171.922 207.172 172.743 206.528 173.189C203.304 175.429 200.059 177.215 196.882 178.497C196.672 178.582 196.451 178.624 196.23 178.624V178.625ZM190.542 155.346L197.257 174.532C199.3 173.591 201.373 172.429 203.449 171.059L197.116 152.738C195.618 153.73 193.371 154.883 190.542 155.347V155.346Z" fill="#390075"/>
<path d="M122.507 127.942L107.573 138.666C104.66 140.759 100.61 138.675 100.61 135.088V114.043L100.968 114.27L121.113 127.056L122.507 127.942H122.507Z" fill="white"/>
<path d="M105.02 139.742C104.299 139.742 103.574 139.568 102.89 139.216C101.315 138.406 100.375 136.863 100.375 135.088V114.043C100.375 113.957 100.422 113.878 100.497 113.836C100.572 113.795 100.664 113.798 100.736 113.844L122.634 127.743C122.7 127.786 122.741 127.858 122.743 127.936C122.745 128.014 122.708 128.089 122.645 128.134L107.711 138.858C106.895 139.444 105.962 139.742 105.021 139.742H105.02ZM100.845 114.472V135.088C100.845 136.682 101.689 138.068 103.105 138.796C104.521 139.525 106.14 139.405 107.435 138.475L122.086 127.955L100.845 114.472Z" fill="#390075"/>
<g opacity="0.2">
<path d="M122.507 127.942L107.573 138.666C104.66 140.759 100.61 138.675 100.61 135.088V114.043L100.968 114.27C101.731 117.333 103.653 122.961 105.079 127.002C106.011 129.641 108.872 131.054 111.528 130.186L121.112 127.055L122.507 127.941V127.942Z" fill="#390075"/>
</g>
<path d="M144.398 114.044L122.505 127.942L137.439 138.668C140.348 140.758 144.399 138.675 144.399 135.087V114.044H144.398Z" fill="white"/>
<path d="M139.988 139.742C139.047 139.742 138.116 139.445 137.301 138.86L122.366 128.133C122.303 128.088 122.266 128.013 122.268 127.935C122.27 127.857 122.312 127.784 122.378 127.742L144.271 113.845C144.344 113.799 144.436 113.796 144.51 113.837C144.586 113.879 144.632 113.958 144.632 114.044V135.088C144.632 136.862 143.691 138.406 142.115 139.216C141.431 139.568 140.706 139.742 139.986 139.742H139.988ZM122.926 127.953L137.576 138.476C138.87 139.404 140.487 139.524 141.902 138.796C143.318 138.068 144.163 136.682 144.163 135.088V114.473L122.926 127.954V127.953Z" fill="#390075"/>
<g opacity="0.2">
<path d="M122.475 127.942L137.409 138.666C140.322 140.759 144.372 138.675 144.372 135.088V114.043L144.014 114.27C143.252 117.333 141.329 122.961 139.903 127.002C138.971 129.641 136.11 131.054 133.454 130.186L123.87 127.055L122.475 127.941V127.942Z" fill="#390075"/>
</g>
<path d="M105.012 141.244C104.054 141.244 103.093 141.017 102.204 140.561C100.146 139.502 98.8677 137.405 98.8677 135.088V114.044C98.8677 113.407 99.2133 112.82 99.7709 112.513C100.328 112.206 101.007 112.227 101.545 112.568L123.439 126.465C123.929 126.776 124.232 127.31 124.249 127.891C124.266 128.471 123.993 129.022 123.522 129.361L108.588 140.087C107.521 140.854 106.271 141.244 105.013 141.244H105.012ZM102.355 117.22V135.088C102.355 136.104 102.894 136.988 103.797 137.452C104.7 137.916 105.731 137.84 106.555 137.247L119.387 128.03L102.355 117.219V117.22Z" fill="#390075"/>
<path d="M139.997 141.244C138.74 141.244 137.489 140.854 136.422 140.087L121.488 129.36C121.017 129.022 120.744 128.472 120.761 127.891C120.778 127.31 121.081 126.775 121.571 126.465L143.465 112.567C144.003 112.226 144.683 112.206 145.239 112.513C145.797 112.82 146.142 113.406 146.142 114.044V135.087C146.142 137.405 144.864 139.502 142.806 140.561C141.917 141.018 140.955 141.244 139.998 141.244H139.997ZM125.622 128.03L138.454 137.247C139.278 137.839 140.31 137.915 141.212 137.452C142.115 136.988 142.653 136.104 142.653 135.087V117.22L125.621 128.031L125.622 128.03Z" fill="#390075"/>
<path d="M87.7871 92.6276C92.5762 87.8299 92.5762 80.0514 87.7871 75.2538C82.9979 70.4561 75.2331 70.4561 70.4439 75.2538C65.6547 80.0514 65.6547 87.8299 70.4439 92.6276C75.2331 97.4252 82.9979 97.4252 87.7871 92.6276Z" fill="#FFB78A"/>
<path d="M79.0904 96.4641C76.3554 96.4641 73.7107 95.5697 71.5059 93.8733C68.8575 91.8372 67.1594 88.8888 66.7243 85.5734C65.8258 78.7284 70.6545 72.4278 77.4874 71.5277C80.7989 71.0909 84.0792 71.973 86.7276 74.01C89.376 76.0461 91.0741 78.9945 91.5093 82.3099C91.9444 85.6253 91.0647 88.9134 89.0313 91.5655C86.9989 94.2186 84.0566 95.9197 80.7461 96.3556C80.1933 96.4282 79.6404 96.4641 79.0913 96.4641H79.0904ZM79.1403 71.89C78.612 71.89 78.0808 71.9249 77.5477 71.9947C70.9719 72.8609 66.3259 78.9247 67.1905 85.5121C67.6096 88.703 69.2437 91.5391 71.7922 93.4996C74.3408 95.4593 77.4978 96.3065 80.684 95.8886C83.8692 95.4687 86.7003 93.8318 88.6574 91.2787C90.6136 88.7256 91.4603 85.5621 91.0412 82.3712C90.6221 79.1803 88.988 76.3442 86.4394 74.3837C84.3175 72.7514 81.7718 71.89 79.1403 71.89Z" fill="#390075"/>
<g opacity="0.6">
<path d="M66.972 85.4204C67.4646 89.168 69.5969 92.3003 72.5485 94.1826C71.3665 92.5664 70.5603 90.6398 70.2816 88.517C69.401 81.7899 74.127 75.6223 80.8422 74.7364C83.8155 74.3477 86.6759 75.0553 89.0219 76.5535C86.4583 73.0589 82.124 71.037 77.5326 71.6399C70.8175 72.5267 66.0914 78.6943 66.972 85.4204Z" fill="white"/>
</g>
<g opacity="0.2">
<path d="M66.729 83.5826C66.7074 84.2336 66.7375 84.8931 66.8251 85.5611C67.7104 92.2881 73.8671 97.0272 80.5823 96.1404C87.2975 95.2582 92.0282 89.0859 91.1429 82.3598C90.9207 80.6738 90.3716 79.1142 89.556 77.7339C89.3855 83.6524 84.9514 88.7368 78.904 89.536C73.868 90.1955 69.1495 87.7056 66.73 83.5826H66.729Z" fill="#390075"/>
</g>
<path d="M79.0866 97.9756C76.0219 97.9756 73.058 96.9726 70.5858 95.0725C67.6181 92.7902 65.7147 89.487 65.2277 85.7706C64.2209 78.0991 69.6317 71.0381 77.2896 70.0295C80.9995 69.5398 84.6773 70.5286 87.645 72.8109C90.6127 75.0932 92.5161 78.3963 93.003 82.1127C93.4909 85.8291 92.5048 89.5125 90.2265 92.4864C87.9482 95.4593 84.6509 97.3661 80.9411 97.8539C80.3214 97.9359 79.7016 97.9756 79.0866 97.9756ZM79.1375 73.4015C78.676 73.4015 78.2107 73.4317 77.7445 73.493C71.9938 74.2506 67.9298 79.553 68.6861 85.314C69.4414 91.0749 74.7354 95.1423 80.4862 94.3884C83.2721 94.0214 85.7481 92.5901 87.4594 90.3569C89.1707 88.1246 89.911 85.3574 89.5446 82.5665C89.1783 79.7757 87.7495 77.2953 85.5202 75.581C83.6639 74.1535 81.4384 73.4005 79.1366 73.4005L79.1375 73.4015Z" fill="#390075"/>
<path d="M174.07 92.6283C178.86 87.8307 178.86 80.0521 174.07 75.2545C169.281 70.4568 161.516 70.4568 156.727 75.2545C151.938 80.0521 151.938 87.8307 156.727 92.6283C161.516 97.426 169.281 97.426 174.07 92.6283Z" fill="#FFB78A"/>
<path d="M165.425 96.4641C164.876 96.4641 164.324 96.4282 163.771 96.3556C160.46 95.9197 157.518 94.2186 155.485 91.5655C153.452 88.9124 152.572 85.6253 153.007 82.3089C153.443 78.9935 155.141 76.0451 157.789 74.0091C160.437 71.9721 163.718 71.0899 167.029 71.5267C170.34 71.9626 173.282 73.6637 175.314 76.3168C177.348 78.9699 178.228 82.257 177.792 85.5724C177.357 88.8888 175.659 91.8362 173.011 93.8723C170.805 95.5687 168.16 96.4631 165.426 96.4631L165.425 96.4641ZM165.375 71.89C162.744 71.89 160.198 72.7514 158.076 74.3836C155.528 76.3432 153.894 79.1794 153.476 82.3712C153.056 85.5621 153.903 88.7256 155.859 91.2786C157.815 93.8317 160.647 95.4687 163.833 95.8885C167.018 96.3074 170.176 95.4592 172.724 93.4996C175.273 91.54 176.907 88.7029 177.325 85.5121C177.744 82.3212 176.898 79.1577 174.942 76.6046C172.985 74.0515 170.154 72.4146 166.968 71.9947C166.436 71.9249 165.904 71.89 165.376 71.89H165.375Z" fill="#390075"/>
<g opacity="0.6">
<path d="M177.194 85.0054C176.702 88.7529 174.569 91.8853 171.618 93.7676C172.8 92.1514 173.606 90.2248 173.885 88.1019C174.765 81.3748 170.039 75.2073 163.324 74.3213C160.351 73.9326 157.49 74.6402 155.144 76.1385C157.708 72.6438 162.042 70.6219 166.634 71.2248C173.349 72.1117 178.075 78.2793 177.194 85.0054Z" fill="white"/>
</g>
<g opacity="0.2">
<path d="M178.062 83.6297C178.083 84.2807 178.053 84.9402 177.966 85.6082C177.08 92.3352 170.924 97.0744 164.209 96.1875C157.494 95.3053 152.763 89.133 153.649 82.4069C153.871 80.7209 154.42 79.1613 155.236 77.781C155.406 83.6995 159.84 88.7839 165.888 89.5831C170.924 90.2426 175.642 87.7527 178.062 83.6297Z" fill="#390075"/>
</g>
<path d="M165.428 97.9755C164.813 97.9755 164.193 97.9349 163.574 97.8538C159.864 97.3651 156.566 95.4592 154.288 92.4863C152.01 89.5134 151.024 85.829 151.512 82.1126C152 78.3972 153.902 75.0931 156.87 72.8108C159.837 70.5295 163.515 69.5397 167.225 70.0294C174.883 71.038 180.294 78.1 179.287 85.7705C178.799 89.4869 176.897 92.7901 173.929 95.0724C171.457 96.9726 168.494 97.9755 165.428 97.9755ZM165.377 73.4014C163.075 73.4014 160.85 74.1543 158.994 75.5818C156.764 77.2961 155.336 79.7766 154.969 82.5674C154.603 85.3582 155.343 88.1245 157.054 90.3578C158.766 92.5901 161.242 94.0223 164.028 94.3893C166.814 94.7563 169.576 94.0147 171.804 92.3004C174.033 90.5861 175.462 88.1057 175.829 85.3148C176.585 79.5539 172.521 74.2506 166.77 73.4929C166.304 73.4316 165.839 73.4014 165.377 73.4014Z" fill="#390075"/>
<path d="M165.555 84.66C163.288 100.411 154.179 120.019 122.877 120.019C88.4521 120.019 80.2941 96.3007 78.7372 80.0869C77.931 71.6606 78.903 65.2619 78.903 65.2619C78.903 65.2619 77.4818 29.8811 118.843 29.8811C171.82 29.8811 165.515 65.2619 165.515 65.2619C165.515 65.2619 167.075 74.0938 165.554 84.66H165.555Z" fill="#FFB78A"/>
<path d="M122.877 120.255C107.55 120.255 95.9169 115.554 88.2995 106.283C82.9038 99.7162 79.5161 90.6653 78.5027 80.1096C77.7031 71.7512 78.66 65.2912 78.6703 65.227C78.6618 65.1298 78.2126 50.97 88.1356 40.6209C95.1192 33.3381 105.45 29.6453 118.843 29.6453C138.141 29.6453 151.81 34.2919 159.469 43.456C167.508 53.073 165.878 64.475 165.754 65.261C165.865 65.9261 167.245 74.5732 165.788 84.694C163.452 100.917 154.112 120.255 122.877 120.255ZM118.844 30.117C105.587 30.117 95.3707 33.7598 88.4794 40.9435C78.6948 51.1436 79.1328 65.1128 79.1384 65.2525C79.1262 65.361 78.1777 71.7682 78.9717 80.0643C80.3957 94.8978 87.9934 119.783 122.877 119.783C153.775 119.783 163.013 100.665 165.322 84.627C166.82 74.2231 165.299 65.3912 165.283 65.3034C165.278 65.2761 165.278 65.2477 165.283 65.2204C165.304 65.1043 167.251 53.4957 159.103 43.7523C151.536 34.7042 137.991 30.117 118.843 30.117H118.844Z" fill="#390075"/>
<g opacity="0.2">
<path d="M165.65 83.8157C163.588 99.6974 154.723 120.017 122.863 120.017C91.0035 120.017 81.1096 98.5001 78.9858 82.4438C83.2984 96.6094 94.5956 111.312 122.885 111.312C151.175 111.312 161.377 97.5434 165.65 83.8147V83.8157Z" fill="#390075"/>
</g>
<g opacity="0.2">
<path d="M165.555 84.66C150.203 74.1023 148.136 54.5599 148.136 54.5599C124.87 63.5447 98.5249 54.5599 98.5249 54.5599C95.8473 66.3139 85.6879 75.2987 78.7382 80.0869C77.932 71.6606 78.904 65.2619 78.904 65.2619C78.904 65.2619 77.4827 29.8811 118.844 29.8811C171.821 29.8811 165.516 65.2619 165.516 65.2619C165.516 65.2619 167.076 74.0938 165.555 84.66Z" fill="#390075"/>
</g>
<path d="M122.879 121.764C107.418 121.764 95.562 117.081 87.6394 107.842C73.8115 91.7191 76.8131 67.5696 77.1541 65.159C77.1164 63.3975 77.1672 49.8774 87.0488 39.5726C94.3282 31.9822 105.025 28.1328 118.845 28.1328C138.611 28.1328 152.668 32.9616 160.627 42.4842C168.691 52.1332 167.573 63.2051 167.282 65.2505C167.771 68.3103 171.045 92.0097 157.753 107.888C150.045 117.095 138.311 121.764 122.877 121.764H122.879ZM80.6256 65.5241C80.5804 65.8279 77.0976 90.2077 90.2972 105.58C97.5266 114.001 108.488 118.27 122.879 118.27C137.269 118.27 148.055 114.026 155.07 105.656C167.955 90.2831 163.841 65.81 163.799 65.5638C163.763 65.3619 163.763 65.1552 163.799 64.9533C163.818 64.8467 165.619 53.8579 157.916 44.6835C150.643 36.0194 137.498 31.6265 118.845 31.6265C106.031 31.6265 96.1892 35.1042 89.5927 41.9624C80.2527 51.6738 80.6388 65.0581 80.6445 65.192C80.6482 65.3015 80.6426 65.4138 80.6256 65.5232V65.5241Z" fill="#390075"/>
<path d="M103.603 73.5042C100.844 73.5042 98.0729 72.4616 95.416 70.3728C95.3755 70.3407 95.3397 70.3124 95.3086 70.2888C94.7991 69.9973 94.4553 69.4481 94.4553 68.8179C94.4553 67.8838 95.2116 67.1262 96.144 67.1262C96.7571 67.1262 97.1348 67.4234 97.5012 67.7112C101.652 70.9738 105.813 70.9096 109.867 67.5197C110.583 66.9205 111.648 67.0177 112.246 67.7348C112.844 68.4518 112.748 69.5189 112.032 70.118C109.332 72.3748 106.474 73.5051 103.603 73.5051V73.5042Z" fill="#390075"/>
<path d="M141.26 73.4854C138.563 73.4854 135.852 72.4381 133.255 70.3426C133.215 70.3115 133.181 70.2832 133.151 70.2596C132.657 69.9699 132.327 69.4331 132.327 68.8189C132.327 67.8962 133.073 67.1489 133.994 67.1489C134.611 67.1489 134.985 67.4508 135.345 67.7424C139.368 70.988 143.4 70.9248 147.331 67.5508C148.03 66.9508 149.083 67.0329 149.681 67.732C150.28 68.4321 150.199 69.4869 149.5 70.0869C146.861 72.3523 144.067 73.4863 141.259 73.4863L141.26 73.4854Z" fill="#390075"/>
<path d="M127.074 92.7532C126.092 92.7532 125.062 92.6504 123.984 92.4437C123.038 92.2626 122.418 91.3474 122.599 90.3992C122.78 89.451 123.695 88.8302 124.64 89.0113C127.442 89.5491 129.742 89.2 131.479 87.9754C134.231 86.0365 134.823 82.4503 134.828 82.4135C134.977 81.4634 135.861 80.8058 136.815 80.9539C137.764 81.0992 138.419 81.9823 138.277 82.9334C138.247 83.1381 137.489 87.9867 133.522 90.8077C131.701 92.1022 129.542 92.7522 127.075 92.7522L127.074 92.7532Z" fill="#390075"/>
<path d="M172.606 59.1594C170.304 68.9264 166.218 77.3348 166.218 77.3348C154.786 71.1757 152.34 47.8508 152.34 47.8508C123.191 59.9237 95.7211 47.8508 95.7211 47.8508C91.2343 67.5065 78.4151 76.212 78.4151 76.212C72.3234 64.6977 73.8539 43.3608 73.8539 43.3608C73.8539 43.3608 60.7117 40.5256 65.726 22.5776C68.5467 12.4917 75.0312 7.23747 81.0221 4.49853C84.6933 2.82101 88.1818 2.08698 90.5279 1.76808C90.9724 1.70675 91.3915 1.786 91.7579 1.96432C92.5688 2.36625 93.0925 3.26162 92.9399 4.24473C90.6682 18.5546 106.509 10.2293 131.459 10.2293C160.35 10.2293 161.03 29.8812 161.03 29.8812C170.017 31.4275 173.421 37.5423 174.028 44.8939C174.407 49.4406 173.714 54.4552 172.607 59.1594H172.606Z" fill="#94452F"/>
<path d="M166.218 77.5707C166.18 77.5707 166.141 77.5612 166.106 77.5424C155.418 71.7843 152.489 50.9889 152.142 48.1867C124.84 59.3491 98.7679 49.3519 95.8878 48.1754C91.3755 67.5074 78.676 76.3196 78.547 76.4073C78.4914 76.4451 78.4226 76.4574 78.3576 76.4413C78.2927 76.4253 78.238 76.3819 78.206 76.3234C72.4666 65.4742 73.4734 45.7393 73.6052 43.5429C72.6766 43.2957 68.7925 42.0484 66.3409 37.9772C64.0005 34.092 63.717 28.8896 65.498 22.5144C67.8771 14.0089 73.0665 7.87528 80.9232 4.28437C84.6528 2.58043 88.1865 1.84923 90.4949 1.53505C90.9639 1.46995 91.4358 1.54637 91.8596 1.753C92.8061 2.22191 93.3326 3.23804 93.1706 4.28154C92.6865 7.329 93.0341 9.41694 94.232 10.6661C96.6525 13.1899 102.614 12.4823 110.863 11.5039C116.533 10.8312 123.591 9.99435 131.457 9.99435C146.477 9.99435 153.781 15.3873 157.263 19.9123C160.628 24.2835 161.17 28.7169 161.25 29.6812C169.171 31.1096 173.548 36.2205 174.26 44.8751C174.599 48.9302 174.119 53.7542 172.834 59.2142C170.553 68.8944 166.47 77.3546 166.428 77.4386C166.4 77.4961 166.35 77.5405 166.289 77.5593C166.265 77.5669 166.241 77.5707 166.216 77.5707H166.218ZM152.34 47.615C152.381 47.615 152.423 47.6263 152.46 47.648C152.524 47.6857 152.566 47.7518 152.574 47.8263C152.599 48.0565 155.106 70.8011 166.114 77.0074C166.771 75.6082 170.314 67.8575 172.378 59.1057C173.652 53.6938 174.128 48.9198 173.793 44.9137C173.095 36.4346 168.787 31.4549 160.99 30.1133C160.88 30.0944 160.799 30.001 160.794 29.8887C160.793 29.8397 160.578 24.9741 156.875 20.1774C153.456 15.7468 146.27 10.4652 131.458 10.4652C123.622 10.4652 116.579 11.3001 110.92 11.9719C102.535 12.9663 96.4774 13.6853 93.8939 10.9926C92.5688 9.61036 92.1911 7.45543 92.7072 4.20795C92.8372 3.37013 92.4143 2.55307 91.6533 2.17662C91.3096 2.00868 90.9413 1.94924 90.5599 2.00208C88.2835 2.31154 84.7978 3.03331 81.12 4.71271C73.3961 8.24324 68.2933 14.2759 65.9529 22.6409C64.2077 28.8858 64.4752 33.9636 66.745 37.7329C69.3811 42.1097 73.8576 43.1202 73.9028 43.1296C74.0177 43.1541 74.0968 43.2598 74.0884 43.3768C74.0733 43.5882 72.653 64.4836 78.497 75.8611C80.1923 74.6062 91.3962 65.7346 95.4903 47.798C95.5063 47.7291 95.5515 47.6716 95.6137 47.6395C95.6759 47.6083 95.7503 47.6065 95.8143 47.6338C96.0884 47.7536 123.531 59.5255 152.248 47.6319C152.277 47.6197 152.308 47.614 152.339 47.614L152.34 47.615Z" fill="#390075"/>
<g opacity="0.6">
<path d="M174.59 44.894C169.563 33.4363 158.509 33.0306 158.509 33.0306C158.509 33.0306 157.947 19.0396 141.317 15.8072C137.898 15.143 134.515 14.8505 131.205 14.8024C131.144 16.2875 127.821 17.6857 123.649 17.9565C119.593 18.2226 116.197 17.3272 115.774 15.9384C104.424 17.4847 95.4687 19.5161 91.7974 14.4967C88.2261 9.62173 90.1059 4.99676 92.3211 1.96533C93.132 2.36726 93.6557 3.26263 93.5031 4.24574C91.2314 18.5556 107.072 10.2303 132.022 10.2303C160.913 10.2303 161.593 29.8822 161.593 29.8822C170.58 31.4285 173.985 37.5433 174.591 44.8949L174.59 44.894Z" fill="white"/>
</g>
<g opacity="0.2">
<path d="M172.606 59.1595C170.304 68.9264 166.218 77.3348 166.218 77.3348C154.786 71.1757 152.34 47.8508 152.34 47.8508C123.191 59.9237 95.7211 47.8508 95.7211 47.8508C91.2343 67.5065 78.4151 76.212 78.4151 76.212C77.22 73.9533 76.3177 71.3201 75.6424 68.5377C75.8731 67.9829 76.118 67.3187 76.3789 66.5413C82.2653 49.1302 73.8539 43.3608 73.8539 43.3608C73.8539 43.3608 60.7117 40.5256 65.726 22.5776C68.5467 12.4918 75.0312 7.23748 81.0221 4.49854C76.0606 9.54336 70.0065 20.6416 79.1149 28.3508C94.1577 41.0794 148.603 42.204 156.263 33.5938C156.263 33.5938 158.866 56.8838 172.606 59.1595Z" fill="#390075"/>
</g>
<path d="M166.22 79.0832C165.935 79.0832 165.65 79.0134 165.394 78.8747C155.353 73.4638 151.868 56.4942 150.911 50.2965C141.62 53.8062 132.596 55.0063 124.61 55.0063C111.435 55.0063 101.075 51.7438 96.935 50.2115C91.9895 68.9218 79.922 77.299 79.3936 77.6585C78.983 77.9368 78.4744 78.0274 77.9941 77.9076C77.5137 77.7878 77.1059 77.4689 76.8742 77.0302C71.4559 66.7905 71.8063 49.5983 72.0389 44.6035C70.2391 43.8996 67.1575 42.2542 65.0506 38.7557C62.487 34.5006 62.1498 28.8991 64.0485 22.1079C68.898 4.75811 84.0161 0.893588 90.2914 0.036902C91.5214 -0.131039 92.726 0.283152 93.5953 1.17475C94.4675 2.06823 94.8555 3.28816 94.6596 4.5213C94.2556 7.06682 94.4712 8.73491 95.3198 9.61895C97.2204 11.6003 103.163 10.8955 110.688 10.003C116.398 9.32553 123.505 8.483 131.458 8.483C147.092 8.483 154.771 14.1958 158.46 18.9887C161.331 22.7183 162.294 26.4555 162.616 28.4179C167.738 29.5992 171.436 32.3523 173.617 36.6159C180.885 50.8191 168.327 76.9943 167.789 78.101C167.581 78.5284 167.208 78.853 166.757 78.9992C166.582 79.0558 166.402 79.0832 166.221 79.0832H166.22ZM152.341 46.1045C152.65 46.1045 152.959 46.1876 153.232 46.3498C153.705 46.6319 154.017 47.1207 154.075 47.6679C154.097 47.8802 156.31 67.8783 165.465 74.778C168.11 68.7341 175.984 48.8973 170.51 38.2057C168.651 34.5751 165.453 32.4155 160.734 31.6013C159.919 31.4607 159.316 30.7672 159.286 29.9398C159.255 29.2133 158.206 11.9748 131.456 11.9748C123.708 11.9748 116.715 12.8042 111.096 13.4712C101.949 14.5562 95.9075 15.2733 92.8033 12.0381C91.1457 10.3105 90.6258 7.6716 91.2135 3.9703C91.2408 3.80047 91.1664 3.68442 91.1005 3.61555C91.0355 3.5495 90.9243 3.47497 90.7614 3.49761C85.1689 4.26089 71.698 7.6933 67.4061 23.0495C65.7862 28.8472 65.9877 33.5071 68.006 36.9008C70.2758 40.7153 74.1919 41.6428 74.2305 41.6513C75.0706 41.8419 75.6555 42.6212 75.5943 43.4826C75.5802 43.6798 74.3238 62.2014 79.0498 73.4704C82.5318 70.4437 90.6908 62.0448 94.0182 47.4613C94.1341 46.9537 94.4693 46.5244 94.9346 46.2904C95.3989 46.0564 95.9433 46.0413 96.4199 46.2508C96.6873 46.3678 123.588 57.8698 151.674 46.2357C151.887 46.147 152.114 46.1036 152.34 46.1036L152.341 46.1045Z" fill="#390075"/>
<path d="M93.9665 246.774C98.6803 253.876 104.361 254.291 109.62 252.033C118.397 248.272 126.005 237.077 126.005 237.077C126.005 237.077 194.558 229.778 189.513 200.573C187.119 186.713 155.255 187.657 115.061 209.558C115.061 209.558 112.336 209.536 109.314 210.523C108.054 210.938 106.746 211.528 105.56 212.367C96.6648 218.674 86.689 235.801 93.9665 246.774Z" fill="#4B5191"/>
<g opacity="0.2">
<path d="M125.614 237.077C125.614 237.077 194.166 229.778 189.122 200.573C188.576 197.428 186.518 195.043 183.183 193.492C181.64 200.887 174.035 212.558 140.226 214.961C140.226 214.961 140.488 219.107 150.019 218.73C159.55 218.359 130.241 228.619 122.488 220.792C122.488 220.792 113.358 227.528 125.615 237.076L125.614 237.077Z" fill="#390075"/>
</g>
<g opacity="0.6">
<path d="M111.213 210.218C112.678 215.158 113.907 220.446 113.907 220.446C113.907 220.446 114.639 211.62 149.396 199.639C170.504 192.362 182.721 194.476 189.061 197.262C188.037 195.703 186.471 194.44 184.43 193.493C173.08 188.221 146.988 192.628 115.918 209.559C115.918 209.559 113.79 209.541 111.213 210.218Z" fill="white"/>
</g>
<path d="M104.186 255C100.358 255 96.1741 253.256 92.5142 247.742C88.9391 242.351 88.7884 235.037 92.0913 227.146C94.7962 220.683 99.5713 214.474 104.554 210.942C105.763 210.087 107.181 209.389 108.771 208.864C111.301 208.038 113.629 207.86 114.601 207.822C143.565 192.116 171.646 185.77 184.564 192.032C188.309 193.847 190.614 196.697 191.233 200.276C192.154 205.604 190.888 210.603 187.472 215.135C174.399 232.479 133.412 237.963 126.98 238.725C125.148 241.265 118.284 250.221 110.307 253.639C108.501 254.415 106.403 255 104.187 255H104.186ZM95.4188 245.807C99.041 251.265 103.461 252.777 108.933 250.427C117.131 246.914 124.492 236.201 124.564 236.092C124.853 235.669 125.312 235.393 125.821 235.339C126.278 235.29 171.699 230.262 184.688 213.027C187.538 209.246 188.555 205.27 187.795 200.871C187.37 198.415 185.772 196.499 183.044 195.176C177.671 192.572 168.535 192.459 157.317 194.857C144.799 197.533 130.476 203.148 115.895 211.093C115.635 211.234 115.356 211.299 115.047 211.305C115.019 211.313 112.551 211.304 109.855 212.184C108.599 212.599 107.491 213.14 106.566 213.794C102.157 216.921 97.7366 222.692 95.3067 228.496C93.6642 232.421 91.4942 239.889 95.4188 245.807Z" fill="#390075"/>
<path d="M93.9665 246.774C98.6803 253.876 104.361 254.291 109.62 252.033C118.397 248.272 126.005 237.077 126.005 237.077C114.359 231.835 115.061 209.558 115.061 209.558C115.061 209.558 112.336 209.536 109.314 210.523C108.054 210.938 106.746 211.528 105.56 212.367C96.6648 218.674 86.689 235.801 93.9665 246.774Z" fill="#390075"/>
<path d="M104.186 255C100.358 255 96.1741 253.256 92.5142 247.742C88.9391 242.351 88.7884 235.037 92.0913 227.146C94.7962 220.683 99.5713 214.474 104.554 210.942C105.763 210.087 107.181 209.389 108.771 208.864C112.031 207.8 114.956 207.81 115.076 207.812C115.546 207.816 115.994 208.01 116.32 208.348C116.646 208.687 116.821 209.144 116.807 209.613C116.8 209.825 116.281 230.784 126.722 235.484C127.193 235.695 127.545 236.105 127.686 236.603C127.826 237.1 127.739 237.634 127.449 238.061C127.127 238.536 119.448 249.724 110.307 253.64C108.501 254.416 106.403 255.001 104.187 255.001L104.186 255ZM95.4188 245.807C99.041 251.265 103.461 252.777 108.933 250.427C115.235 247.727 121.042 240.771 123.424 237.649C114.56 231.873 113.431 216.825 113.318 211.432C112.374 211.547 111.14 211.766 109.855 212.184C108.599 212.599 107.491 213.14 106.566 213.794C102.157 216.921 97.7366 222.692 95.3067 228.496C93.6642 232.421 91.4942 239.889 95.4188 245.807Z" fill="#390075"/>
<path d="M151.79 246.774C147.076 253.876 141.395 254.291 136.137 252.033C127.36 248.272 119.751 237.077 119.751 237.077C119.751 237.077 51.1984 229.778 56.2428 200.573C56.4518 199.354 56.8926 198.249 57.5509 197.262C58.5756 195.703 60.141 194.44 62.1819 193.493C73.5318 188.221 99.624 192.628 130.695 209.559C130.695 209.559 132.822 209.541 135.399 210.218C135.739 210.306 136.088 210.411 136.442 210.524C137.702 210.939 139.01 211.529 140.196 212.368C149.091 218.675 159.067 235.802 151.79 246.775V246.774Z" fill="#4B5191"/>
<g opacity="0.6">
<path d="M135.4 210.218C133.935 215.158 132.705 220.446 132.705 220.446C132.705 220.446 131.973 211.62 97.2167 199.639C76.1086 192.362 63.8912 194.476 57.5509 197.262C58.5756 195.703 60.1409 194.44 62.1818 193.493C73.5317 188.221 99.624 192.628 130.695 209.559C130.695 209.559 132.822 209.541 135.399 210.218H135.4Z" fill="white"/>
</g>
<g opacity="0.2">
<path d="M119.751 237.077C119.751 237.077 51.1984 229.778 56.2428 200.573C56.7881 197.428 58.8459 195.043 62.1809 193.492C63.7246 200.887 71.3288 212.558 105.138 214.961C105.138 214.961 104.877 219.107 95.3453 218.73C85.8141 218.359 115.124 228.619 122.877 220.792C122.877 220.792 132.007 227.528 119.75 237.076L119.751 237.077Z" fill="#390075"/>
</g>
<path d="M141.571 255C139.354 255 137.256 254.415 135.45 253.64C127.474 250.221 120.61 241.265 118.778 238.725C112.346 237.963 71.3589 232.478 58.2855 215.135C54.8695 210.603 53.6047 205.605 54.5248 200.276C55.1427 196.697 57.4492 193.847 61.1939 192.032C74.1138 185.771 102.193 192.116 131.157 207.822C132.129 207.86 134.456 208.038 136.984 208.863C138.578 209.388 139.996 210.087 141.203 210.941C146.187 214.475 150.962 220.684 153.667 227.146C156.969 235.037 156.819 242.351 153.243 247.742C149.584 253.256 145.399 255 141.571 255ZM73.9537 193.138C69.3416 193.138 65.5149 193.819 62.713 195.177C59.9855 196.5 58.3863 198.415 57.9625 200.872C57.2024 205.272 58.2187 209.247 61.0695 213.03C74.0676 230.273 119.478 235.292 119.936 235.341C120.445 235.394 120.904 235.671 121.193 236.094C121.266 236.202 128.627 246.916 136.823 250.428C142.295 252.777 146.715 251.267 150.338 245.808C154.263 239.891 152.093 232.422 150.45 228.497C148.02 222.693 143.6 216.922 139.189 213.794C138.266 213.141 137.158 212.6 135.898 212.185C133.213 211.307 130.753 211.309 130.707 211.307C130.408 211.31 130.12 211.235 129.863 211.095C115.282 203.15 100.959 197.535 88.4408 194.859C83.0743 193.712 78.1843 193.139 73.9546 193.139L73.9537 193.138Z" fill="#390075"/>
<path d="M151.791 246.774C147.077 253.876 141.396 254.291 136.138 252.033C127.36 248.272 119.752 237.077 119.752 237.077C131.398 231.835 130.696 209.558 130.696 209.558C130.696 209.558 133.421 209.536 136.443 210.523C137.703 210.938 139.011 211.528 140.197 212.367C149.092 218.674 159.068 235.801 151.791 246.774Z" fill="#390075"/>
<path d="M141.571 255C139.354 255 137.256 254.415 135.45 253.64C126.311 249.723 118.632 238.535 118.31 238.061C118.02 237.633 117.933 237.099 118.073 236.602C118.214 236.105 118.566 235.695 119.037 235.483C129.497 230.775 128.959 209.825 128.952 209.614C128.937 209.144 129.112 208.687 129.438 208.347C129.764 208.008 130.212 207.814 130.682 207.811C130.807 207.81 133.727 207.798 136.983 208.862C138.577 209.386 139.995 210.085 141.202 210.939C146.186 214.474 150.961 220.683 153.666 227.146C156.968 235.036 156.818 242.35 153.242 247.741C149.583 253.256 145.398 254.999 141.57 254.999L141.571 255ZM122.333 237.649C124.716 240.771 130.522 247.727 136.823 250.427C142.295 252.776 146.715 251.266 150.338 245.807C154.263 239.89 152.093 232.422 150.45 228.497C148.02 222.692 143.6 216.921 139.189 213.793C138.266 213.14 137.158 212.599 135.898 212.184C134.616 211.765 133.383 211.546 132.439 211.432C132.326 216.825 131.198 231.873 122.333 237.649Z" fill="#390075"/>
<path d="M200.049 170.616C200.71 170.342 201.024 169.582 200.751 168.92C200.477 168.257 199.719 167.943 199.057 168.217C198.396 168.492 198.082 169.251 198.356 169.914C198.63 170.576 199.388 170.891 200.049 170.616Z" fill="#390075"/>
<path d="M47.8907 169.45C48.3968 168.943 48.3968 168.121 47.8907 167.614C47.3846 167.107 46.5641 167.107 46.058 167.614C45.5519 168.121 45.5519 168.943 46.058 169.45C46.5641 169.957 47.3846 169.957 47.8907 169.45Z" fill="#390075"/>
</g>
<defs>
<clipPath id="clip0_1600_7523">
<rect width="246" height="255" fill="white"/>
</clipPath>
</defs>
</svg>
