<svg width="1000" height="1000" viewBox="0 0 1000 1000" fill="none" xmlns="http://www.w3.org/2000/svg">
<g clip-path="url(#clip0_1600_7084)">
<path d="M1000 0H0V1000H1000V0Z" fill="#B2F19F"/>
<path d="M523.6 453.2C524.7 455.8 526.8 458.8 529.4 458C531.7 457.2 532 454.1 531.9 451.7C530.8 433.1 529.8 414.4 528.7 395.8C527.8 380.6 526.6 364.5 517.7 352.2C510.2 341.9 497.5 335.7 484.8 335.9C472.1 336.2 459.7 342.9 452.6 353.5C447.7 360.8 445.4 370.7 449.5 378.6C453.3 385.9 461.3 389.6 468.6 393.5C477.9 398.5 486.8 404.5 494.8 411.3C501.8 417.2 511.4 424.8 515.3 433.3C518.3 439.8 520.9 446.6 523.6 453.2Z" stroke="white" stroke-width="1.5" stroke-miterlimit="10" stroke-linecap="round"/>
<path d="M0 85.4001C32.9 85.9001 75.5 92.4001 98.6 70.2001C111 58.3001 133.1 66.8001 141.8 81.6001C150.4 96.4001 149.9 114.6 150.9 131.7C151.9 148.8 155.7 167.6 169.4 177.9C188.8 192.4 217.6 181.6 234.2 164C250.8 146.4 260.5 123.2 276.9 105.4C295 85.7001 320.3 73.6001 346.3 67.7001C372.4 61.8001 399.4 61.6001 426.1 62.7001C483.2 64.9001 540.6 72.8001 594 93.0001C647.4 113.2 696.9 146.4 730.5 192.7C764 239 798.1 304 767.9 352.4C759.8 365.3 757.4 381.1 758.3 396.3C759.2 411.5 763.2 426.3 767.1 441C774.1 467.1 782.7 495.5 805.1 510.6C813.5 516.3 824.1 520.4 828.2 529.7C832 538.1 828.7 548.6 822 554.9C815.3 561.2 805.8 564 796.6 564.4C787.4 564.8 778.2 563.1 769.1 561.8C728.6 555.8 687.1 556.1 646.7 562.7C633.3 564.9 619.9 567.7 606.3 568.1C592.7 568.4 578.6 565.9 567.4 558.3C551.8 547.7 543.8 528.5 542.2 509.7C540.6 490.9 544.7 471 547.2 452.3C551.1 424.1 555 394.8 546.6 367.6C538.3 340.4 514.1 315.7 485.7 316.6C468.6 317.1 453.2 326.3 439 335.8C424.7 345.3 409.2 358.7 411 375.8C412.5 390.5 426.4 400.5 439.4 407.5C455.8 416.3 472.9 423.8 488.2 434.4C503.4 445 517 459.5 521.9 477.4C526.8 495 523 513.7 517.8 531.2C512.6 548.7 506 566 505.2 584.2C504.4 602.4 510.7 622.2 526 632C542.7 642.7 565.1 638.6 582.6 629.2C600.1 619.8 614.6 605.8 631.7 595.7C649 585.5 668.8 579.5 688.9 578.4C713.9 577.1 738.7 583.2 763.6 586.6C788.4 590 815 590.4 837.2 578.6C859.3 566.8 874.8 539.5 865.9 516C854.8 486.5 815.2 479.3 796.4 454.1C781.2 433.7 782.3 405.6 787.3 380.7C792.4 355.8 800.7 330.8 797.7 305.5C787.3 219.3 724.7 147.4 646.9 108.9C640.8 105.9 634.5 103 629.8 98.2001C625.1 93.4001 622.3 86.0001 624.8 79.7001C628.2 71.3001 638.7 68.9001 647.6 67.6001C673.7 63.9001 701.4 60.4001 725.5 70.9001C740.9 77.6001 753.3 89.5001 765.4 101.2C798.7 133.2 831.9 165.2 865.2 197.3C880.9 212.4 897.3 228 917.9 235.3C944.2 244.7 975.3 239.7 999.7 252.1" stroke="white" stroke-width="1.5" stroke-miterlimit="10" stroke-linecap="round"/>
<path d="M580.5 585.5C584 585.1 587.6 584.5 591.1 585.2C594.6 585.9 598 588.3 598.6 591.8C599.5 597.1 594.1 601 589.3 603.5C581.2 607.7 572.9 611.9 564 614C555.1 616.1 545.4 616.1 537.1 612.1C528.8 608.2 522.3 599.9 522.1 590.7C522 585.5 524.3 580 528.2 576.5C534 571.4 536.9 575 542.7 578.1C554.1 584.2 567.5 586.8 580.5 585.5Z" stroke="white" stroke-width="1.5" stroke-miterlimit="10" stroke-linecap="round"/>
<path d="M244.8 1000C236.7 981.4 228.7 962.8 220.6 944.2C212.6 925.7 204.4 907 191.8 891.3C179.2 875.6 161.2 863.1 141.2 861.4C134.9 860.9 128.5 861.4 122.3 860.2C116.1 859 109.8 855.6 107.5 849.7C103.7 840 112.1 830.1 120 823.3C129.3 815.4 139 807.9 149 800.8C160.8 792.5 175.9 784.6 189 790.7C195.3 793.7 199.8 799.4 204.1 804.9C229.8 838.3 255.4 871.8 281.1 905.2C285.5 910.9 290 916.9 291.4 924C292.8 931.1 290 939.6 283.3 942.3C274.9 945.7 264.4 939 256.8 943.9C249.2 948.7 251.3 960.4 255.1 968.6C260.3 979.9 267.1 990.5 275.1 999.9" stroke="white" stroke-width="3" stroke-miterlimit="10" stroke-linecap="round"/>
<path d="M0 127.8C13.3 125.4 26.2 119.7 38.4 113.6C56.7 104.5 73.9 94.4 94.3 93.2C108.5 96.3 119.5 108.2 125.9 121.3C132.3 134.4 135 148.9 138.7 163C142.5 177.1 147.7 191.4 157.9 201.8C174.4 218.6 201.8 221.7 223.8 213.2C245.8 204.7 262.9 186.3 274.6 165.9C283.4 150.6 289.8 133.8 300.3 119.6C309.6 107 322.1 96.7 336.3 89.9C370.2 73.7 410 78.7 447.2 84.1C492.9 90.7 538.3 87.2 581.5 103.5C657.3 132.2 737.3 193.9 751.3 273.7C757.6 309.5 748.3 346 745.4 382.2C742.1 423.5 747.3 465.5 760.5 504.8C762.8 511.6 765.3 518.4 768.3 524.9C772.4 533.7 764.9 543.4 755.4 541.9C739.1 539.3 723 535.7 706.7 533C682.3 529 656.8 527.3 633.2 534.5C616.9 539.5 599.4 548.5 584 541.3C571.8 535.6 566 521.5 563.4 508.2C558.3 482.3 561.1 455.6 563.1 429.3C565.1 403 566.1 375.9 557.8 350.9C549.4 325.9 530 293.2 504.4 299.3C466.3 308.3 428.8 320.1 392.4 334.4C381.3 338.8 369.4 344.2 364.2 355C357.2 369.7 366 387.6 361.9 403.3C359.5 412.2 353.3 419.4 348.5 427.3C343.7 435.2 340.3 445.1 344.1 453.4C349.3 464.8 364.2 467 376.6 467.6C399.7 468.8 422.7 470 445.7 471.2C458.3 471.8 472 472.9 481.6 481.1C492.1 490 494.9 505.4 492.4 518.9C489.9 532.4 483 544.6 476.5 556.7C469.2 570.5 462.2 585.1 463.1 600.9C463.9 613.6 471.5 624.8 482.7 630.9C498.1 639.2 506.6 655.6 521.6 664.9C537.2 674.6 555.6 680.9 573.8 679C603.7 675.8 626.7 652.1 653.6 638.6C709.3 610.7 777.4 628.6 837.3 611.4C856 606.1 873.4 593.4 883.3 576.6C893.2 559.9 895.7 538.9 889.8 520.3C885.2 505.8 875.9 492.8 873.5 477.8C869.3 452.6 885.2 427.9 884.6 402.4C883.8 367.6 853.1 339.4 850 304.6C842 217 748.1 164.5 678.9 110.3C671.4 104.5 662.9 96 666.2 87.1C668.2 81.5 674.5 78.4 680.5 78.3C686.4 78.2 692.1 80.5 697.6 82.9C741.9 102.5 782.7 129.9 817.7 163.4C836 180.9 852.7 200.2 871.9 216.7C891.1 233.3 913.4 247.3 938.3 252C947.7 253.8 957.4 254.2 966.5 257.3C975.6 260.3 984.3 266.7 986.8 276C990.1 288.2 981.8 300.1 976.7 311.7C968.6 329.8 967.7 351 974.4 369.7C979.4 383.5 988.4 395.8 999.9 404.8" stroke="white" stroke-width="1.5" stroke-miterlimit="10" stroke-linecap="round"/>
<path d="M432.2 211.2C436.4 209.6 440.6 207.6 443.4 204.2C446.2 200.8 447.2 195.4 444.6 191.8C441.1 187 433.9 187.6 428.1 188.6C415.1 191 402.2 193.4 389.2 195.8C382.5 197 375.8 198.3 369.1 199.5C364.6 200.3 354.6 200.3 351.1 203.8C345.7 209.3 356.1 211.5 360.5 212.8C370.5 215.7 381 217.6 391.4 217.9C405.4 218.4 419.3 216.2 432.2 211.2Z" stroke="white" stroke-width="1.5" stroke-miterlimit="10" stroke-linecap="round"/>
<path d="M341.8 190.4C336.2 191.9 330.4 193.5 325.8 197.1C321.2 200.7 318 206.7 319.5 212.3C321.3 219.1 328.8 222.5 335.6 224.7C359 232.2 383.8 235.5 408.3 234.5C421 234 434 232.1 445.2 226.2C456.4 220.2 465.7 209.4 467.1 196.8C468.6 183.2 457.1 165.3 442.1 166.6C421 168.4 398.8 176 378.3 181C366.2 184 354 187.1 341.8 190.4Z" stroke="white" stroke-width="1.5" stroke-miterlimit="10" stroke-linecap="round"/>
<path d="M649.9 274.8C644 274 638.8 271 633.7 268C592.4 243.1 554.9 212.4 518.7 180.5C514.4 176.7 510 172.7 506.9 167.8C503.9 162.8 502.4 156.6 504.4 151.2C506.2 146.3 510.5 142.6 515.2 140.5C519.9 138.4 525.2 137.5 530.3 136.8C551.9 133.7 575.4 131.7 594 143C608.4 151.8 617.3 167.2 625.6 181.9C635.8 200 645.9 218 656.1 236.1C662.9 248 677 278.3 649.9 274.8Z" stroke="white" stroke-width="1.5" stroke-miterlimit="10" stroke-linecap="round"/>
<path d="M0 148.5C15.6 145 29.7 136 44.2 129C60.8 120.9 80.6 115.1 97.4 122.6C108.6 127.6 116.7 137.9 121.6 149.2C126.5 160.4 128.5 172.7 130.5 184.8C131.9 193.6 133.3 202.2 134.6 210.9C136.6 223.6 146 233.8 158.6 236.7C158.7 236.7 158.7 236.7 158.8 236.8C166.5 238.6 174.7 241 179.5 247.2C184 253.1 184.6 261.1 188.3 267.5C193.2 275.9 203 280.4 212.6 281.4C222.3 282.4 231.9 280.4 241.4 278.3C253.3 275.8 265.4 273.1 276.1 267.3C286.8 261.4 296.1 251.8 298.5 239.8C301.4 225.4 294.1 210.2 297.5 195.9C300.9 181.5 314.6 171.4 328.9 167.4C343.2 163.3 358.3 164 373.1 163.4C408.3 162 443.1 153 474.6 137.2C502.7 123.1 532 103 562.6 109.9C580.7 114 595.4 127 608.4 140.3C636.8 169.4 661.5 202.1 681.7 237.4C686.5 245.8 691.2 254.6 692.3 264.2C693.5 273.8 690.4 284.5 682.5 290C672.9 296.6 659.9 294.1 648.9 290.4C623.6 281.9 599.7 269.1 578.6 252.7C559.5 237.8 540.8 219.1 516.6 216.9C492.6 214.7 470.9 229.6 448.2 237.4C427.3 244.6 404.9 246 383.1 249.8C361.3 253.6 338.9 260.3 323.2 275.9C284.9 313.6 226.2 317.9 176.2 337.7C163.7 342.7 150.5 348.1 142.5 358.9C135.6 368.3 133.5 380.5 133.9 392.1C134.4 403.7 137.1 415.2 138.9 426.7C142.1 447.3 142.2 468.5 139.1 489.2C134.3 521.4 121 553.8 95.7 574.3C69.3 595.8 34.1 601.5 0 605.3" stroke="white" stroke-width="3" stroke-miterlimit="10" stroke-linecap="round"/>
<path d="M0 164.5C13.9 163.7 27 156.1 39.6 149.7C53.9 142.5 70.8 136.5 85.5 142.8C103.7 150.6 109.8 173.3 110.1 193C110.5 212.8 107.6 233.7 116.5 251.3C123.7 265.6 138.6 278 136.3 293.8C135.1 302.3 129 309.2 124.4 316.4C108.3 341.4 108.1 373.3 111.6 402.9C115.1 432.4 121.7 462.2 117.3 491.6C112.9 520.8 97.2 548.2 74.2 566.8C53.3 583.7 26.7 593.1 0 593.4" stroke="white" stroke-width="1.5" stroke-miterlimit="10" stroke-linecap="round"/>
<path d="M157.9 253.6C164.4 257.1 169.6 263.1 172 270.2C174.9 278.6 173.9 287.7 172.5 296.4C171.8 300.9 170.8 305.5 168.1 309.1C165.4 312.7 160.4 315.1 156.2 313.3C152.6 311.8 150.7 307.8 150.1 304C149.6 300.2 150.2 296.3 150.2 292.4C150.2 282.9 146.5 273.4 140 266.6C138 264.5 135.6 262.5 134.4 259.8C128 245.9 152.4 250.7 157.9 253.6Z" stroke="white" stroke-width="1.5" stroke-miterlimit="10" stroke-linecap="round"/>
<path d="M579.9 162.7C589.7 168.3 597 177.4 603.5 186.6C612.4 199.2 620.3 212.4 627.3 226.1C630.3 232.1 623.5 238.1 617.9 234.5C614.2 232.1 610.6 229.4 607.2 226.7C590.4 213.7 573.6 200.6 556.9 187.6C551.5 183.4 536.8 176 535.5 168.8C534 160.6 546 158.4 551.7 157.5C560.2 156.3 572.5 157.1 579.9 162.7Z" stroke="white" stroke-width="1.5" stroke-miterlimit="10" stroke-linecap="round"/>
<path d="M0 178.5C11.7 172.6 25.2 167.2 34.8 164.7C49.4 160.9 66.6 163.3 76.6 174.7C86 185.4 86.8 201 86.2 215.3C85.6 229.6 84.1 244.5 90.3 257.4C97.4 272.1 114.1 283.3 113.4 299.6C112.8 311.8 102.5 320.9 95.2 330.7C77.7 354.4 77 386.4 80 415.7C83 445 89 474.9 82.4 503.7C76.7 528.2 61.7 550.4 41.1 564.8C28.9 573.3 14.7 579 0 581.6" stroke="white" stroke-width="1.5" stroke-miterlimit="10" stroke-linecap="round"/>
<path d="M0 201.9C12.8 192.2 31.7 191.4 45.2 200.1C60.8 210.1 67.3 229.3 72.8 247C78.2 264.6 83.6 283.5 78.2 301.1C74.7 312.5 66.9 322.1 61.5 332.7C51.5 352.2 49.7 375 50.9 396.9C52.1 418.8 56.1 440.5 57.2 462.4C58.3 484.3 56.1 507 45.8 526.4C36.5 543.9 19.4 558.2 0 560.9" stroke="white" stroke-width="3" stroke-miterlimit="10" stroke-linecap="round"/>
<path d="M0 216.2C5.5 215.6 11.3 216.5 16.5 218.7C24.6 222 31.3 228.1 36.7 234.9C50.1 251.9 55.6 274.9 51.4 296.2C48.5 310.7 41.5 324 37 338C21.1 387 36.2 440.4 30.9 491.5C29.9 500.9 28.1 510.6 22.8 518.4C17.7 525.8 8.8 531.1 0 529.8" stroke="white" stroke-width="1.5" stroke-miterlimit="10" stroke-linecap="round"/>
<path d="M0 239.4C11.3 242 21.5 250 26.2 260.6C31.9 273.4 30 288.3 25.6 301.7C21.2 315 14.5 327.5 10.5 340.9C3.4 364.6 5.2 390 5.6 414.7C5.9 432.6 5.2 451.2 0 468.2" stroke="white" stroke-width="1.5" stroke-miterlimit="10" stroke-linecap="round"/>
<path d="M0 261.5C5.5 265.1 10.3 269.8 12.6 275.9C15.7 284.4 13 294.2 7.8 301.6C5.6 304.8 2.9 307.7 0 310.4" stroke="white" stroke-width="1.5" stroke-miterlimit="10" stroke-linecap="round"/>
<path d="M0 653.1C44 641.9 93 654.2 137.1 641.1C158.5 634.8 177.8 622.7 197.8 612.8C217.8 602.9 239.9 594.8 262.2 597.4C290.9 600.7 315.1 621.6 329.8 646.5C344.5 671.3 351.3 700 357.8 728.1C360.5 739.7 365.6 750.5 369.9 761.5C375 774.3 388.6 781.7 402 778.7C403.6 778.3 405.3 777.9 406.9 777.5C417.1 774.8 427.1 771.3 437.5 770.3C448 769.3 459.2 771 467.2 777.8C474 783.6 477.6 792.2 482.8 799.4C488 806.7 497.5 815.3 505 810.5C517.5 802.4 529.9 794.4 542.4 786.3C547.7 782.9 553.5 779.3 559.8 779.5C567.1 779.7 573.3 785 577.6 791C581.9 796.9 584.9 803.7 589.5 809.4C601.2 823.6 622.8 828 639.7 820.9C656.7 813.8 668.4 796.4 670.3 778.1C671.1 769.7 670.1 761 665.8 753.7C660.7 745.1 651.7 739.4 642.2 736.2C632.7 733 622.7 732 612.8 730.6C589.5 727.4 566.4 722.1 544.1 714.8C523.6 708.1 501.1 692.1 480.2 697.7C461.9 702.6 441.7 692.9 430.8 677.5C419.8 662.1 416.9 642 418.8 623.2C420.7 604.3 427 586.3 433 568.3C436.2 558.9 439.1 548 434.1 539.4C429.8 532.1 421.1 529 413.1 526.4C400.8 522.4 386.9 516.1 374.1 514.5C339.4 510.2 302.3 488.3 269.4 500.1C249.1 507.4 228.7 514.6 208.4 521.9C203 523.8 196 525.3 193 519.5C191.9 517.3 191.8 514.7 192.7 512.3C199.8 493.1 217.3 480.8 234 469.4C254.5 455.4 272.9 437.1 294.1 424.3C308.4 415.6 311.2 396.3 311.4 379.6C311.7 362.9 311.7 344.1 323.6 332.3C330 326 338.7 322.9 347.2 320C393.1 304.1 437 288.8 482.5 273.1C494.7 268.9 508 269.1 520 273.9C549.3 285.6 574.3 308.3 588.2 336.7C595.5 351.6 599.8 367.8 607.7 382.4C615.5 397 627.9 410.5 644.2 413.7C655.5 415.9 667 412.9 678.4 411.3C689.8 409.7 702.4 409.8 711.4 417C723.4 426.6 724.2 444.7 725.6 459.3C726 464.1 725.7 468.8 724.5 473.5C722.9 479.6 720.1 486.9 713.8 486.6C691.1 485.2 668 491.4 648.9 503.7C638.4 510.5 628.5 519.4 616.1 521.4C605 523.2 593 518.5 586.1 509.6C579.1 500.7 575.3 486.3 579.5 475.9C601.9 421 591.6 354.1 553.6 308.5C546.7 300.2 538.8 292.5 529.2 287.4C519.7 282.4 507 278.9 496.8 282.5C457 296.4 417.3 310.3 377.6 324.1C365 328.5 351.2 333.8 344.9 345.6C339.5 355.5 340.8 367.5 340.9 378.7C341 387.9 339.7 398.7 334.3 406C331.2 410.2 328.8 414.8 326.7 419.6C320.9 433.5 310.6 445.5 297.7 453.2C291.2 457.1 282.9 461.5 283.4 469.4C283.6 472.9 285.6 476 288.5 478C294.2 482 301 481.9 307.6 481.9C354.8 481.8 400.1 496.9 447 501.2C456.5 502.1 466 510.5 467.8 519.9C469.5 528.9 466.9 538.2 463.1 546.5C459.3 554.9 454.2 562.7 450.7 571.2C441.2 594.4 444.4 621.8 456.9 643.5C469.4 665.2 490.3 681.4 513.7 690.4C536.5 699.2 561.4 701.4 585.7 699.3C613.9 696.9 641 686.1 662.8 668.1C683 651.4 709.5 644.4 735.5 641.5C761.8 638.5 788.5 639.1 814.7 635.2C840.9 631.3 867.5 622.2 885.8 603C908.2 579.7 921.6 536.2 903.9 509.1C894 493.9 894 474.3 896.6 456.3C899.2 438.3 903.9 420.3 902.1 402.3C900.1 382.3 890.3 364.2 883.2 345.4C875.7 325.6 871.3 302.6 882.2 284C889.4 271.6 902.4 263.4 916.8 262.2C931.6 260.9 947.3 265.8 957.6 276.5C962.3 281.4 965.5 288 965.1 294.7C964.2 307.4 951.6 315.9 946.3 327.5C940.9 339.2 943.3 353.2 949 364.7C954.7 376.2 963.4 386 971 396.3C978.7 406.6 985.6 418.2 986.8 431C988.7 449.8 978.2 467.5 975.3 486.1C971.5 510.1 981.7 535.6 1000.2 551.2" stroke="white" stroke-width="3" stroke-miterlimit="10" stroke-linecap="round"/>
<path d="M475 238.8C499.1 230.4 525.7 233.5 547.1 247.3C558.8 254.9 570.5 262.5 582.1 270.2C604.7 285.3 627.6 300.8 653.4 309.1C666.6 313.3 682.3 315.2 693.1 306.6C702.1 299.5 705.1 286.8 703.8 275.4C702.1 261.1 694.8 248.2 687.6 235.7C676.8 217 666 198.4 655.2 179.7C650.7 177.1 651 169.5 655.2 166.5C659.4 163.5 665.4 164.5 669.7 167.4C674 170.3 676.9 174.7 679.6 179C685 187.4 690.4 195.8 695.9 204.1C709.3 224.9 722.9 245.9 730.8 269.4C738.7 292.8 740.5 319.3 730.5 341.9C723.8 357 720.4 375.4 707.8 386.1C699.8 392.9 689.6 396.6 679.3 398.6C666.7 401.1 653.3 401.1 641.6 395.9C629.9 390.7 620.9 380.7 614.6 369.6C608.3 358.5 604.5 346.2 600.7 334C591.8 305.3 565.6 283.1 538.6 269.9C511.7 256.7 477.7 255.9 452.5 272C421.8 291.7 381.5 292.8 347.4 305.7C329.7 312.4 310.6 321 302.4 338.1C297.4 348.5 297.3 360.5 295.2 371.9C289 406.5 262.8 436.8 229.5 448C196.6 459.1 171.9 488.2 162.9 521.7C164.5 525.5 158 530.3 153.9 530.2C149.8 530.1 146.4 526.5 145.3 522.6C144.2 518.7 144.9 514.4 145.9 510.5C153.3 482.6 176.5 461.9 199.8 444.9C223.1 427.9 248.5 412 264.3 387.9C270.9 377.9 266.4 366.8 267.9 354.9C269.6 341.5 278.3 329.8 288.9 321.5C299.5 313.2 312.1 307.9 324.6 302.9C337.1 297.9 349.8 293 360.9 285.4C393.4 263.2 432.6 254.2 469.6 240.8C471.5 240 473.3 239.4 475 238.8Z" stroke="white" stroke-width="1.5" stroke-miterlimit="10" stroke-linecap="round"/>
<path d="M822.6 442.9C811.8 439.1 806.5 426.7 805.8 415.3C805.2 406.7 806.4 398.1 807.7 389.6C810.8 367.8 814 346 817.1 324.3C817.9 318.8 821.1 311.6 826.4 313.1C829.2 313.9 830.7 316.8 831.8 319.5C838 333.7 844.3 347.9 850.5 362.2C855.3 373.2 863.3 385.9 863.9 398.2C864.8 417.5 845.9 451.1 822.6 442.9Z" stroke="white" stroke-width="1.5" stroke-miterlimit="10" stroke-linecap="round"/>
<path d="M0 618C47.5 613.1 96.2 607.2 137.6 583.8C157 572.8 174.2 558.3 193.3 546.9C251 512.4 326 508.8 386.7 537.7C395.9 542 406.6 547.5 409 557.4C411.4 567.3 409 577.6 406 587.3C403 597 399.3 606.7 399.1 616.8C398.5 643.4 400.8 670.7 409.3 696C411.6 702.8 414.5 709.9 420.6 713.7C427.6 718.2 436.7 716.9 444.8 715C452.9 713.1 461.5 710.7 469.4 713.3C482.2 717.6 495.4 722.5 506 730.9C513.1 736.5 519.4 743.3 523 751.5C526.6 759.7 527.2 769.6 523.2 777.6C519.2 785.6 510 791.3 501.1 789.8C492.2 788.4 485 779 487.2 770.2C488.5 764.7 480.7 759 475.7 756.4C470.7 753.7 464.9 753.1 459.3 752.7C438.6 751.5 417.6 754.5 398.1 761.5C392.4 763.5 385.7 762.4 381.9 757.6C378.1 752.8 377 746.5 375.9 740.5C366.6 691.9 347.9 645.2 321.1 603.6C302.9 575.4 259.4 578.6 226.6 585.7C193.8 592.8 163.6 608.4 132 619.7C89.7 635.1 44.8 642.5 0 641.8" stroke="white" stroke-width="1.5" stroke-miterlimit="10" stroke-linecap="round"/>
<path d="M196 561.2C223.9 550.3 252.6 540.7 282.4 537.3C313.1 533.8 345.3 537.3 372.5 552.1C379.4 555.9 386.3 560.7 389.5 568C394 578.2 390.1 589.9 386.2 600.3C381.3 613.3 387 629.1 387.2 642.9C387.3 647 387.3 651.1 385.7 654.9C383 661.3 375.4 665.3 368.6 663.7C361.8 662.2 356.7 655.3 357 648.4C358 630.2 345.2 612.2 332.9 598.8C332.4 598.2 331.9 597.7 331.3 597.1C316 581.4 294.7 573.1 272.9 573.5C248.3 573.9 223.1 573.6 198.8 574.4H198.7C191.1 574.5 189 564 196 561.2Z" stroke="white" stroke-width="1.5" stroke-miterlimit="10" stroke-linecap="round"/>
<path d="M0 667.7C52.6 671 106.6 673.1 156.1 655.3C175.7 648.2 194.2 638.2 213.8 631C233.4 623.8 255 619.8 275.2 625.2C298.5 631.5 317.3 650.2 327.4 672.1C337.6 694 339.9 718.9 338.4 743C337.1 763.3 333.2 783.6 336 803.8C337.5 814.5 351 821 361.8 820.9C372.6 820.8 382.6 815.6 391.5 809.6C400.4 803.5 408.5 796.4 418 791.2C432 783.6 450.7 788.1 463.3 797.9C475.9 807.7 483.4 822.7 488.4 837.9C492.6 850.6 516 847.4 526 838.5C530.7 834.4 533.8 828.8 537.5 823.8C541.2 818.8 546 814 552.1 812.9C557.9 811.8 564 814.2 568.6 817.9C573.2 821.6 576.6 826.6 579.9 831.5C589.3 845.3 609.6 846 626.2 844.3C642.8 842.5 658.6 834 669.1 821C679.3 808.4 684.3 792.3 687.1 776.2C689.9 760.2 690.7 743.9 693.7 727.9C700.7 690.8 741.5 668.1 778.7 661.8C797.1 658.6 816.1 659.9 834.6 657C855.1 653.9 874.8 645.6 891.5 633.4C895.7 630.4 900.1 627.1 903.7 623.3C906.6 620.2 908.1 616.3 911.1 613.1C917.3 606.3 927.2 602.8 936.3 604.9C943.4 606.5 949.5 611 955.9 614.5C969.3 621.8 984.9 624.7 1000 623" stroke="white" stroke-width="3" stroke-miterlimit="10" stroke-linecap="round"/>
<path d="M1000 578C984.6 570.4 971.7 557.8 963.9 542.5C955.1 525.1 947.4 502.4 955.9 484.9C964.5 467 973.4 448 971.9 428.2C970.9 415.1 965.4 402.7 958 391.9C950.6 381.1 940.6 372.3 933.4 361.4C927.7 352.8 929.3 341.2 932.9 331.5C936.5 321.8 942 312.7 943.6 302.4C945.2 292.2 941.4 279.4 931.4 276.8C915.8 272.7 897.9 281 891.1 295.6C885.4 307.8 887.3 322.4 891.9 335C896.6 347.7 903.8 359.2 909 371.7C918.9 395.7 930.7 428.4 914.8 449C907 459.2 906.9 473.5 910 485.9C913 498.4 918.7 510.1 921.4 522.7C924.4 537.1 923.4 552.2 927.4 566.4C932 582.5 943.4 596.4 958.2 604.2C970.9 610.8 986 612.8 1000 609.9" stroke="white" stroke-width="1.5" stroke-miterlimit="10" stroke-linecap="round"/>
<path d="M383.3 0C396.6 15.4 416 24.7 435.2 32.1C490.9 53.7 554.9 81.9 611.5 62.7C672.2 42.1 743.5 56.6 791.4 99.3C813.8 119.3 830.9 144.4 850.6 167.1C870.2 189.8 893.8 210.9 922.8 218.7C947.9 225.4 975.8 221.7 1000 229.8" stroke="white" stroke-width="3" stroke-miterlimit="10" stroke-linecap="round"/>
<path d="M284 0C290 11.9 302 19.9 314.7 24.1C327.7 28.4 341.6 29.2 355.2 30.3C368.9 31.4 382.7 32.8 395.3 38.3C397.6 39.3 400.2 41.2 399.6 43.6C399.1 45.8 396.2 46.5 393.9 46.7C370.5 48.8 347.2 50.8 323.8 52.9C290.5 55.8 264.9 87.4 247.7 116.1C242.4 125 238 134.5 231.9 143C225.9 151.5 217.9 159.1 207.9 162C197.9 164.9 185.8 162.2 180 153.6C171.8 141.6 178.2 124.3 171.3 111.6C163.5 97.5 165 79.4 156.5 65.7C148 52 133.5 41 117.4 40.6C102.8 40.2 89.7 48 76.4 54C52.6 64.8 26.2 70.1 0 69.2" stroke="white" stroke-width="3" stroke-miterlimit="10" stroke-linecap="round"/>
<path d="M139.6 0C140.9 7.1 145 13.8 149.9 19.2C156.2 26.3 164 32 170.7 38.8C182.1 50.4 190.3 65.2 193.9 81.1C195.7 88.8 196.4 96.8 199.8 103.9C203.2 111 210.2 117.2 218 116.7C226.5 116.1 232.5 108.1 235.9 100.2C239.3 92.4 241.4 83.6 247.5 77.6C253.9 71.2 263.9 68.8 268.9 61.2C273.1 54.8 272.5 46.2 270 39C267.4 31.8 263.2 25.3 260.2 18.2C257.8 12.5 256.3 6 257.4 0" stroke="white" stroke-width="1.5" stroke-miterlimit="10" stroke-linecap="round"/>
<path d="M366.5 0C368.1 1.5 370 2.8 371.6 4.2C375.5 7.4 379 12.7 376.6 17.1C374.4 21.3 368.6 21.5 363.9 21.3C352.2 20.6 340.4 19.9 329.2 16.6C319 13.6 309.1 8.2 302.4 0" stroke="white" stroke-width="1.5" stroke-miterlimit="10" stroke-linecap="round"/>
<path d="M118.1 0C118.3 0.1 118.4 0.2 118.6 0.3C122.9 2.5 127 5.6 129.1 9.9C131.2 14.2 131 20 127.5 23.4C124.8 26.1 120.8 26.9 117 27.6C77.3 35.2 38.1 45.8 0 59.5" stroke="white" stroke-width="1.5" stroke-miterlimit="10" stroke-linecap="round"/>
<path d="M94.6 0C96 2 98.4 3.5 100.6 4.8C103.8 6.7 107.4 9.3 107.4 13.1C107.4 15.6 105.6 17.7 103.5 19C101.4 20.2 98.9 20.7 96.5 21.1C78 24.4 59.7 27.8 41.3 31.2C27.5 33.7 13.8 36.3 0 38.8" stroke="white" stroke-width="1.5" stroke-miterlimit="10" stroke-linecap="round"/>
<path d="M79.7999 0C80.1999 1.6 80.0999 3.4 79.5999 5C78.3999 8.7 75.2999 11.6 71.7999 13.4C68.2999 15.1 64.3999 15.9 60.4999 16.5C40.4999 19.8 20.1999 21.3 -0.100098 20.7" stroke="white" stroke-width="1.5" stroke-miterlimit="10" stroke-linecap="round"/>
<path d="M878.5 0C893.4 12.3 906.1 27.7 923.4 36.3C936.8 42.9 951.9 45 966.7 46.9C974.6 48 983.5 48.7 989.6 43.5C993.1 40.5 994.9 36.2 997.2 32.3C998 31 998.9 29.8 999.9 28.7" stroke="white" stroke-width="1.5" stroke-miterlimit="10" stroke-linecap="round"/>
<path d="M896.8 0C908.6 10.3 920.9 20.1 935.2 26.2C944.2 30.1 953.8 32.4 963.5 33.1C968.7 33.5 974.1 33.3 978.7 31C984.3 28.1 987.9 22.5 991.5 17.3C993.9 13.9 996.7 10.6 1000 8.3" stroke="white" stroke-width="1.5" stroke-miterlimit="10" stroke-linecap="round"/>
<path d="M915.3 0C922 7.2 929.4 13.6 938.2 17.8C950.4 23.7 965.9 24.5 977.1 16.8C983.7 12.3 988.3 5.3 994.1 0" stroke="white" stroke-width="1.5" stroke-miterlimit="10" stroke-linecap="round"/>
<path d="M939.2 0C944.5 4.2 951.3 6.6 958 6.6C964.8 6.6 971.6 4.2 977 0" stroke="white" stroke-width="1.5" stroke-miterlimit="10" stroke-linecap="round"/>
<path d="M853 0C863 8.7 872.2 18.4 882.1 27.3C896.9 40.8 913.9 53.2 933.5 57.1C942.4 58.9 951.5 58.8 960.4 60.3C969.3 61.8 978.4 65.1 984.2 72C989.2 77.9 991.2 85.7 994.1 92.9C995.6 96.5 997.5 100.1 999.9 103" stroke="white" stroke-width="1.5" stroke-miterlimit="10" stroke-linecap="round"/>
<path d="M830.3 0C844.7 11.9 857.4 25.9 871.1 38.7C886 52.6 902.5 65.5 921.9 71.8C938.9 77.4 958.4 78 972.2 89.5C983.8 99.1 989.6 115.1 1000.2 125.3" stroke="white" stroke-width="1.5" stroke-miterlimit="10" stroke-linecap="round"/>
<path d="M400.7 0C415 10.3 433.4 13.2 451.1 14.1C469.5 15 488.2 13.9 506.1 18.2C528.5 23.6 548.1 37 569.8 44.6C595.2 53.4 623.4 53.9 649 45.9C680.1 36.2 715.4 37.9 746.1 48.7C774.6 58.7 797.3 81 814 106.1C828.3 127.7 850.6 143.4 870.2 160.3C880.8 169.4 892.8 178.8 906.9 179C913.9 179.1 920.8 176.9 927.7 177.9C935.9 179.1 942.7 184.7 949.6 189.4C964.6 199.7 982 206.4 1000 209.2" stroke="white" stroke-width="1.5" stroke-miterlimit="10" stroke-linecap="round"/>
<path d="M492.6 0C537.9 17.9 587.2 25.6 635.8 22.3C662.7 20.5 689.6 15.4 716.5 17.2C772.2 21 824.7 57 848.1 107.8C857.5 128 878.8 143.2 901 144.5C907.4 144.9 913.9 144.3 920.2 145.6C929.5 147.6 937.7 154.1 941.8 162.6C951.4 182.8 975.6 191.3 1000 193.7" stroke="white" stroke-width="1.5" stroke-miterlimit="10" stroke-linecap="round"/>
<path d="M570.5 0C602.8 10.4 638.5 10.4 670.8 0" stroke="white" stroke-width="1.5" stroke-miterlimit="10" stroke-linecap="round"/>
<path d="M749.5 0C793.9 16 832.5 47.9 856.2 88.7C864 102.2 871.2 117.5 884.9 124.9C899.5 132.8 917.8 129.6 933.5 135.1C949.7 140.8 961.2 154.8 973.7 166.5C981.2 173.5 990.3 180 1000 183.2" stroke="white" stroke-width="1.5" stroke-miterlimit="10" stroke-linecap="round"/>
<path d="M1000 136.5C985 125.5 974.6 107.6 958.5 97.4997C943.6 88.0997 925.3 86.2997 908.7 80.2997C896.5 75.7997 885.2 68.9997 875.7 60.2997C872.2 57.0997 868.7 53.4997 864.2 51.9997C859.7 50.3997 853.8 51.5997 851.8 55.8997C849.5 60.8997 853.6 66.5997 857.8 70.0997C862.1 73.5997 867.3 77.1997 868 82.6997C869.4 93.4997 876.3 103.9 885.4 109.9C894.6 115.8 905.4 118.4 916.1 120.8C926.8 123.1 937.7 125.3 947.2 130.6C958.7 136.9 967.4 147.2 976.7 156.5C983.5 163.4 991.2 170 999.9 173.9" stroke="white" stroke-width="3" stroke-miterlimit="10" stroke-linecap="round"/>
<path d="M812.8 -9.76548e-05C817.2 4.7999 821.6 9.5999 825.9 14.3999C827.6 16.1999 829.4 18.3999 829.2 20.7999C829 23.6999 826.1 25.7999 823.2 25.9999C820.3 26.1999 817.5 25.0999 814.9 23.8999C800.8 17.5999 787.5 9.4999 775.4 -0.100098" stroke="white" stroke-width="1.5" stroke-miterlimit="10" stroke-linecap="round"/>
<path d="M296.5 1000C294 991.3 289.1 983.4 282.3 977.4C280.3 975.6 278.1 974 276.7 971.7C275.3 969.4 275 966.2 276.8 964.2C286 953.9 303 955 316.6 956.7C330.2 958.4 343.3 964.4 353.5 973.6C362.4 981.6 369.4 992.1 378.3 999.9" stroke="white" stroke-width="1.5" stroke-miterlimit="10" stroke-linecap="round"/>
<path d="M311.1 1000C307.3 993.2 303.6 986.4 299.8 979.5C298.8 977.6 297.7 975.4 298.7 973.5C299.5 972.1 301.2 971.5 302.8 971.1C314.7 968.5 326.9 974.5 336.5 982.1C343.5 987.7 349.8 994.3 356.9 999.9" stroke="white" stroke-width="1.5" stroke-miterlimit="10" stroke-linecap="round"/>
<path d="M322 1000C321.7 999.6 321.4 999.2 321.1 998.7C320 997.3 318.9 995.5 319.5 993.8C320 992.2 321.9 991.4 323.6 991.6C325.3 991.8 326.7 992.7 328.1 993.7C330.8 995.6 333.3 997.7 335.6 1000" stroke="white" stroke-width="1.5" stroke-miterlimit="10" stroke-linecap="round"/>
<path d="M174.4 1000C184 992.6 190.9 981.5 192.3 969.5C194.2 953.5 187.6 937.5 178.3 924.4C156.4 893.3 118.7 873.9 80.6999 874.1C70.7999 874.2 60.8 875.5 51.1 873.4C49 873 47 872.3 45 871.5C32.8 866.4 30.2 850 40.2 841.4C45.7 836.6 52.3 833 58.9 830.6C70.8 826.2 83.5999 823.8 94.6999 817.6C119.2 803.9 131.3 774.3 155.3 759.8C168.9 751.6 185 749 200.6 746.5C211.3 744.8 222.8 743.2 232.7 747.8C240.4 751.4 246 760.3 245.1 768.1C243.9 778.2 243.8 788.5 245.7 798.5C253.3 838.1 272.8 875.3 302.1 903.2C314.4 914.9 326.2 927 341.9 933.1C357.7 939.3 374.5 944.4 387.1 955.8C399.9 967.3 406.7 983.7 412.4 1000.1" stroke="white" stroke-width="1.5" stroke-miterlimit="10" stroke-linecap="round"/>
<path d="M0 686.4C68.8 697.9 141.2 687.6 204 657C220.2 649.1 236.6 639.7 254.6 639.1C281.8 638.2 306.5 658.6 317.1 683.7C327.6 708.8 326.2 737.4 320.3 763.9C317.4 776.7 313.5 789.8 315.5 802.8C318.7 823.7 338.8 840.6 360 840.1C387.4 839.4 413.2 856 433 874.9C457 897.8 461.8 934 477.8 963C482.3 971.2 494.4 970.2 497.6 961.4C497.6 961.3 497.7 961.3 497.7 961.2C501.1 951.9 504.5 942.6 507.8 933.3C511.1 924.2 513.6 914 517.9 905.4C524.5 892.3 544.2 889 557.2 887.9C571.4 886.7 586.4 887.1 599.2 880.8C606.8 877.1 613.2 871.3 619.9 866.1C626.6 860.9 634 856.1 642.4 854.8C662.8 851.7 676.4 834.3 685 815.5C693.6 796.7 696.9 776.1 702 756.1C707.1 736.1 714.5 715.8 729.3 701.4C744.1 687 764.6 680 785 676.6C805.4 673.3 826.1 673.2 846.6 670.4C876.8 666.2 905.8 655.9 935.3 648.1C956.5 642.4 978.4 638 1000.3 638" stroke="white" stroke-width="1.5" stroke-miterlimit="10" stroke-linecap="round"/>
<path d="M0 795.3C20.3 784.9 36.9 767.4 45.9 746.5C50.5 735.8 53.6 723.8 62.5 716.3C69.5 710.4 78.9 708.5 87.9 706.8C117.5 701.2 152.8 705.2 176.9 687.1C188.2 678.6 199.6 670.1 212.2 663.7C224.8 657.3 238.9 653.2 253 654.2C266.5 655.1 279.6 660.8 289.4 670C314.7 693.5 312.4 731.9 306.1 762.9C303.7 774.5 300.3 785.9 298.9 797.6C297.5 809.3 298.3 821.7 304 832.1C309.7 842.5 321.7 851.8 333.5 850.8C362.5 856.2 389.9 870.2 411.2 890.7C424.7 903.6 435.7 919.1 443.7 936C450.9 951.3 453.7 967.8 465.2 980.8C469.7 985.9 476 989.7 482.8 990.2C492.4 990.9 501.5 984.8 507.1 977C512.7 969.2 515.6 959.8 518.5 950.6C521.4 941.4 524.5 932 530.6 924.6C538.6 914.8 551.8 907.3 564.5 908.7C599.4 912.6 633.5 894.1 658.5 869.4C693.2 835.1 715 787.1 721.6 738.7C723.8 722.9 736.7 710.4 751.3 704.1C765.9 697.8 782.1 696.5 797.9 695C866.2 688.5 933.8 675.7 999.8 657" stroke="white" stroke-width="1.5" stroke-miterlimit="10" stroke-linecap="round"/>
<path d="M0 704C6.5 704.7 12.9 705.9 18.7 708.7C26.9 712.7 33.7 720.6 33.6 729.7C33.5 737.1 29 743.6 24.2 749.3C17.1 757.6 8.9 765 0 771.4" stroke="white" stroke-width="1.5" stroke-miterlimit="10" stroke-linecap="round"/>
<path d="M0 820.9C22.6 810.5 45.2 798.6 59.6 778.6C69.5 764.8 75.1 747.9 87.2 736C102.1 721.4 124.1 717.2 144.8 714.3C165.5 711.4 187.4 708.5 203.7 695.5C213 688.1 223.2 680.8 234.3 676.5C245.4 672.1 258.3 671.1 268.9 676.4C281.2 682.6 288.3 696.3 289.8 709.9C291.4 723.5 288.3 737.3 284.7 750.5C281.1 763.7 276.9 777 276.4 790.8C275.7 809.7 282.1 828.7 294.1 843.3C306.1 857.8 323.6 867.8 342.3 870.6C376.4 875.8 408.8 898.1 424.3 929C435.6 951.5 438.3 978.1 450 1000" stroke="white" stroke-width="1.5" stroke-miterlimit="10" stroke-linecap="round"/>
<path d="M0 941.4C8.2 947.1 16.2 953.1 24.3 958.9C36.1 967.4 48.4 975.5 62 980.9C75.5 986.3 90.5 989 104.8 986.4C119.1 983.8 132.8 975.4 139.8 962.6C146.9 949.8 149.8 928.8 138.2 920C121.5 907.4 99.8 903.8 79.1 900.4C58.4 897 36.7 892.9 20.6 879.5C14.5 874.4 9.2 868 6.9 860.4C4.6 852.8 5.4 844 10.3 837.7C14.1 832.7 19.9 829.8 25.6 827C41.7 819 61.2 814.8 74.2 802.4C91.2 786.3 102.7 764.7 120.9 749.9C142.1 732.7 172.3 730.9 196.4 718.1C207.4 712.3 219.8 708.4 232.1 710C244.4 711.5 256.4 719.3 260.3 731.1C263.4 740.4 261.2 750.5 260.1 760.2C256.2 792.1 261.4 826.7 281.1 852.1C299.3 875.5 323.3 894.4 350.5 906.4C361.2 911.2 372.7 915 381.6 922.6C389.5 929.3 394.8 938.4 400.1 947.3C410.4 964.8 420.6 982.4 430.9 999.9" stroke="white" stroke-width="1.5" stroke-miterlimit="10" stroke-linecap="round"/>
<path d="M0 888.3C25.7 904.2 55.1 913.9 85.2 916.6C92.7 917.3 100.3 917.5 107.5 919.7C114.7 921.9 121.7 926.3 124.9 933.1C128.6 940.9 126.6 950.5 121.3 957.3C116 964.1 108 968.2 99.6 970.3C97.5 970.8 95.4 971.2 93.3 971.6C82.2 973.3 70.9 971 61.3 965.4C41 953.7 20.2 942.8 0 931" stroke="white" stroke-width="3" stroke-miterlimit="10" stroke-linecap="round"/>
<path d="M101.5 930.1C106.5 932.2 111.6 935.7 112.8 941C113.6 944.7 112.2 948.6 109.9 951.4C107.5 954.3 104.2 956.3 100.8 957.8C85.1001 964.7 65.4001 961 53.3001 948.9C50.5001 946.1 48.0001 942.6 48.1001 938.7C48.5001 928 61.9001 928 69.4001 926.5C80.1001 924.5 91.5001 925.9 101.5 930.1Z" stroke="white" stroke-width="1.5" stroke-miterlimit="10" stroke-linecap="round"/>
<path d="M0 960.1C18.1 972 35.2 985.3 51.1 1000" stroke="white" stroke-width="1.5" stroke-miterlimit="10" stroke-linecap="round"/>
<path d="M0 982C8.2 986.6 15.5 992.8 21.5 1000" stroke="white" stroke-width="1.5" stroke-miterlimit="10" stroke-linecap="round"/>
<path d="M525 1000C528.5 989.3 528.3 977.3 529.2 965.9C530.3 952.3 534.2 937.3 545.8 930C552.8 925.5 561.5 924.6 569.8 923.9C577.8 923.2 585.7 922.5 593.7 921.7C618.7 919.5 642 908.2 659.3 890C669.6 879.1 680 868.2 690.3 857.7C701.5 846.4 713.5 833.9 718 818.3C723.1 800.7 722.9 782.1 728.6 764.5C733.6 749.5 741.8 735.1 754.4 725.4C773.5 710.6 799.4 708.7 823.6 707.5C845.5 706.4 867.5 713.2 883.4 728.3C888.8 733.5 898.7 731.5 905.1 727.8C911.1 724.3 915.6 718.8 920.4 713.6C941.3 691.3 969.9 676.6 1000.1 672.1" stroke="white" stroke-width="1.5" stroke-miterlimit="10" stroke-linecap="round"/>
<path d="M539.2 1000C538.4 982.6 544.7 964.8 556.7 952.1C570.7 937.3 591.8 929.8 612 932.4C624.5 934 637.3 928.4 647.5 921C657.7 913.6 665.6 903.6 673.4 893.8C682.1 882.8 691.3 870.3 703.3 862.9C715.9 855.1 725.7 843.7 730.1 829.3C733.8 816.9 733.3 803.6 735.5 790.9C740.5 761.7 760.9 735.6 787.9 723.6C801.8 717.4 819.3 720.3 833.7 725.4C861.6 735.4 879.9 761.5 902.8 780.4C908.7 785.2 918.4 779.8 921.7 773C925 766.1 924.6 758.2 926 750.7C929.4 732.3 943.3 717.3 959.6 708C972.2 700.8 986.1 696.6 1000.3 693.1" stroke="white" stroke-width="1.5" stroke-miterlimit="10" stroke-linecap="round"/>
<path d="M549.9 1000C552.7 980.6 565.5 962.6 583.5 954.6C596.9 948.6 612.1 948 626.3 944.3C644.7 939.5 661.6 929.3 674.7 915.5C681.4 908.5 686.3 901.3 689.8 892.5C693.6 883.1 702.1 876.5 710.4 871.4C720 865.6 730.4 860.7 737.9 852.4C748.4 840.8 751.4 824.5 753.4 809C755.4 793.5 757 777.3 765.4 764.2C777.1 746.1 800.5 737.7 821.8 740.7C843.1 743.7 862.1 756.7 875.9 773.2C883.4 782.2 891.3 790 895.3 801C897.2 806.1 898.5 811.6 902.2 815.6C907 820.7 914.4 822 921.2 823.7C934 826.8 946.2 832.1 957.1 839.4C960.8 841.9 966.4 842.4 970.3 840.2C974.2 838 976.3 833.1 975.4 828.7C974.6 825.2 972.1 821.9 972.8 818.4C973.5 815.4 976.4 813.4 979.1 811.8C986 807.7 992.9 803.6 999.8 799.5" stroke="white" stroke-width="1.5" stroke-miterlimit="10" stroke-linecap="round"/>
<path d="M1000 706.1C973.3 712.3 949.8 731.6 939.1 756.9C935.3 765.9 932.9 775.7 926.7 783.2C923.8 786.8 919.8 790.2 919.6 794.8C919.3 800.7 925.2 804.9 930.3 807.8C938.1 812.3 946.9 816.9 955.5 814.6C962.8 812.7 967.8 806.4 973.2 801.1C980.9 793.5 990 787.4 1000 783.2" stroke="white" stroke-width="1.5" stroke-miterlimit="10" stroke-linecap="round"/>
<path d="M1000 724.2C978.7 734.7 960.6 751.5 948.7 772.1C946.9 775.2 945.2 778.5 944.8 782C944.3 785.5 945.3 789.5 948.1 791.7C951.3 794.3 956.1 794.1 959.9 792.3C963.7 790.5 966.6 787.4 969.7 784.6C978.7 776.2 989 769.2 1000.1 763.8" stroke="white" stroke-width="1.5" stroke-miterlimit="10" stroke-linecap="round"/>
<path d="M572.7 1000C577.5 989.4 585.5 980.2 595.7 974.5C607.4 968 620.9 966 633.6 962.1C668.1 951.4 690.8 919.8 714.8 892.8C727.4 878.6 750.8 876.6 760.8 860.4C768.7 847.7 765 831.3 766.9 816.4C769.5 795.6 784.1 775.6 804.4 770.4C821.2 766.1 839.6 768.9 854.4 777.9C869.2 786.9 874.5 804.2 883.2 819.2C894.2 838.2 915.9 848 936.1 856.5C948.5 861.8 961.4 867.1 974.8 866.7C984.1 866.4 993.8 862.5 1000 855.8" stroke="white" stroke-width="3" stroke-miterlimit="10" stroke-linecap="round"/>
<path d="M603.9 1000C607.4 990.3 615 982 624.6 978.2C633.4 974.6 643.1 974.6 652.2 971.9C663.8 968.5 673.8 960.9 682.4 952.3C690.9 943.7 698.3 934 706.6 925.1C722.8 907.6 742.5 893.4 764 883.4C780.4 875.8 792.1 860.6 795.2 842.8C795.2 842.7 795.2 842.6 795.3 842.5C797.3 831 801.6 818.4 811.9 812.9C822 807.5 835.1 810.9 843.9 818.2C852.8 825.4 858.4 835.7 863.9 845.8C867.2 851.9 872.5 856.7 879 859.2C885.6 861.8 892.6 862.9 899.5 864.3C934.9 871.3 969 884.4 1000.1 902.7" stroke="white" stroke-width="1.5" stroke-miterlimit="10" stroke-linecap="round"/>
<path d="M618.2 1000C621.8 995.5 627.7 992.2 633.5 990.8C642.9 988.6 652.8 989.3 661.9 986.2C672 982.7 679.8 974.8 687.2 967.2C701.6 952.4 716.1 937.5 730.5 922.7C741.1 911.8 756.8 906.3 770.4 899.3C783.9 892.3 797.3 883.3 804.2 869.7C807.1 864 808.7 857.7 811.7 852.1C814.7 846.5 819.5 841.3 825.8 840.3C834.6 838.9 842.4 846 847.5 853.3C852.6 860.6 856.9 869.1 864.8 873.2C876.2 879.2 887.6 889.3 900.3 891.8C912.9 894.4 925.9 895 938.6 897.1C960.3 900.6 981.2 908.4 1000 919.7" stroke="white" stroke-width="1.5" stroke-miterlimit="10" stroke-linecap="round"/>
<path d="M673.1 1000C682 995.5 690.5 990 698.6 984.1C716.9 970.8 733.6 955.4 752.2 942.6C759.5 937.6 769.6 934.9 775.1 928C794.3 903.5 827.6 891.1 858.1 896.9C879.1 900.9 897.9 912.7 918.8 917.1C934 920.3 949.8 919.5 965.2 921.5C977.8 923.2 990.9 927.3 1000.1 935.7" stroke="white" stroke-width="3" stroke-miterlimit="10" stroke-linecap="round"/>
<path d="M806.6 1000C814.8 984.9 822.9 969.7 831.1 954.6C835.3 946.7 839.7 938.7 845.9 932.3C852.1 925.8 860.5 921 869.4 921C877.4 921 884.7 924.9 892.2 927.6C911.1 934.4 931.7 934.1 951.6 936.2C968.8 938 986.7 942.3 999.9 953" stroke="white" stroke-width="1.5" stroke-miterlimit="10" stroke-linecap="round"/>
<path d="M690.9 1000C720.5 985 748.4 966.7 774 945.6C784 937.4 794.2 928.4 806.9 925.8C813.7 924.4 822.5 926.1 824.7 932.8C826.7 939.1 821.6 945.2 817.1 950C803.1 965 791.1 981.9 781.6 1000" stroke="white" stroke-width="1.5" stroke-miterlimit="10" stroke-linecap="round"/>
<path d="M716.9 1000C733 992.9 748 983.4 761.4 972C763.9 969.8 766.5 967.6 769.5 966.3C772.6 965.1 776.4 965.1 778.9 967.3C781.4 969.4 781.9 973.2 781.2 976.3C780.4 979.5 778.6 982.3 776.7 984.9C773.3 989.9 769.8 994.9 766.4 999.9" stroke="white" stroke-width="1.5" stroke-miterlimit="10" stroke-linecap="round"/>
<path d="M825.3 1000C830.1 991.3 834 982 838.7 973.1C844.9 961.3 853.2 949.9 865.2 944.1C878.7 937.6 894.5 939.1 909.4 940.9C927.2 943 945 945 962.2 949.9C975.6 953.7 988.6 959.3 999.9 967.3" stroke="white" stroke-width="1.5" stroke-miterlimit="10" stroke-linecap="round"/>
<path d="M839 1000C844.6 989.4 850.9 979.1 859.5 970.8C870.9 959.9 887.3 953 902.5 957.1C910.1 959.2 916.9 963.8 924.7 965.3C933.1 966.9 941.7 964.6 950.2 963.8C968 962.3 986.2 968.4 1000 979.7" stroke="white" stroke-width="1.5" stroke-miterlimit="10" stroke-linecap="round"/>
<path d="M860.7 1000C866.9 992.5 876.2 987.4 885.7 984.9C898.1 981.7 911 982.2 923.8 982.8C938.8 983.5 953.9 984.2 968.4 988.2C977.5 990.7 986.3 994.5 993.9 1000" stroke="white" stroke-width="1.5" stroke-miterlimit="10" stroke-linecap="round"/>
</g>
<defs>
<clipPath id="clip0_1600_7084">
<rect width="1000" height="1000" fill="white"/>
</clipPath>
</defs>
</svg>
