<svg width="236" height="176" viewBox="0 0 236 176" fill="none" xmlns="http://www.w3.org/2000/svg">
<path d="M235.366 154.377H0.634277V154.494H235.366V154.377Z" fill="#EBEBEB"/>
<path d="M40.8108 158.846H25.2622V158.963H40.8108V158.846Z" fill="#EBEBEB"/>
<path d="M106.264 158.907H80.9785V159.024H106.264V158.907Z" fill="#EBEBEB"/>
<path d="M59.2986 161.269H50.2896V161.386H59.2986V161.269Z" fill="#EBEBEB"/>
<path d="M210.015 161.212H200.987V161.33H210.015V161.212Z" fill="#EBEBEB"/>
<path d="M196.805 161.212H182.584V161.33H196.805V161.212Z" fill="#EBEBEB"/>
<path d="M174.754 160.438H154.773V160.555H174.754V160.438Z" fill="#EBEBEB"/>
<path d="M111.897 133.439H21.2482C20.5381 133.437 19.8574 133.154 19.3557 132.652C18.854 132.149 18.5723 131.468 18.5723 130.758V3.33148C18.5784 2.62542 18.863 1.95031 19.364 1.45279C19.865 0.955271 20.5421 0.675526 21.2482 0.674316H111.897C112.608 0.674316 113.29 0.95674 113.792 1.45946C114.295 1.96217 114.578 2.644 114.578 3.35495V130.758C114.578 131.469 114.295 132.151 113.792 132.654C113.29 133.156 112.608 133.439 111.897 133.439ZM21.2482 0.76821C20.5692 0.769453 19.9184 1.04006 19.4387 1.52063C18.959 2.0012 18.6896 2.65247 18.6896 3.33148V130.758C18.6896 131.437 18.959 132.088 19.4387 132.569C19.9184 133.049 20.5692 133.32 21.2482 133.321H111.897C112.576 133.32 113.228 133.05 113.708 132.569C114.189 132.089 114.459 131.437 114.46 130.758V3.33148C114.459 2.65204 114.189 2.00078 113.708 1.52034C113.228 1.03991 112.576 0.769451 111.897 0.76821H21.2482Z" fill="#EBEBEB"/>
<path d="M213.447 133.439H122.793C122.083 133.437 121.402 133.155 120.899 132.652C120.397 132.15 120.114 131.469 120.113 130.758V3.33148C120.12 2.62499 120.406 1.94989 120.908 1.4525C121.409 0.955107 122.087 0.675513 122.793 0.674316H213.447C214.152 0.67676 214.828 0.957051 215.328 1.45444C215.828 1.95182 216.112 2.62623 216.118 3.33148V130.758C216.118 131.467 215.837 132.148 215.336 132.65C214.836 133.153 214.156 133.436 213.447 133.439ZM122.793 0.76821C122.114 0.769451 121.463 1.03991 120.982 1.52034C120.502 2.00078 120.231 2.65204 120.23 3.33148V130.758C120.231 131.437 120.502 132.089 120.982 132.569C121.463 133.05 122.114 133.32 122.793 133.321H213.447C214.126 133.32 214.778 133.05 215.258 132.569C215.738 132.089 216.009 131.437 216.01 130.758V3.33148C216.009 2.65204 215.738 2.00078 215.258 1.52034C214.778 1.03991 214.126 0.769451 213.447 0.76821H122.793Z" fill="#EBEBEB"/>
<path d="M197.753 17.5845H143.248V82.6615H197.753V17.5845Z" fill="#E6E6E6"/>
<path d="M199.114 17.5845H144.609V82.6615H199.114V17.5845Z" fill="#F5F5F5"/>
<path d="M196.673 79.9152V20.3262L147.055 20.3262V79.9152H196.673Z" fill="white"/>
<path d="M196.668 79.9152V20.3262H195.64V79.9152H196.668Z" fill="#E6E6E6"/>
<path d="M198.1 65.7983H145.619V69.4836H198.1V65.7983Z" fill="#F5F5F5"/>
<path d="M201.776 13.0447H140.586C140.486 13.0447 140.391 13.0842 140.32 13.1547C140.25 13.2251 140.21 13.3206 140.21 13.4203C140.21 13.5199 140.25 13.6154 140.32 13.6858C140.391 13.7563 140.486 13.7958 140.586 13.7958H201.776C201.876 13.7958 201.971 13.7563 202.041 13.6858C202.112 13.6154 202.152 13.5199 202.152 13.4203C202.152 13.3206 202.112 13.2251 202.041 13.1547C201.971 13.0842 201.876 13.0447 201.776 13.0447Z" fill="#E6E6E6"/>
<path d="M202.152 15.2982C203.189 15.2982 204.03 14.4574 204.03 13.4203C204.03 12.3832 203.189 11.5425 202.152 11.5425C201.115 11.5425 200.274 12.3832 200.274 13.4203C200.274 14.4574 201.115 15.2982 202.152 15.2982Z" fill="#E6E6E6"/>
<path d="M143.755 15.5234C143.621 15.5234 143.492 15.4699 143.397 15.3749C143.301 15.2798 143.248 15.1508 143.248 15.0163V13.9272C143.249 13.7931 143.303 13.6648 143.398 13.57C143.493 13.4752 143.621 13.4214 143.755 13.4202C143.89 13.4202 144.019 13.4736 144.114 13.5687C144.209 13.6638 144.262 13.7927 144.262 13.9272V15.0163C144.262 15.1508 144.209 15.2798 144.114 15.3749C144.019 15.4699 143.89 15.5234 143.755 15.5234Z" fill="#E6E6E6"/>
<path d="M196.105 15.5234C195.97 15.5234 195.841 15.4699 195.746 15.3749C195.651 15.2798 195.598 15.1508 195.598 15.0163V13.9272C195.599 13.7931 195.653 13.6648 195.748 13.57C195.842 13.4752 195.971 13.4214 196.105 13.4202C196.239 13.4202 196.368 13.4736 196.463 13.5687C196.558 13.6638 196.612 13.7927 196.612 13.9272V15.0163C196.612 15.1508 196.558 15.2798 196.463 15.3749C196.368 15.4699 196.239 15.5234 196.105 15.5234Z" fill="#E6E6E6"/>
<path opacity="0.5" d="M201.654 13.4202H145.619V40.7523H201.654V13.4202Z" fill="#E0E0E0"/>
<path d="M149.802 15.2982C150.839 15.2982 151.68 14.4574 151.68 13.4203C151.68 12.3832 150.839 11.5425 149.802 11.5425C148.765 11.5425 147.924 12.3832 147.924 13.4203C147.924 14.4574 148.765 15.2982 149.802 15.2982Z" fill="#E6E6E6"/>
<path d="M42.75 89.6517H22.8682L24.6287 66.3804H40.9895L42.75 89.6517Z" fill="#EBEBEB"/>
<path d="M38.3885 89.6517H34.9708L34.2432 66.3804H37.398L38.3885 89.6517Z" fill="#F5F5F5"/>
<path d="M33.8064 89.6519H31.8159V154.377H33.8064V89.6519Z" fill="#F0F0F0"/>
<path d="M33.5625 99.1865H32.0602C31.3291 99.1865 30.7363 99.7793 30.7363 100.51V105.398C30.7363 106.129 31.3291 106.721 32.0602 106.721H33.5625C34.2937 106.721 34.8864 106.129 34.8864 105.398V100.51C34.8864 99.7793 34.2937 99.1865 33.5625 99.1865Z" fill="#F0F0F0"/>
<path d="M33.5625 111.261H32.0602C31.3291 111.261 30.7363 111.854 30.7363 112.585V117.472C30.7363 118.203 31.3291 118.796 32.0602 118.796H33.5625C34.2937 118.796 34.8864 118.203 34.8864 117.472V112.585C34.8864 111.854 34.2937 111.261 33.5625 111.261Z" fill="#F0F0F0"/>
<path d="M35.9566 154.377H29.6611C29.6611 154.021 29.8026 153.679 30.0544 153.427C30.3062 153.176 30.6477 153.034 31.0038 153.034H34.614C34.9701 153.034 35.3116 153.176 35.5634 153.427C35.8152 153.679 35.9566 154.021 35.9566 154.377Z" fill="#F0F0F0"/>
<path d="M33.8064 89.6519H31.8159V90.8678H33.8064V89.6519Z" fill="#E0E0E0"/>
<path d="M45.8484 70.3428H100.794V15.2465L45.8484 15.2465L45.8484 70.3428Z" fill="#F0F0F0"/>
<path d="M45.8482 15.2466H44.8999V70.3428H45.8482V15.2466Z" fill="#E0E0E0"/>
<path d="M50.7026 66.8594H95.9448V18.7253L50.7026 18.7253L50.7026 66.8594Z" fill="#FAFAFA"/>
<path d="M70.7206 56.1931H75.9317C81.4491 56.1931 85.9219 51.7204 85.9219 46.2029V39.3816C85.9219 33.8642 81.4491 29.3914 75.9317 29.3914L70.7206 29.3914C65.2032 29.3914 60.7304 33.8642 60.7304 39.3816V46.2029C60.7304 51.7204 65.2032 56.1931 70.7206 56.1931Z" fill="#F5F5F5"/>
<path d="M191.95 91.0178H171.036V154.372H191.95V91.0178Z" fill="#E6E6E6"/>
<path d="M181.739 154.377H191.95V145.631H171.036L181.739 154.377Z" fill="#FAFAFA"/>
<path d="M108.541 91.0178H87.626V154.372H108.541V91.0178Z" fill="#E6E6E6"/>
<path d="M191.945 91.0178H99.6299V151.363H191.945V91.0178Z" fill="#FAFAFA"/>
<path d="M109.841 154.377H99.6348V145.631H120.549L109.841 154.377Z" fill="#FAFAFA"/>
<path d="M184.03 113.505H107.555V128.608H184.03V113.505Z" fill="#F0F0F0"/>
<path d="M184.03 131.838H107.555V146.941H184.03V131.838Z" fill="#F0F0F0"/>
<path d="M165.815 115.12H125.765C124.991 115.12 124.248 114.813 123.7 114.265C123.153 113.717 122.845 112.975 122.845 112.2H168.735C168.736 112.584 168.661 112.964 168.514 113.318C168.368 113.673 168.153 113.995 167.881 114.266C167.61 114.538 167.288 114.753 166.933 114.899C166.579 115.046 166.199 115.121 165.815 115.12Z" fill="#FAFAFA"/>
<path d="M184.03 95.1772H107.555V110.28H184.03V95.1772Z" fill="#F0F0F0"/>
<path d="M165.815 96.7924H125.765C124.99 96.7912 124.248 96.4825 123.7 95.9341C123.153 95.3858 122.845 94.6426 122.845 93.8677H168.735C168.736 94.2515 168.661 94.6318 168.514 94.9866C168.368 95.3414 168.153 95.6639 167.882 95.9355C167.61 96.2072 167.288 96.4227 166.934 96.5697C166.579 96.7167 166.199 96.7924 165.815 96.7924Z" fill="#FAFAFA"/>
<path d="M165.815 133.453H125.765C124.99 133.452 124.248 133.143 123.7 132.595C123.153 132.046 122.845 131.303 122.845 130.528H168.735C168.736 130.912 168.661 131.292 168.514 131.647C168.368 132.002 168.153 132.324 167.882 132.596C167.61 132.868 167.288 133.083 166.934 133.23C166.579 133.377 166.199 133.453 165.815 133.453Z" fill="#FAFAFA"/>
<path d="M118 175.578C168.272 175.578 209.025 173.199 209.025 170.264C209.025 167.329 168.272 164.949 118 164.949C67.7291 164.949 26.9761 167.329 26.9761 170.264C26.9761 173.199 67.7291 175.578 118 175.578Z" fill="#F5F5F5"/>
<path d="M36.1025 76.9575H106.165C104.086 76.9319 102.092 76.1247 100.58 74.6965C99.0686 73.2683 98.1496 71.3236 98.006 69.2489L96.7666 48.3672H26.7085L27.9432 69.2489C28.0869 71.3236 29.0059 73.2683 30.5176 74.6965C32.0293 76.1247 34.023 76.9319 36.1025 76.9575Z" fill="#0A6EBD"/>
<path opacity="0.6" d="M36.1025 76.9575H106.165C104.086 76.9319 102.092 76.1247 100.58 74.6965C99.0686 73.2683 98.1496 71.3236 98.006 69.2489L96.7666 48.3672H26.7085L27.9432 69.2489C28.0869 71.3236 29.0059 73.2683 30.5176 74.6965C32.0293 76.1247 34.023 76.9319 36.1025 76.9575Z" fill="white"/>
<path d="M111.357 34.4757H48.989C47.9948 34.464 47.0089 34.6589 46.0938 35.0479C45.1788 35.437 44.3544 36.0118 43.6731 36.736C42.9917 37.4602 42.4681 38.3179 42.1354 39.255C41.8028 40.192 41.6683 41.1879 41.7405 42.1796L43.3555 69.2536C43.4291 70.2457 43.2956 71.2422 42.9635 72.1798C42.6314 73.1175 42.1078 73.9759 41.4262 74.7003C40.7445 75.4248 39.9196 75.9996 39.0039 76.3882C38.0881 76.7768 37.1016 76.9707 36.1069 76.9575H106.165C107.16 76.9707 108.146 76.7768 109.062 76.3882C109.978 75.9996 110.803 75.4248 111.484 74.7003C112.166 73.9759 112.689 73.1175 113.022 72.1798C113.354 71.2422 113.487 70.2457 113.414 69.2536L113.587 72.1831L111.813 42.1984C111.736 41.2049 111.868 40.2063 112.199 39.2664C112.53 38.3265 113.053 37.4658 113.735 36.7392C114.417 36.0127 115.242 35.4362 116.159 35.0465C117.077 34.6567 118.065 34.4624 119.061 34.4757H111.357Z" fill="#0A6EBD"/>
<path d="M119.061 34.4758H48.9893C51.0687 34.4993 53.0629 35.305 54.575 36.7327C56.087 38.1603 57.0059 40.1051 57.1485 42.1797L63.1811 143.908H133.239L127.221 42.1985C127.08 40.1213 126.163 38.1732 124.651 36.742C123.139 35.3109 121.143 34.5018 119.061 34.4758Z" fill="#0A6EBD"/>
<path opacity="0.8" d="M119.061 34.4758H48.9893C51.0687 34.4993 53.0629 35.305 54.575 36.7327C56.087 38.1603 57.0059 40.1051 57.1485 42.1797L63.1811 143.908H133.239L127.221 42.1985C127.08 40.1213 126.163 38.1732 124.651 36.742C123.139 35.3109 121.143 34.5018 119.061 34.4758Z" fill="white"/>
<path d="M80.7533 63.4323H67.7679L66.9839 50.4375H79.9739L80.7533 63.4323ZM69.1763 61.9018H79.1148L78.5656 51.9633H68.6082L69.1763 61.9018Z" fill="white"/>
<path d="M82.5653 93.999H69.5658L68.7959 80.9995H81.7954L82.5653 93.999ZM71.0024 92.4685H80.9409L80.3541 82.53H70.4155L71.0024 92.4685Z" fill="white"/>
<path d="M84.3726 124.566H71.3732L70.5845 111.566H83.5839L84.3726 124.566ZM72.8144 123.035H82.753L82.1615 113.097H72.2229L72.8144 123.035Z" fill="white"/>
<path d="M116.986 50.4329H87.1001V51.9633H116.986V50.4329Z" fill="white"/>
<path d="M113.813 56.1697H87.4385V57.7001H113.813V56.1697Z" fill="white"/>
<path d="M117.662 61.9019H87.7764V63.4323H117.662V61.9019Z" fill="white"/>
<path d="M118.794 80.9995H88.9077V82.53H118.794V80.9995Z" fill="white"/>
<path d="M106.789 86.7363H89.2456V88.2668H106.789V86.7363Z" fill="white"/>
<path d="M98.6443 92.4685H89.5884V93.999H98.6443V92.4685Z" fill="white"/>
<path d="M119.475 92.4685H104.532V93.999H119.475V92.4685Z" fill="white"/>
<path d="M120.601 111.566H90.7153V113.097H120.601V111.566Z" fill="white"/>
<path d="M120.944 117.303H91.0581V118.834H120.944V117.303Z" fill="white"/>
<path d="M107.926 123.035H91.396V124.566H107.926V123.035Z" fill="white"/>
<path d="M75.1057 60.3713C74.7809 60.3716 74.4683 60.2473 74.2325 60.0239L71.0542 57.0099C70.9328 56.8949 70.8352 56.7571 70.767 56.6044C70.6988 56.4517 70.6613 56.2871 70.6567 56.1199C70.6475 55.7823 70.7727 55.4548 71.005 55.2095C71.2372 54.9642 71.5573 54.8212 71.8949 54.812C72.2326 54.8027 72.5601 54.928 72.8053 55.1602L75.0682 57.2963L80.1618 51.8834C80.3934 51.6374 80.7132 51.4936 81.0509 51.4835C81.3885 51.4734 81.7163 51.5978 81.9622 51.8294C82.2081 52.061 82.352 52.3807 82.3621 52.7184C82.3722 53.056 82.2478 53.3839 82.0162 53.6298L76.0493 59.9722C75.935 60.0951 75.7971 60.1937 75.6438 60.2622C75.4906 60.3308 75.3252 60.3679 75.1574 60.3713H75.1057Z" fill="#0A6EBD"/>
<path d="M76.9177 90.9382C76.5927 90.9395 76.2798 90.815 76.0445 90.5907L72.8521 87.5768C72.7264 87.4632 72.6246 87.3257 72.5527 87.1722C72.4809 87.0188 72.4404 86.8525 72.4336 86.6832C72.4269 86.5139 72.454 86.3449 72.5135 86.1863C72.5729 86.0276 72.6635 85.8824 72.7798 85.7592C72.8961 85.636 73.0359 85.5373 73.1909 85.4688C73.3459 85.4003 73.513 85.3636 73.6824 85.3606C73.8518 85.3576 74.0201 85.3885 74.1775 85.4514C74.3348 85.5143 74.4779 85.6081 74.5985 85.7271L76.8661 87.8632L81.955 82.4502C82.1866 82.2043 82.5064 82.0605 82.8441 82.0504C83.1817 82.0403 83.5095 82.1647 83.7554 82.3963C84.0013 82.6278 84.1452 82.9476 84.1553 83.2853C84.1654 83.6229 84.041 83.9507 83.8094 84.1967L77.8425 90.5391C77.7289 90.6616 77.5918 90.76 77.4394 90.8286C77.2869 90.8971 77.1223 90.9344 76.9553 90.9382H76.9177Z" fill="#0A6EBD"/>
<path d="M78.7253 121.51C78.3997 121.509 78.0869 121.383 77.8521 121.158L74.6598 118.144C74.534 118.03 74.4322 117.893 74.3603 117.739C74.2885 117.586 74.248 117.419 74.2412 117.25C74.2345 117.081 74.2617 116.912 74.3211 116.753C74.3805 116.594 74.4711 116.449 74.5874 116.326C74.7037 116.203 74.8435 116.104 74.9985 116.036C75.1535 115.967 75.3206 115.93 75.49 115.927C75.6595 115.924 75.8278 115.955 75.9851 116.018C76.1424 116.081 76.2856 116.175 76.4062 116.294L78.6737 118.43L83.7674 113.017C84.0059 112.812 84.3118 112.703 84.6261 112.71C84.9405 112.718 85.241 112.841 85.4696 113.057C85.6983 113.273 85.8389 113.566 85.8644 113.879C85.8899 114.192 85.7984 114.504 85.6077 114.754L79.6408 121.097C79.5259 121.219 79.3879 121.317 79.2348 121.386C79.0817 121.454 78.9165 121.491 78.7488 121.496L78.7253 121.51Z" fill="#0A6EBD"/>
<path d="M146.054 49.5566L136.936 51.7979L164.146 162.493L173.264 160.252L146.054 49.5566Z" fill="#0A6EBD"/>
<path opacity="0.2" d="M146.049 49.5558L143.273 50.2383L170.483 160.934L173.259 160.251L146.049 49.5558Z" fill="black"/>
<path d="M172.575 161.899L165.509 163.636C164.942 163.775 164.596 164.347 164.735 164.913L165.918 169.728C166.058 170.294 166.63 170.641 167.196 170.501L174.263 168.764C174.829 168.625 175.176 168.053 175.036 167.486L173.853 162.672C173.714 162.106 173.142 161.759 172.575 161.899Z" fill="#0A6EBD"/>
<path opacity="0.7" d="M172.575 161.899L165.509 163.636C164.942 163.775 164.596 164.347 164.735 164.913L165.918 169.728C166.058 170.294 166.63 170.641 167.196 170.501L174.263 168.764C174.829 168.625 175.176 168.053 175.036 167.486L173.853 162.672C173.714 162.106 173.142 161.759 172.575 161.899Z" fill="white"/>
<path d="M172.629 158.659L163.963 160.789C163.439 160.918 163.119 161.447 163.248 161.971L164.023 165.125C164.152 165.649 164.681 165.969 165.205 165.841L173.871 163.71C174.395 163.582 174.715 163.053 174.586 162.529L173.811 159.374C173.682 158.851 173.153 158.53 172.629 158.659Z" fill="#E0E0E0"/>
<path d="M146.055 49.5456L136.938 51.7896L138.009 44.1609L138.694 39.269L141.572 43.283L146.055 49.5456Z" fill="#E0E0E0"/>
<path d="M141.572 43.283L138.009 44.1609L138.694 39.269L141.572 43.283Z" fill="#0A6EBD"/>
<path d="M169.604 42.3064C169.557 45.1232 169.012 50.4328 170.496 52.1651C167.086 53.2865 164.029 55.2805 161.628 57.9489C159.595 54.6251 162.247 52.8365 162.247 52.8365C165.172 51.8975 164.994 49.6958 164.379 47.6724L169.604 42.3064Z" fill="#FFB573"/>
<path d="M160.764 55.0804C161.538 52.2026 159.355 51.7942 162.994 50.3858C165.839 49.259 171.214 49.0994 172.477 50.0055C173.176 50.5125 172.214 52.2871 172.214 52.2871L160.764 55.0804Z" fill="#263238"/>
<path d="M176.533 54.4608C176.744 54.7988 176.894 55.057 177.063 55.3527C177.232 55.6485 177.373 55.9208 177.533 56.2072C177.833 56.7799 178.115 57.3527 178.387 57.9348C178.932 59.0944 179.406 60.2821 179.842 61.4839C180.719 63.9183 181.348 66.4348 181.72 68.9954L181.842 69.9625C181.866 70.0986 181.884 70.3427 181.899 70.554C181.913 70.7652 181.899 70.9577 181.899 71.1455C181.888 71.8381 181.836 72.5294 181.744 73.2158C181.579 74.5116 181.33 75.7369 181.058 76.9716C180.504 79.3797 179.803 81.7518 178.96 84.0745C178.848 84.3895 178.625 84.6528 178.333 84.8154C178.041 84.978 177.699 85.0286 177.373 84.9579C177.046 84.8871 176.756 84.6998 176.558 84.431C176.359 84.1621 176.265 83.8302 176.293 83.4971C176.481 81.1122 176.702 78.7086 176.875 76.3612C176.96 75.1876 177.026 74.0139 177.044 72.906C177.044 72.3567 177.044 71.8121 176.993 71.3568L176.95 71.0422L176.889 70.7371L176.716 69.9202C176.214 67.7201 175.539 65.5632 174.697 63.4698C174.274 62.4182 173.819 61.376 173.34 60.3478C173.102 59.8314 172.854 59.3244 172.594 58.8268L172.199 58.085L171.829 57.4043L171.763 57.2822C171.421 56.6519 171.338 55.913 171.532 55.2225C171.726 54.532 172.181 53.9444 172.802 53.5844C173.422 53.2244 174.158 53.1205 174.854 53.2946C175.55 53.4688 176.15 53.9073 176.528 54.5171L176.533 54.4608Z" fill="#FFB573"/>
<path d="M175.275 85.0229L175.664 84.3751L176.763 82.5254L178.777 83.6662C179.195 85.544 177.918 87.2059 177.918 87.2059L177.35 87.6754C177.156 87.8438 176.906 87.9322 176.649 87.9226C176.393 87.913 176.15 87.8062 175.97 87.6238L175.533 87.22C175.258 86.9309 175.085 86.5606 175.038 86.1645C174.991 85.7684 175.075 85.3679 175.275 85.0229Z" fill="#FFB573"/>
<path d="M148.515 84.0651L148.191 82.8915C148.115 82.6154 147.934 82.3801 147.687 82.2362C147.439 82.0922 147.145 82.0511 146.868 82.1216L145.459 82.483L144.591 82.699C144.134 82.8182 143.728 83.0828 143.435 83.453C143.142 83.8231 142.978 84.2786 142.966 84.7505V85.45C142.964 85.7547 143.078 86.0488 143.285 86.2728C143.491 86.4968 143.775 86.634 144.079 86.6566L144.947 86.7411C146.25 86.5335 147.445 85.8916 148.337 84.9196C148.434 84.8022 148.5 84.6632 148.532 84.5143C148.563 84.3655 148.557 84.2114 148.515 84.0651Z" fill="#FFB573"/>
<path d="M174.185 52.3952C176.65 53.489 178.908 56.0945 180.758 60.9159C180.166 62.9018 174.059 66.1551 174.059 66.1551C174.059 66.1551 166.439 50.0009 174.185 52.3952Z" fill="#0A6EBD"/>
<path d="M153.796 58.5685C153.82 60.3571 150.858 64.5025 154.266 66.9062C154.562 70.5257 154.961 74.0889 155.735 80.0277H173.965C172.232 73.4552 173.73 69.0422 176.509 57.4934C176.668 56.8728 176.691 56.2253 176.576 55.5951C176.461 54.9649 176.211 54.367 175.844 53.8422C175.477 53.3175 175 52.8783 174.447 52.5548C173.894 52.2313 173.278 52.031 172.641 51.9678C171.913 51.8974 171.143 51.8364 170.359 51.7941C167.602 51.5966 164.835 51.5966 162.078 51.7941C161.181 51.8739 160.256 51.9866 159.369 52.1087C157.818 52.3346 156.401 53.1123 155.377 54.2989C154.354 55.4854 153.792 57.0014 153.796 58.5685Z" fill="#0A6EBD"/>
<path d="M159.834 56.8268C159.876 58.1695 159.834 59.4558 159.834 60.7703C159.834 62.0848 159.749 63.3853 159.665 64.6998C159.519 67.3647 159.206 70.0177 158.726 72.6431C158.67 72.9764 158.58 73.3238 158.501 73.6618C158.421 73.9998 158.35 74.3378 158.242 74.6946L158.092 75.2157L158.012 75.4786C157.982 75.5967 157.944 75.7127 157.9 75.826C157.703 76.3317 157.434 76.8061 157.102 77.2344C156.644 77.8286 156.143 78.3888 155.604 78.9104C155.111 79.4034 154.609 79.8493 154.102 80.3188C152.105 82.0388 149.984 83.608 147.755 85.0134C147.475 85.1893 147.141 85.2588 146.814 85.2094C146.487 85.16 146.189 84.995 145.974 84.7443C145.758 84.4936 145.64 84.1739 145.64 83.8434C145.64 83.5129 145.759 83.1934 145.975 82.9431C147.651 81.0324 149.379 79.1358 150.989 77.2579C151.384 76.7884 151.768 76.319 152.135 75.8495C152.478 75.4325 152.792 74.9917 153.074 74.5303C153.186 74.3566 153.257 74.1454 153.196 74.2627C153.135 74.3801 153.196 74.2017 153.196 74.1501L153.238 73.9435L153.327 73.5351C153.393 73.2722 153.43 72.9764 153.477 72.69C153.524 72.4037 153.581 72.1173 153.609 71.8168C153.928 69.446 154.078 66.9485 154.167 64.4509C154.257 61.9534 154.313 59.4089 154.327 56.9395C154.323 56.5776 154.39 56.2185 154.525 55.8826C154.66 55.5467 154.86 55.2407 155.113 54.982C155.624 54.4594 156.321 54.1613 157.052 54.1532C157.783 54.1452 158.487 54.4277 159.01 54.9388C159.532 55.4499 159.83 56.1476 159.839 56.8785L159.834 56.8268Z" fill="#FFB573"/>
<path d="M157.825 52.5266C155.576 53.644 153.346 55.8129 152.421 60.7798C153.008 62.7469 161.045 66.5354 161.045 66.5354C161.045 66.5354 165.519 49.6535 157.825 52.5266Z" fill="#0A6EBD"/>
<path d="M158.317 40.5131C158.379 40.8652 158.238 41.1938 158.003 41.2361C157.768 41.2783 157.533 41.0342 157.472 40.6774C157.411 40.3206 157.557 39.9967 157.787 39.9545C158.017 39.9122 158.261 40.1563 158.317 40.5131Z" fill="#263238"/>
<path d="M157.904 39.9496L157.008 39.8745C157.008 39.8745 157.548 40.452 157.904 39.9496Z" fill="#263238"/>
<path d="M158.233 40.9072C158.049 41.7825 157.747 42.6289 157.336 43.4236C157.542 43.5196 157.767 43.5694 157.994 43.5694C158.221 43.5694 158.445 43.5196 158.651 43.4236L158.233 40.9072Z" fill="#ED893E"/>
<path d="M157.388 38.0905C157.334 38.0901 157.282 38.07 157.242 38.0342C157.223 38.0145 157.207 37.9911 157.196 37.9653C157.185 37.9395 157.18 37.9119 157.18 37.8839C157.18 37.856 157.185 37.8283 157.196 37.8025C157.207 37.7767 157.223 37.7534 157.242 37.7337C157.472 37.4811 157.758 37.2865 158.077 37.1657C158.396 37.0449 158.739 37.0015 159.078 37.0389C159.105 37.044 159.131 37.0543 159.153 37.0694C159.176 37.0844 159.196 37.1039 159.211 37.1266C159.227 37.1493 159.237 37.1748 159.243 37.2017C159.248 37.2285 159.248 37.2562 159.242 37.283C159.231 37.3392 159.198 37.3888 159.151 37.4213C159.103 37.4537 159.045 37.4664 158.989 37.4567C158.72 37.4323 158.45 37.471 158.199 37.5696C157.948 37.6682 157.723 37.8241 157.543 38.0248C157.502 38.0663 157.446 38.0899 157.388 38.0905Z" fill="#263238"/>
<path d="M169.937 37.0156C170.406 41.4286 170.688 43.2876 168.89 45.9354C166.181 49.9493 160.736 49.6911 158.984 45.5458C157.407 41.7901 156.914 35.2176 160.839 32.6543C161.683 32.0785 162.664 31.7347 163.683 31.6574C164.702 31.58 165.723 31.7718 166.645 32.2135C167.566 32.6552 168.355 33.3314 168.933 34.1742C169.511 35.017 169.857 35.9969 169.937 37.0156Z" fill="#FFB573"/>
<path d="M161.909 40.2407C159.092 39.7431 158.412 36.5085 159.454 35.1001C154.708 35.3113 151.511 30.0017 156.637 26.9737C161.764 23.9456 166.289 28.6356 165.923 30.4054C172.237 29.8327 175.937 35.0297 172.496 38.8934C177.035 39.6304 183.833 44.7476 178.843 50.1229C185.589 51.1135 186.321 72.2394 167.956 68.4837C148.595 64.5214 165.416 47.6723 165.416 47.6723C165.416 47.6723 160.51 46.2921 161.909 40.2407Z" fill="#263238"/>
<path d="M179.894 51.4986L179.495 51.2544C181.199 48.4846 181.481 45.9636 180.331 43.743C178.852 40.9262 175.265 39.2643 172.481 39.1047L172.51 38.6353C175.42 38.7996 179.19 40.5131 180.749 43.5224C181.96 45.8697 181.664 48.6207 179.894 51.4986Z" fill="#263238"/>
<path d="M174.557 39.3675C176.176 39.0999 175.411 36.4568 174.218 35.7573C173.026 35.0578 167.313 36.1939 167.942 38.0154C168.571 39.8369 172.383 39.7289 174.557 39.3675Z" fill="white"/>
<path d="M174.848 38.7008C176.463 38.3909 175.815 36.2502 174.603 35.5788C173.392 34.9075 168.402 35.4051 169.083 37.2032C169.763 39.0012 172.688 39.128 174.848 38.7008Z" fill="#0A6EBD"/>
<path d="M157.928 35.6353C156.847 35.6208 155.801 35.2457 154.956 34.5696C153.609 33.5227 152.867 31.9547 153.079 30.5745C153.205 29.6966 153.755 28.4901 155.67 27.7249L155.844 28.1615C154.492 28.7013 153.698 29.5698 153.543 30.6402C153.374 31.8608 154.046 33.2551 155.262 34.1988C155.826 34.6691 156.505 34.9805 157.229 35.101C157.954 35.2215 158.698 35.1466 159.383 34.8842L159.562 35.3208C159.044 35.5329 158.488 35.6398 157.928 35.6353Z" fill="#263238"/>
<path d="M163.021 40.7571C162.81 41.912 162.744 42.405 162.144 42.9448C161.973 43.1358 161.748 43.2708 161.499 43.3321C161.251 43.3935 160.989 43.3782 160.749 43.2884C160.509 43.1986 160.302 43.0384 160.155 42.8289C160.007 42.6193 159.926 42.3701 159.923 42.1139C159.829 41.0529 160.191 39.3441 161.266 38.9873C162.341 38.6305 163.233 39.607 163.021 40.7571Z" fill="#FFB573"/>
<path d="M160.43 44.4331L160.05 43.7524C160.034 43.7245 160.025 43.693 160.025 43.6608C160.025 43.6287 160.034 43.5971 160.05 43.5693L160.43 42.8933C160.446 42.8639 160.47 42.8394 160.499 42.8224C160.528 42.8054 160.561 42.7964 160.594 42.7964C160.628 42.7964 160.661 42.8054 160.69 42.8224C160.719 42.8394 160.743 42.8639 160.759 42.8933L161.139 43.5693C161.155 43.5971 161.164 43.6287 161.164 43.6608C161.164 43.693 161.155 43.7245 161.139 43.7524L160.759 44.4331C160.743 44.4625 160.719 44.4869 160.69 44.504C160.661 44.521 160.628 44.53 160.594 44.53C160.561 44.53 160.528 44.521 160.499 44.504C160.47 44.4869 160.446 44.4625 160.43 44.4331Z" fill="white"/>
<path d="M155.745 80.0137C155.745 80.0137 155.102 103.553 154.243 119.035C153.332 133.246 152.163 166.48 152.163 166.48L155.754 166.667C155.754 166.667 163.698 138.701 163.364 121.805C172.688 98.1725 169.336 80.7226 169.336 80.7226L155.745 80.0137Z" fill="#FFB573"/>
<path d="M152.431 164.987C152.351 164.929 152.255 164.898 152.156 164.898C152.058 164.898 151.961 164.929 151.881 164.987C150.158 166.266 148.07 166.96 145.924 166.968C143.539 167.071 144.126 168.376 147.539 168.813C151.553 169.31 152.412 170.137 153.708 170.461C155.003 170.785 156.032 169.799 156.008 167.076C156.006 166.983 155.976 166.893 155.923 166.817C155.869 166.74 155.794 166.682 155.708 166.649C154.554 166.225 153.454 165.667 152.431 164.987Z" fill="#263238"/>
<path d="M160.51 80.0137C160.51 80.0137 167.082 107.872 170.89 120.857C174.894 134.471 178.068 165.541 178.044 166.569H181.152C181.152 166.569 185.166 141.387 180.213 120.843C179.744 87.511 173.997 80.0371 173.997 80.0371L160.51 80.0137Z" fill="#FFB573"/>
<path d="M177.965 165.456C177.884 165.423 177.794 165.417 177.71 165.439C177.625 165.461 177.55 165.51 177.495 165.578C176.693 166.62 176.11 167.775 173.74 168.789C171.777 169.625 172.862 170.77 175.932 170.353C179.542 169.855 179.594 170.442 180.81 170.442C182.026 170.442 182.598 169.231 181.711 166.597C181.683 166.51 181.631 166.432 181.562 166.372C181.492 166.313 181.407 166.273 181.317 166.259C180.171 166.128 179.046 165.858 177.965 165.456Z" fill="#263238"/>
<path d="M155.745 80.0138C155.745 80.0138 152.647 100.642 153.083 128.838C162.885 128.782 172.625 127.279 181.988 124.378C181.988 124.378 182.129 87.8444 173.974 80.0278C169.266 78.7603 155.853 79.6006 155.745 80.0138Z" fill="#263238"/>
<path opacity="0.2" d="M156.106 124.833C156.076 124.833 156.047 124.822 156.025 124.801C156.003 124.78 155.99 124.751 155.989 124.721C155.111 106.717 157.242 81.3 157.261 81.0605C157.262 81.0449 157.265 81.0295 157.272 81.0154C157.279 81.0013 157.289 80.9887 157.301 80.9786C157.313 80.9684 157.326 80.9608 157.341 80.9564C157.357 80.9519 157.372 80.9506 157.388 80.9526C157.403 80.9537 157.418 80.958 157.432 80.965C157.446 80.972 157.458 80.9817 157.468 80.9935C157.478 81.0052 157.486 81.0189 157.491 81.0336C157.495 81.0484 157.497 81.0639 157.496 81.0793C157.472 81.3375 155.346 106.735 156.224 124.739C156.225 124.755 156.223 124.771 156.218 124.785C156.213 124.8 156.205 124.814 156.194 124.825C156.183 124.837 156.171 124.846 156.156 124.852C156.142 124.858 156.127 124.862 156.111 124.861L156.106 124.833Z" fill="white"/>
<path opacity="0.2" d="M168.374 106.829L171.045 92.6797L172.12 96.0645L168.374 106.829Z" fill="black"/>
</svg>
