<svg width="44" height="44" viewBox="0 0 44 44" fill="none" xmlns="http://www.w3.org/2000/svg">
<g filter="url(#filter0_d_1756_4096)">
<g clip-path="url(#clip0_1756_4096)">
<g clip-path="url(#clip1_1756_4096)">
<path d="M38 5H6V37H38V5Z" fill="#FE7575"/>
<path d="M17.303 20.2454C17.303 21.5403 16.5626 22.5933 15.6472 22.5933C14.7319 22.5933 13.9951 21.5403 13.9951 20.2454C13.9951 18.9505 14.7356 17.8975 15.6472 17.8975C16.5588 17.8975 17.303 18.9468 17.303 20.2454Z" fill="#0B1215"/>
<path d="M29.6673 20.2454C29.6673 21.5403 28.9268 22.5933 28.0152 22.5933C27.1036 22.5933 26.3594 21.5403 26.3594 20.2454C26.3594 18.9505 27.0998 17.8975 28.0152 17.8975C28.9305 17.8975 29.6673 18.9468 29.6673 20.2454Z" fill="#0B1215"/>
<path d="M18.2814 18.7013C18.0842 18.7013 17.9056 18.5748 17.846 18.3739C17.3623 16.7218 15.7065 15.4641 13.7344 15.2409C13.4851 15.2148 13.3065 14.9878 13.3362 14.7385C13.366 14.4892 13.5893 14.3069 13.8386 14.3404C16.1679 14.6046 18.1288 16.1227 18.7204 18.1209C18.7911 18.3627 18.6535 18.612 18.4116 18.6864C18.3669 18.6976 18.326 18.705 18.2814 18.705V18.7013Z" fill="#0B1215"/>
<path d="M25.3852 18.7011C25.3443 18.7011 25.2997 18.6974 25.255 18.6825C25.0132 18.6118 24.8755 18.3588 24.9499 18.117C25.5378 16.1188 27.4987 14.6007 29.828 14.3365C30.0811 14.3067 30.3006 14.4853 30.3304 14.7346C30.3601 14.9839 30.1815 15.2072 29.9322 15.237C27.9601 15.4602 26.308 16.7216 25.8206 18.37C25.7611 18.5672 25.5825 18.6974 25.3852 18.6974V18.7011Z" fill="#0B1215"/>
<path d="M25.0758 27.8435C24.8972 27.8435 24.7186 27.7803 24.5772 27.6463C23.9037 27.0175 22.981 26.6491 21.9837 26.6119C20.8786 26.5635 19.8256 26.9431 19.0963 27.6389C18.8024 27.9179 18.341 27.9068 18.0619 27.6166C17.7828 27.3226 17.794 26.8612 18.0842 26.5821C19.0963 25.6147 20.54 25.0938 22.0396 25.1496C23.3865 25.2017 24.6442 25.7077 25.5744 26.5747C25.8684 26.85 25.887 27.3152 25.6117 27.6091C25.4665 27.7654 25.273 27.8435 25.0758 27.8435Z" fill="#0B1215"/>
</g>
</g>
</g>
<defs>
<filter id="filter0_d_1756_4096" x="0" y="0" width="44" height="44" filterUnits="userSpaceOnUse" color-interpolation-filters="sRGB">
<feFlood flood-opacity="0" result="BackgroundImageFix"/>
<feColorMatrix in="SourceAlpha" type="matrix" values="0 0 0 0 0 0 0 0 0 0 0 0 0 0 0 0 0 0 127 0" result="hardAlpha"/>
<feOffset dy="1"/>
<feGaussianBlur stdDeviation="3"/>
<feComposite in2="hardAlpha" operator="out"/>
<feColorMatrix type="matrix" values="0 0 0 0 0.616667 0 0 0 0 0.616667 0 0 0 0 0.616667 0 0 0 0.15 0"/>
<feBlend mode="normal" in2="BackgroundImageFix" result="effect1_dropShadow_1756_4096"/>
<feBlend mode="normal" in="SourceGraphic" in2="effect1_dropShadow_1756_4096" result="shape"/>
</filter>
<clipPath id="clip0_1756_4096">
<rect x="6" y="5" width="32" height="32" rx="8" fill="white"/>
</clipPath>
<clipPath id="clip1_1756_4096">
<rect x="6" y="5" width="32" height="32" rx="8" fill="white"/>
</clipPath>
</defs>
</svg>
