<svg width="26" height="27" viewBox="0 0 26 27" fill="none" xmlns="http://www.w3.org/2000/svg">
<path d="M13.25 25.5C19.8774 25.5 25.25 20.1274 25.25 13.5C25.25 6.87258 19.8774 1.5 13.25 1.5C6.62258 1.5 1.25 6.87258 1.25 13.5C1.25 20.1274 6.62258 25.5 13.25 25.5Z" stroke="#0B1215" stroke-width="1.5" stroke-linecap="round" stroke-linejoin="round"/>
<path d="M12.326 10.4853L17.25 9.5L16.2647 14.424C16.1615 14.9401 15.908 15.4141 15.5359 15.7864C15.1639 16.1587 14.69 16.4125 14.174 16.516L9.25 17.5L10.2353 12.576C10.3387 12.0601 10.5924 11.5864 10.9644 11.2144C11.3364 10.8424 11.8101 10.5887 12.326 10.4853Z" stroke="#0B1215" stroke-width="1.5" stroke-linecap="round" stroke-linejoin="round"/>
</svg>
