<svg width="39" height="44" viewBox="0 0 39 44" fill="none" xmlns="http://www.w3.org/2000/svg">
<path d="M35.3164 13.8983C34.2218 11.0752 32.0345 9.18949 29.4119 7.69417C23.712 4.44388 19.6891 4.02769 15.834 7.02754C11.9788 10.0274 8.62551 15.7775 6.19553 17.0279C3.76462 18.2783 1.83656 19.862 2.00418 24.6123C2.17179 29.3625 5.6084 28.5292 6.02698 32.3623C6.44649 36.1955 9.12836 39.2791 13.5707 40.1124C18.013 40.9457 19.4382 37.7792 23.3767 37.1125C27.3162 36.4459 27.9024 38.6125 33.0152 37.9458C38.1279 37.2792 39.7208 28.6958 38.7141 23.9447C38.1983 21.5093 37.3973 19.0582 36.4018 16.7803C35.9961 15.8503 35.6887 14.8577 35.3164 13.8983Z" fill="#0A6EBD"/>
<path opacity="0.7" d="M35.3164 13.8983C34.2218 11.0752 32.0345 9.18949 29.4119 7.69417C23.712 4.44388 19.6891 4.02769 15.834 7.02754C11.9788 10.0274 8.62551 15.7775 6.19553 17.0279C3.76462 18.2783 1.83656 19.862 2.00418 24.6123C2.17179 29.3625 5.6084 28.5292 6.02698 32.3623C6.44649 36.1955 9.12836 39.2791 13.5707 40.1124C18.013 40.9457 19.4382 37.7792 23.3767 37.1125C27.3162 36.4459 27.9024 38.6125 33.0152 37.9458C38.1279 37.2792 39.7208 28.6958 38.7141 23.9447C38.1983 21.5093 37.3973 19.0582 36.4018 16.7803C35.9961 15.8503 35.6887 14.8577 35.3164 13.8983Z" fill="white"/>
<path d="M14.6956 21.6581C14.6956 21.6581 13.0055 22.159 12.0832 21.357C11.1608 20.555 13.5686 19.6527 14.3882 19.9537C15.2077 20.2548 14.6447 21.2566 13.4149 20.8064C12.186 20.3552 11.4174 19.6029 13.4658 19.3525C15.5142 19.102 14.3363 20.0044 13.6195 18.8516C12.9028 17.6988 14.9003 16.1445 15.9245 16.4456C16.9487 16.7467 15.1559 17.7992 14.5419 17.1979C13.927 16.5966 11.3146 15.2928 15.5661 15.0921C19.8176 14.8914 18.5369 16.1445 17.6664 16.1445C16.7959 16.1445 14.6956 14.0388 16.0273 13.839C17.359 13.6382 19.1009 14.8417 19.049 15.5433C18.9972 16.2449 16.795 14.4909 17.922 13.3381C19.049 12.1853 20.4316 13.3381 20.6363 14.6409C20.8409 15.9438 19.3046 16.1952 19.7658 14.791C20.227 13.3878 20.9437 12.3344 21.6096 13.6382C22.2754 14.9411 22.3782 16.6454 22.0189 16.4456C21.6605 16.2449 21.1993 12.4357 22.9922 13.839C24.785 15.2422 24.6313 16.3453 24.2729 16.6961C23.9145 17.0469 21.968 12.8362 24.6313 14.6907C27.2947 16.5451 24.5285 17.9492 25.1434 19.102C25.7583 20.2548 27.6021 19.3525 27.1409 17.0469C26.6797 14.7413 25.5527 15.4429 24.8869 16.7458C24.2211 18.0487 26.3723 21.4574 27.1409 20.0541C27.3271 19.7143 27.4224 19.3193 27.4521 18.9326C27.5438 17.7237 26.9798 16.6095 26.4751 17.5975C25.8093 18.9004 26.9363 19.9537 28.217 19.5523C29.4977 19.1508 28.7764 17.766 28.1142 18.3489C27.4521 18.9317 27.2947 19.2015 27.8577 20.0035C28.4207 20.8054 28.831 23.111 27.1409 22.4601C25.4509 21.8082 27.2947 20.2042 28.9338 20.706C30.5729 21.2069 30.0099 21.9592 29.5487 22.7114C29.0875 23.4637 27.8068 23.5641 28.1661 24.2657C28.5245 24.9673 29.395 25.97 29.8561 24.5161C30.3173 23.0622 28.6782 22.6111 27.4484 23.2132" stroke="#263238" stroke-width="0.164422" stroke-miterlimit="10" stroke-linecap="round" stroke-linejoin="round"/>
<path d="M14.9512 22.4103C14.9512 22.4103 12.7491 21.8091 12.3898 20.4049C12.0314 19.0017 13.3631 19.4528 13.3121 20.3552C13.2612 21.2575 12.9537 22.6111 12.0314 22.3606C11.109 22.1102 11.4165 18.4004 12.8 17.9999C14.1826 17.5984 15.8736 18.9022 15.054 19.3028C14.2345 19.7042 13.5177 18.0993 14.3882 16.8462C15.2587 15.593 16.8978 16.1943 16.8469 16.7964C16.796 17.3977 14.6447 15.0921 14.6957 14.3905C14.7466 13.6889 15.5152 12.4357 16.232 13.2874C16.9488 14.14 18.6907 17.197 17.6665 16.1445C16.6422 15.0921 16.4376 14.2395 17.4099 13.6879C18.3832 13.1364 19.0491 13.036 19.0491 14.2892C19.0491 15.5424 18.6953 16.6427 18.8981 14.6142C19.1009 12.5849 20.6373 11.5831 21.2003 13.1871C21.7633 14.791 21.8661 16.4954 21.405 15.1925C20.9438 13.8896 23.9664 13.1373 23.7099 13.6382C23.4534 14.1391 21.8661 14.5903 22.3783 14.9917C22.8904 15.3932 25.1953 14.4402 26.1177 15.2422C27.04 16.0442 25.4009 15.8941 24.8888 16.7458C24.3767 17.5975 27.6549 16.2946 27.8596 17.197C28.0643 18.0993 25.2981 18.3498 25.1453 19.102C24.9916 19.8543 30.7285 21.3579 28.782 21.8091C26.8354 22.2602 26.0677 21.8588 26.0158 22.0098" stroke="#263238" stroke-width="0.164422" stroke-miterlimit="10" stroke-linecap="round" stroke-linejoin="round"/>
<path d="M14.4391 21.1064C14.4391 21.1064 12.3906 22.46 12.5953 22.8605C12.8 23.262 15.0031 22.2086 14.6438 22.9102C14.2854 23.6118 12.8509 24.063 13.5167 24.2637C14.1826 24.4645 15.2068 24.1634 15.4633 23.7122" stroke="#263238" stroke-width="0.164422" stroke-miterlimit="10" stroke-linecap="round" stroke-linejoin="round"/>
<path d="M15.8735 24.6659C15.8735 24.6659 14.5928 24.165 13.876 23.212C13.1592 22.2599 14.1325 20.0538 14.8493 19.853" stroke="#263238" stroke-width="0.164422" stroke-miterlimit="10" stroke-linecap="round" stroke-linejoin="round"/>
<path d="M27.3862 21.7041C27.3862 21.7041 29.3245 22.2878 30.3811 21.3542C31.4378 20.4196 28.6781 19.369 27.7382 19.7189C26.7982 20.0688 27.4446 21.2372 28.8541 20.7115C30.2635 20.1857 31.1442 19.3101 28.7957 19.0182C26.4463 18.7263 27.7974 19.7769 28.6198 18.4344C29.4421 17.091 27.152 15.2817 25.9768 15.6316C24.8025 15.9815 26.8575 17.208 27.5622 16.5073C28.2669 15.8066 31.2618 14.2882 26.388 14.0553C21.5132 13.8214 22.9819 15.2817 23.9802 15.2817C24.9785 15.2817 27.3862 12.8297 25.8592 12.5959C24.3321 12.362 22.3355 13.7634 22.3939 14.581C22.4522 15.3987 24.9776 13.3546 23.6857 12.0121C22.3939 10.6687 20.8084 12.0121 20.5732 13.5304C20.338 15.0488 22.1003 15.3407 21.5715 13.7054C21.0427 12.0701 20.2204 10.8446 19.4573 12.362C18.6942 13.8794 18.5766 15.8655 18.9878 15.6316C19.399 15.3977 19.9278 10.9606 17.8719 12.5949C15.8161 14.2302 15.9929 15.5147 16.4041 15.9235C16.8153 16.3323 19.0471 11.4274 15.9929 13.5875C12.9388 15.7476 16.1105 17.3829 15.4058 18.7263C14.7011 20.0697 12.5869 19.0182 13.1157 16.3323C13.6444 13.6465 14.9363 14.4641 15.6994 15.9824C16.4624 17.5008 13.9963 21.4711 13.1157 19.8358C12.9027 19.4399 12.7925 18.9795 12.7591 18.5302C12.6545 17.1223 13.3009 15.8241 13.8797 16.975C14.6427 18.4934 13.3509 19.7198 11.8831 19.2521C10.4153 18.7852 11.2413 17.1711 12.0007 17.8507C12.7601 18.5302 12.9406 18.8432 12.2942 19.7778C11.6479 20.7124 11.1783 23.3983 13.1166 22.6386C15.0548 21.8799 12.9406 20.0108 11.0607 20.5945C10.5912 20.7409 10.2791 20.9048 10.0837 21.0825" stroke="#263238" stroke-width="0.164422" stroke-miterlimit="10" stroke-linecap="round" stroke-linejoin="round"/>
<path d="M27.0918 22.5794C27.0918 22.5794 29.6172 21.8787 30.0284 20.2434C30.4395 18.6082 28.9125 19.1339 28.9717 20.1854C29.0301 21.236 29.3829 22.8133 30.4395 22.5214C31.4962 22.2295 31.1443 17.9084 29.5589 17.4415C27.9734 16.9747 26.0352 18.4921 26.9752 18.9599C27.9151 19.4267 28.7365 17.5585 27.7382 16.0991C26.7399 14.6397 24.861 15.3404 24.9193 16.0411C24.9776 16.7418 27.4447 14.0559 27.3854 13.2383C27.3271 12.4206 26.4454 10.9612 25.624 11.9538C24.8017 12.9464 22.8051 16.5079 23.9793 15.2824C25.1536 14.0559 25.3888 13.0633 24.2729 12.4215C23.157 11.7789 22.3939 11.6628 22.3939 13.1222C22.3939 14.5817 22.7995 15.8643 22.5671 13.5007C22.3347 11.1371 20.5733 9.96956 19.9269 11.8378C19.2805 13.706 19.1638 15.6912 19.6917 14.1738C20.2205 12.6554 16.7552 11.7798 17.0487 12.3635C17.3423 12.9473 19.1629 13.4731 18.5758 13.9399C17.9887 14.4067 15.3457 13.2972 14.2891 14.2318C13.2324 15.1663 15.1114 14.9905 15.6985 15.9831C16.2856 16.9756 12.5277 15.4573 12.2925 16.5088C12.0572 17.5594 15.229 17.8522 15.405 18.7279C15.5809 19.6035 9.00403 21.3557 11.2349 21.8805C13.4667 22.4063 14.3474 21.9385 14.4057 22.1144" stroke="#263238" stroke-width="0.164422" stroke-miterlimit="10" stroke-linecap="round" stroke-linejoin="round"/>
<path d="M27.6797 21.061C27.6797 21.061 30.0291 22.6374 29.7939 23.1051C29.5587 23.572 27.0333 22.3464 27.4445 23.1631C27.8556 23.9808 29.5003 24.5065 28.7363 24.7395C27.9732 24.9734 26.7981 24.6225 26.5045 24.0968" stroke="#263238" stroke-width="0.164422" stroke-miterlimit="10" stroke-linecap="round" stroke-linejoin="round"/>
<path d="M26.0352 25.2072C26.0352 25.2072 27.503 24.6234 28.3253 23.5139C29.1476 22.4044 28.0317 19.8354 27.2094 19.6016" stroke="#263238" stroke-width="0.164422" stroke-miterlimit="10" stroke-linecap="round" stroke-linejoin="round"/>
<path d="M20.8771 4.40585C20.8771 4.40585 19.6491 4.15356 19.437 5.20599C19.225 6.25842 19.5639 7.47935 20.8771 7.437C22.1893 7.39464 23.0366 7.73164 23.5867 7.18471C24.1368 6.63777 24.4757 5.16363 23.5867 4.6167C22.6977 4.06977 21.5966 4.36441 21.3429 4.36441C21.0882 4.36441 20.8771 4.40585 20.8771 4.40585Z" stroke="#263238" stroke-width="0.164422" stroke-miterlimit="10" stroke-linecap="round" stroke-linejoin="round"/>
<path d="M20.4984 5.70312L21.3708 5.95818" stroke="#263238" stroke-width="0.164422" stroke-miterlimit="10" stroke-linecap="round" stroke-linejoin="round"/>
<path d="M20.892 5.125L21.5587 5.77138" stroke="#263238" stroke-width="0.164422" stroke-miterlimit="10" stroke-linecap="round" stroke-linejoin="round"/>
<path d="M22.2255 6.04383L22.9784 6.00977" stroke="#263238" stroke-width="0.164422" stroke-miterlimit="10" stroke-linecap="round" stroke-linejoin="round"/>
<path d="M22.0894 5.83982L22.8756 5.21094" stroke="#263238" stroke-width="0.164422" stroke-miterlimit="10" stroke-linecap="round" stroke-linejoin="round"/>
<path d="M20.9261 6.75846C20.9261 6.75846 21.2679 6.38463 21.679 6.4187C22.0893 6.45277 22.3458 6.89473 22.3458 6.89473" stroke="#263238" stroke-width="0.164422" stroke-miterlimit="10" stroke-linecap="round" stroke-linejoin="round"/>
<path d="M23.7481 5.31201C23.7481 5.31201 23.7314 5.49893 23.5601 5.58456C23.3888 5.66927 23.3888 5.66927 23.3888 5.66927" stroke="#263238" stroke-width="0.164422" stroke-miterlimit="10" stroke-linecap="round" stroke-linejoin="round"/>
<path d="M23.423 5.87341C23.423 5.87341 23.5258 5.7712 23.6452 5.83934C23.7647 5.90748 23.7304 6.02626 23.7304 6.02626" stroke="#263238" stroke-width="0.164422" stroke-miterlimit="10" stroke-linecap="round" stroke-linejoin="round"/>
<path d="M23.9711 5.9418C23.9711 5.9418 23.9369 5.82302 23.9878 5.75488" stroke="#263238" stroke-width="0.164422" stroke-miterlimit="10" stroke-linecap="round" stroke-linejoin="round"/>
<path d="M27.5326 7.6304C27.5326 7.6304 27.1159 6.71885 26.4075 6.63598C25.699 6.55311 25.199 7.21606 25.199 7.71327C25.199 8.21048 26.4492 10.738 26.4492 10.738V9.90929L26.7825 9.95072L26.9492 9.16347H27.4076L27.1576 8.04474L27.5326 8.21048V7.6304Z" stroke="#263238" stroke-width="0.164422" stroke-miterlimit="10" stroke-linecap="round" stroke-linejoin="round"/>
<path d="M27.9494 7.67205V8.50074L27.6577 8.70791L27.7827 9.20512L27.241 9.61947L27.1576 10.1995L26.8242 10.3238L26.6992 11.2354C26.6992 11.2354 27.2826 10.7382 28.0327 10.4067C28.7829 10.0752 29.9497 9.41229 29.658 8.58361C29.3663 7.75492 28.4911 7.42345 27.9494 7.67205Z" stroke="#263238" stroke-width="0.164422" stroke-miterlimit="10" stroke-linecap="round" stroke-linejoin="round"/>
<path d="M26.3938 11.3547C26.3938 11.3547 26.2817 11.5223 26.366 11.5361C26.4503 11.5499 26.6327 11.5923 26.6466 11.5361C26.6605 11.4799 26.6744 11.4109 26.6327 11.3547C26.591 11.2986 26.5206 11.2295 26.5206 11.2295L26.3938 11.3547Z" stroke="#263238" stroke-width="0.164422" stroke-miterlimit="10" stroke-linecap="round" stroke-linejoin="round"/>
<path d="M26.1835 10.9047C26.1835 10.9047 26.2094 10.7813 26.1567 10.7933C26.1048 10.8043 25.989 10.8228 25.9937 10.8587C25.9983 10.8946 26.0066 10.9379 26.0446 10.9609C26.0826 10.9839 26.1391 11.0078 26.1391 11.0078L26.1835 10.9047Z" stroke="#263238" stroke-width="0.164422" stroke-miterlimit="10" stroke-linecap="round" stroke-linejoin="round"/>
<path d="M26.1277 11.4018C26.1277 11.4018 26.1536 11.2784 26.1009 11.2904C26.049 11.3014 25.9332 11.3198 25.9379 11.3557C25.9425 11.3917 25.9508 11.4349 25.9888 11.4579C26.0268 11.481 26.0833 11.5049 26.0833 11.5049L26.1277 11.4018Z" stroke="#263238" stroke-width="0.164422" stroke-miterlimit="10" stroke-linecap="round" stroke-linejoin="round"/>
<path d="M14.3565 10.613C14.3565 10.613 13.9611 10.9076 12.3303 11.4978C10.6995 12.0871 10.205 12.5788 10.1559 12.972C10.1068 13.3651 10.0568 13.6598 9.90863 14.1515C9.76046 14.6431 9.21686 14.7407 9.61229 15.1836C10.0077 15.6256 10.5513 16.1173 11.144 16.1173C11.7367 16.1173 12.5775 16.2158 12.6757 15.6256C12.7748 15.0363 12.6266 14.2003 12.8729 13.9056C13.1202 13.611 13.2193 13.8568 13.7629 13.4636C14.3065 13.0705 14.8992 12.8246 14.8992 12.8246L15.3937 12.333L16.1845 12.5788L15.8382 11.6939C15.8382 11.6939 15.9373 11.6939 16.0854 11.3496C16.2336 11.0052 16.3327 10.7603 15.9864 10.5144C15.64 10.2686 15.64 10.1701 15.3437 10.1213C15.0483 10.0725 14.3565 10.613 14.3565 10.613Z" stroke="#263238" stroke-width="0.164422" stroke-miterlimit="10" stroke-linecap="round" stroke-linejoin="round"/>
<path d="M14.3564 11.3506C14.2573 11.4979 13.7137 11.8423 13.7137 11.8423C13.7137 11.8423 13.2692 12.2842 13.022 12.4316C12.7747 12.5789 12.083 12.7262 11.7375 13.2179C11.3912 13.7096 11.0948 14.5447 11.0948 14.5447" stroke="#263238" stroke-width="0.164422" stroke-miterlimit="10" stroke-linecap="round" stroke-linejoin="round"/>
<path d="M11.6877 14.9368C11.6877 14.9368 11.9841 14.1017 12.1323 13.8559C12.2804 13.61 13.0222 13.2168 13.0222 13.2168L13.5658 12.7252L14.653 11.7915" stroke="#263238" stroke-width="0.164422" stroke-miterlimit="10" stroke-linecap="round" stroke-linejoin="round"/>
<path d="M14.4706 4.99246C14.4706 4.99246 14.5178 5.12781 13.4834 5.3534C12.449 5.57899 11.1794 5.44363 10.9914 5.89389C10.8034 6.34414 11.1794 6.84043 10.2857 7.20045C9.39206 7.56139 8.78086 7.69582 8.68733 8.05676C8.59287 8.4177 9.205 8.82283 9.39299 9.3182C9.58098 9.81357 9.39299 10.5796 10.0986 10.8955C10.8043 11.2113 11.1803 10.4452 11.8387 10.2196C12.4971 9.99404 12.6851 10.1745 13.4843 9.76938C14.2835 9.36424 14.566 9.0033 14.8947 8.68748C15.2235 8.37166 15.4587 8.32654 15.6939 8.37166C15.9291 8.41678 16.6348 8.23631 16.6348 8.23631L17.3979 8.83388C17.4784 8.89741 17.5979 8.82652 17.5729 8.72891C17.5136 8.49596 17.4682 8.20316 17.5757 8.10095C17.7636 7.92048 18.0933 7.83025 18.1869 7.60558C18.2813 7.38 17.9516 7.01998 17.6692 6.25298C17.4395 5.62963 17.4756 4.56983 16.6264 4.32491C15.9717 4.13615 14.8864 4.50261 14.4706 4.99246Z" stroke="#263238" stroke-width="0.164422" stroke-miterlimit="10" stroke-linecap="round" stroke-linejoin="round"/>
<path d="M10.569 8.39747C10.569 8.39747 11.1079 8.3146 11.3774 7.94077C11.6469 7.56694 11.5126 7.23547 11.8719 7.06881C12.2312 6.90215 12.86 6.98594 13.1749 6.86164C13.4898 6.73734 14.0732 6.52924 14.0732 6.52924L14.702 6.03111L15.0168 5.94824" stroke="#263238" stroke-width="0.164422" stroke-miterlimit="10" stroke-linecap="round" stroke-linejoin="round"/>
<path d="M10.7941 9.1026C10.7941 9.1026 11.6923 8.64591 11.872 8.31443C12.0517 7.98204 12.5008 7.60913 12.9499 7.56769C13.3991 7.52626 14.2529 7.27673 14.4326 7.06956C14.6122 6.86239 14.8817 6.6543 15.1067 6.6543" stroke="#263238" stroke-width="0.164422" stroke-miterlimit="10" stroke-linecap="round" stroke-linejoin="round"/>
<path d="M11.019 9.76689C11.019 9.76689 12.1424 9.22732 12.2766 8.97872C12.4109 8.73011 12.7258 8.06532 13.3999 7.98245C14.0741 7.89958 14.7029 7.85815 15.1067 7.60862C15.5114 7.36002 15.9151 7.19336 15.9151 7.19336" stroke="#263238" stroke-width="0.164422" stroke-miterlimit="10" stroke-linecap="round" stroke-linejoin="round"/>
<path d="M5.75809 11.3992L6.7462 11.8909L7.09254 11.2031L8.08065 12.1856L8.22882 11.4978L9.26693 13.168L8.17974 12.5787L7.93248 13.1192L7.09254 12.4314L6.79528 12.8246L5.41174 12.0871L5.75809 11.3992Z" stroke="#263238" stroke-width="0.164422" stroke-miterlimit="10" stroke-linecap="round" stroke-linejoin="round"/>
<path d="M19.101 1.81738L18.7056 2.75104L18.2611 2.50519L18.162 3.48857L17.6184 3.39005L18.1129 4.66714L18.5074 4.02905L18.9529 4.07786L19.2492 3.19392L19.6446 3.34125L20.2373 2.26027L19.101 1.81738Z" stroke="#263238" stroke-width="0.164422" stroke-miterlimit="10" stroke-linecap="round" stroke-linejoin="round"/>
<path d="M28.3318 13.3751C28.3318 13.3751 28.4837 12.446 29.1273 12.3797C29.7709 12.3134 30.5284 13.143 30.3386 13.6071C30.1497 14.0712 29.619 14.4699 29.619 14.4699L29.4672 15.0997H28.8235C28.8235 15.0997 28.7856 14.3695 29.0125 14.2369C29.2393 14.1043 29.77 13.9386 29.6561 13.4404C29.5422 12.9432 29.2393 12.7775 29.0125 13.0427C28.7856 13.3079 28.8606 13.6725 28.5198 13.7056C28.1799 13.7397 28.3318 13.3751 28.3318 13.3751Z" stroke="#263238" stroke-width="0.164422" stroke-miterlimit="10" stroke-linecap="round" stroke-linejoin="round"/>
<path d="M29.2403 15.3657C29.2403 15.3657 28.7106 15.2994 28.7106 15.5977C28.7106 15.896 28.8624 16.361 28.9754 16.361C29.0893 16.361 29.4301 16.3941 29.5051 16.129C29.5811 15.8638 29.5431 15.7975 29.5431 15.6318C29.5431 15.4651 29.2403 15.3657 29.2403 15.3657Z" stroke="#263238" stroke-width="0.164422" stroke-miterlimit="10" stroke-linecap="round" stroke-linejoin="round"/>
<path d="M5.77748 6.97858C5.77748 6.97858 5.92935 6.04953 6.57296 5.98324C7.21658 5.91694 7.97409 6.74655 7.78425 7.21061C7.59534 7.67468 7.0647 8.07337 7.0647 8.07337L6.91283 8.70317H6.26922C6.26922 8.70317 6.23125 7.97301 6.45813 7.84042C6.68502 7.70783 7.21565 7.54209 7.10175 7.04396C6.98784 6.54674 6.68502 6.38101 6.45813 6.64619C6.23125 6.91137 6.30626 7.27599 5.96547 7.30914C5.62561 7.3432 5.77748 6.97858 5.77748 6.97858Z" stroke="#263238" stroke-width="0.164422" stroke-miterlimit="10" stroke-linecap="round" stroke-linejoin="round"/>
<path d="M6.68583 8.96819C6.68583 8.96819 6.15613 8.9019 6.15613 9.20022C6.15613 9.49855 6.308 9.96353 6.42098 9.96353C6.53489 9.96353 6.87568 9.99668 6.95069 9.7315C7.02662 9.46632 6.98866 9.40003 6.98866 9.23429C6.98866 9.06763 6.68583 8.96819 6.68583 8.96819Z" stroke="#263238" stroke-width="0.164422" stroke-miterlimit="10" stroke-linecap="round" stroke-linejoin="round"/>
<path d="M8.39918 17.2945C8.39918 17.2945 8.55106 16.3655 9.19467 16.2992C9.83828 16.2329 10.5958 17.0625 10.406 17.5265C10.217 17.9906 9.68641 18.3893 9.68641 18.3893L9.53453 19.0191H8.89092C8.89092 19.0191 8.85295 18.2889 9.07984 18.1563C9.30672 18.0237 9.83736 17.858 9.72345 17.3599C9.60954 16.8627 9.30672 16.6969 9.07984 16.9621C8.85295 17.2273 8.92796 17.5919 8.58717 17.6251C8.24731 17.6591 8.39918 17.2945 8.39918 17.2945Z" stroke="#263238" stroke-width="0.164422" stroke-miterlimit="10" stroke-linecap="round" stroke-linejoin="round"/>
<path d="M9.30754 19.2851C9.30754 19.2851 8.77783 19.2188 8.77783 19.5171C8.77783 19.8154 8.92971 20.2804 9.04269 20.2804C9.15659 20.2804 9.49738 20.3136 9.57239 20.0484C9.64833 19.7832 9.61036 19.7169 9.61036 19.5512C9.61036 19.3845 9.30754 19.2851 9.30754 19.2851Z" stroke="#263238" stroke-width="0.164422" stroke-miterlimit="10" stroke-linecap="round" stroke-linejoin="round"/>
<path d="M25.5256 2.9427C25.5256 2.9427 25.622 2.35341 26.0303 2.31198C26.4387 2.26962 26.9194 2.7963 26.799 3.09002C26.6786 3.38467 26.3424 3.63696 26.3424 3.63696L26.2461 4.03657H25.8377C25.8377 4.03657 25.8136 3.57342 25.9581 3.48963C26.1026 3.40584 26.4387 3.29996 26.3665 2.98506C26.2943 2.66923 26.1026 2.56427 25.9581 2.73277C25.8136 2.90127 25.8618 3.13238 25.646 3.15355C25.4303 3.17381 25.5256 2.9427 25.5256 2.9427Z" stroke="#263238" stroke-width="0.164422" stroke-miterlimit="10" stroke-linecap="round" stroke-linejoin="round"/>
<path d="M26.1025 4.20521C26.1025 4.20521 25.7664 4.16285 25.7664 4.35253C25.7664 4.54221 25.8627 4.83685 25.9349 4.83685C26.0071 4.83685 26.2229 4.85803 26.2711 4.68953C26.3192 4.52103 26.2951 4.4796 26.2951 4.37371C26.2942 4.26782 26.1025 4.20521 26.1025 4.20521Z" stroke="#263238" stroke-width="0.164422" stroke-miterlimit="10" stroke-linecap="round" stroke-linejoin="round"/>
<path d="M18.6231 8.51545C18.6231 8.51545 18.7194 7.92617 19.1278 7.88473C19.5362 7.84238 20.0169 8.36905 19.8965 8.66278C19.7761 8.95742 19.4399 9.20971 19.4399 9.20971L19.3436 9.60932H18.9352C18.9352 9.60932 18.9111 9.14618 19.0556 9.06239C19.2001 8.9786 19.5362 8.87271 19.464 8.55781C19.3918 8.24199 19.2001 8.13702 19.0556 8.30552C18.9111 8.47402 18.9593 8.70513 18.7435 8.72631C18.5268 8.74749 18.6231 8.51545 18.6231 8.51545Z" stroke="#263238" stroke-width="0.164422" stroke-miterlimit="10" stroke-linecap="round" stroke-linejoin="round"/>
<path d="M19.2001 9.77796C19.2001 9.77796 18.8639 9.73561 18.8639 9.92528C18.8639 10.115 18.9602 10.4096 19.0324 10.4096C19.1047 10.4096 19.3204 10.4308 19.3686 10.2623C19.4167 10.0938 19.3927 10.0524 19.3927 9.94646C19.3917 9.8415 19.2001 9.77796 19.2001 9.77796Z" stroke="#263238" stroke-width="0.164422" stroke-miterlimit="10" stroke-linecap="round" stroke-linejoin="round"/>
<path d="M29.9161 5.02717C29.9161 5.02717 30.0125 4.43788 30.4208 4.39645C30.8292 4.3541 31.3099 4.88077 31.1895 5.17449C31.0691 5.46914 30.7329 5.72143 30.7329 5.72143L30.6366 6.12104H30.2282C30.2282 6.12104 30.2041 5.6579 30.3486 5.57411C30.4931 5.49032 30.8292 5.38443 30.757 5.06953C30.6848 4.75371 30.4931 4.64874 30.3486 4.81724C30.2041 4.98574 30.2523 5.21685 30.0365 5.23803C29.8208 5.25921 29.9161 5.02717 29.9161 5.02717Z" stroke="#263238" stroke-width="0.164422" stroke-miterlimit="10" stroke-linecap="round" stroke-linejoin="round"/>
<path d="M30.4931 6.28968C30.4931 6.28968 30.157 6.24733 30.157 6.437C30.157 6.62668 30.2533 6.92132 30.3255 6.92132C30.3978 6.92132 30.6135 6.9425 30.6617 6.774C30.7098 6.6055 30.6858 6.56407 30.6858 6.45818C30.6848 6.35321 30.4931 6.28968 30.4931 6.28968Z" stroke="#263238" stroke-width="0.164422" stroke-miterlimit="10" stroke-linecap="round" stroke-linejoin="round"/>
<path d="M29.1735 6.84717C31.5026 8.75683 30.6811 11.741 27.9965 12.1857C25.0313 12.6774 25.2831 9.84793 22.3133 9.72916C19.3443 9.61038 20.6825 10.5643 22.3624 11.056C24.0422 11.5477 23.4986 12.6286 20.8797 11.4979C18.2608 10.3682 17.3218 9.68035 15.7401 9.77796C14.1584 9.87648 9.16785 11.7926 9.26601 13.1682C9.3651 14.5438 8.67333 15.8218 9.46326 16.5097C10.2541 17.1975 12.6758 18.5731 13.2684 16.6082C13.7092 15.1469 14.8594 14.0669 15.604 13.5678" stroke="#263238" stroke-width="0.164422" stroke-linecap="round" stroke-linejoin="round"/>
<path d="M16.1846 13.2666L15.5558 14.0336L15.5678 13.6008L15.1956 13.3762L16.1846 13.2666Z" fill="#263238"/>
<path d="M14.2601 4.08708C14.7926 3.85965 15.2603 3.67642 15.5918 3.58619C17.2226 3.14422 18.0625 4.76568 18.7543 6.23982C19.4461 7.71397 21.1759 9.13838 22.7567 8.30325C24.3384 7.46812 25.0302 4.47104 28.3409 6.28862C28.4455 6.34571 28.5455 6.40464 28.6418 6.46541" stroke="#263238" stroke-width="0.164422" stroke-linecap="round" stroke-linejoin="round"/>
<path d="M29.1735 6.84659L28.202 6.62836L28.5975 6.44605L28.6336 6.01514L29.1735 6.84659Z" fill="#263238"/>
<path d="M14.8011 3.34131C14.8011 3.34131 9.8096 4.96277 9.41417 5.84762C9.12802 6.48755 11.6349 5.25005 13.6611 4.34954" stroke="#263238" stroke-width="0.164422" stroke-linecap="round" stroke-linejoin="round"/>
<path d="M14.2603 4.0874L13.5741 4.80376L13.6195 4.37376L13.2657 4.12055L14.2603 4.0874Z" fill="#263238"/>
<path d="M4.2616 12.7324C5.10709 13.1219 6.79622 13.0086 7.98158 13.7084C9.56329 14.6421 7.48706 15.8216 7.9325 16.804C8.37701 17.7865 11.095 18.327 12.4294 17.9835C13.7639 17.6391 14.6038 16.6079 15.2956 15.1337C15.9874 13.6596 17.1737 12.3825 17.7172 12.2352C18.2608 12.0879 23.9932 13.4147 24.9322 13.7581C25.8712 14.1025 26.0194 14.643 27.1066 15.3308C28.1938 16.0186 28.0456 14.9376 27.7983 14.2986C27.5511 13.6596 26.4148 13.7093 25.4267 12.7757C24.4386 11.842 23.4996 10.8596 23.7959 11.6459C24.0922 12.4322 24.6358 13.2186 23.2523 12.8254C21.8688 12.4322 19.6629 11.4148 19.4166 11.4148C19.4166 11.4148 17.7497 10.5483 17.1811 10.8872C16.6125 11.226 17.219 11.3015 19.0378 11.8669C19.5833 12.0363 19.9648 12.1551 20.2324 12.2379" stroke="#263238" stroke-width="0.164422" stroke-linecap="round" stroke-linejoin="round"/>
<path d="M20.8547 12.4315L19.8638 12.5153L20.1842 12.2225L20.0879 11.8008L20.8547 12.4315Z" fill="#263238"/>
<path d="M13.5566 1.76514C10.5561 2.65551 8.90312 3.92156 9.21705 3.88197C9.61248 3.83317 11.7378 3.19416 13.6149 2.50635C15.493 1.81854 17.1728 2.26051 15.3939 2.60487C13.6149 2.94924 9.71064 4.42246 8.91979 4.91415C8.12893 5.40583 9.06796 6.14244 9.11704 6.68293C9.16612 7.22342 8.37619 7.46926 7.98076 8.00975C7.58534 8.55024 8.52436 10.6634 8.02985 10.8595C7.54366 11.0529 3.99593 11.0556 3.45789 11.992" stroke="#263238" stroke-width="0.164422" stroke-linecap="round" stroke-linejoin="round"/>
<path d="M3.73562 12.5826L3.1272 11.799L3.54855 11.9095L3.85323 11.6001L3.73562 12.5826Z" fill="#263238"/>
<path d="M22.7329 3.71074C22.1254 3.61314 21.4531 3.39492 20.8298 3.09475C19.2981 2.35814 23.696 2.70158 24.0423 2.45574C24.3887 2.20989 20.7317 0.441109 16.1356 1.17864C15.442 1.29005 14.7901 1.43001 14.1863 1.58838" stroke="#263238" stroke-width="0.164422" stroke-linecap="round" stroke-linejoin="round"/>
<path d="M13.5564 1.7656L14.351 1.16895L14.2361 1.58697L14.5436 1.89266L13.5564 1.7656Z" fill="#263238"/>
<path d="M29.3298 3.93053C29.3298 3.93053 29.1816 2.94808 27.4517 2.26027C25.7218 1.57246 25.0801 2.40759 24.6347 3.24272C24.4383 3.61103 23.9734 3.7694 23.3835 3.76756" stroke="#263238" stroke-width="0.164422" stroke-linecap="round" stroke-linejoin="round"/>
<path d="M22.7324 3.71042L23.6789 3.40381L23.4335 3.76199L23.6242 4.15055L22.7324 3.71042Z" fill="#263238"/>
<path d="M32.7326 10.98C32.5418 11.91 32.1621 12.4587 31.7519 12.676C31.011 13.0692 30.6156 13.4126 30.961 13.8058C31.3074 14.199 31.851 13.8546 31.9 14.5424C31.9491 15.2302 31.6037 16.557 30.1211 17.1463C28.9228 17.6233 28.0476 17.522 27.3901 16.9465" stroke="#263238" stroke-width="0.164422" stroke-linecap="round" stroke-linejoin="round"/>
<path d="M26.9587 16.4604L27.8579 16.884L27.432 16.9761L27.3023 17.3886L26.9587 16.4604Z" fill="#263238"/>
<path d="M28.0946 4.37258C28.0946 4.37258 29.1818 5.25743 28.8855 4.5199C28.5891 3.78329 27.9955 3.2428 27.4519 3.83209C26.9083 4.42138 27.551 5.20771 28.391 5.35503C29.2309 5.50235 30.6644 5.35503 31.5044 7.95895C32.3443 10.5629 30.4663 10.7599 30.3181 11.4477C30.1699 12.1355 32.0971 11.7921 32.1961 10.1209C32.2952 8.45063 31.158 6.97649 31.208 6.23896C31.2571 5.50235 32.3443 5.10919 32.7397 7.95895C32.8703 8.8972 32.8879 9.6863 32.8259 10.3364" stroke="#263238" stroke-width="0.164422" stroke-linecap="round" stroke-linejoin="round"/>
<path d="M32.7323 10.98L32.4841 10.0215L32.8277 10.2885L33.2305 10.1237L32.7323 10.98Z" fill="#263238"/>
<path d="M1.00024 28.8565C1.00024 28.8565 3.36262 28.3621 3.54876 27.9293C3.7349 27.4966 3.42467 26.1983 4.29517 25.9515C5.16566 25.7038 6.71959 26.2609 7.09279 26.1366C7.466 26.0132 8.14943 24.5299 8.52263 24.3439C8.67913 24.2665 9.11994 24.2536 9.57834 24.2656" stroke="#263238" stroke-width="0.328844" stroke-linecap="round" stroke-linejoin="round"/>
<path d="M10.8842 24.3451L9.00525 24.9997L9.48032 24.2742L9.08211 23.5044L10.8842 24.3451Z" fill="#263238"/>
<path d="M3.54883 33.678C3.54883 33.678 5.35187 33.4929 5.60005 32.9985C5.84916 32.504 5.35094 31.7619 6.0353 30.959C6.71873 30.1552 7.40309 31.0824 8.08652 30.7739C8.76996 30.4645 9.26725 29.785 9.45431 29.6616C9.64045 29.5383 9.88956 29.7233 10.1377 29.5383C10.3155 29.4057 10.7138 28.9278 10.9962 28.5742" stroke="#263238" stroke-width="0.328844" stroke-linecap="round" stroke-linejoin="round"/>
<path d="M12.0027 27.7446L11.097 29.5079L10.9377 28.6562L10.1154 28.3726L12.0027 27.7446Z" fill="#263238"/>
<path d="M36.9304 30.4642C36.9304 30.4642 35.1274 30.4025 34.6301 30.0931C34.1328 29.7838 33.9467 28.9809 33.5114 28.7949C33.0762 28.6098 31.5223 28.3621 31.5223 28.3621C31.5223 28.3621 31.1491 28.3004 30.5897 27.7443C30.1082 27.2655 30.3638 27.3364 30.1665 27.2471" stroke="#263238" stroke-width="0.328844" stroke-linecap="round" stroke-linejoin="round"/>
<path d="M28.9108 26.8788L30.8999 26.8042L30.2313 27.3585L30.3832 28.2111L28.9108 26.8788Z" fill="#263238"/>
<path d="M38.6705 25.7049C38.6705 25.7049 37.7379 25.8282 37.1786 25.8282C36.6193 25.8282 35.1274 25.4572 35.1274 25.4572L34.0087 25.0244C34.0087 25.0244 32.828 25.1478 32.4548 25.1478C32.2362 25.1478 31.8241 25.169 31.5222 25.1865" stroke="#263238" stroke-width="0.328844" stroke-linecap="round" stroke-linejoin="round"/>
<path d="M30.2164 25.2723L32.0074 24.4077L31.6185 25.183L32.1037 25.9021L30.2164 25.2723Z" fill="#263238"/>
<path d="M33.1384 37.1389C33.1384 37.1389 32.2679 35.8406 31.7706 35.5322C31.2733 35.2228 30.2787 34.3582 30.2787 34.3582L30.0296 32.8749L29.6119 32.3408" stroke="#263238" stroke-width="0.328844" stroke-linecap="round" stroke-linejoin="round"/>
<path d="M28.9731 31.2056L30.5502 32.4136H29.6797L29.2482 33.1659L28.9731 31.2056Z" fill="#263238"/>
<path d="M8.64587 36.0267C8.64587 36.0267 9.14317 34.9761 9.39228 34.5434C9.64139 34.1106 9.70344 33.8639 10.0137 33.2451C10.1674 32.9394 10.4128 32.6641 10.6212 32.4634" stroke="#263238" stroke-width="0.328844" stroke-linecap="round" stroke-linejoin="round"/>
<path d="M11.4434 31.4536L10.8507 33.343L10.5479 32.5309L9.68945 32.3891L11.4434 31.4536Z" fill="#263238"/>
<path d="M13.6012 41.2355C13.6012 41.2355 13.4327 41.9841 13.617 42.1369C13.8012 42.2898 14.9996 42.7934 18.702 42.9767C22.4043 43.1599 25.5539 42.2133 25.7845 41.9684C26.0151 41.7244 25.815 40.6094 25.815 40.6094C25.815 40.6094 23.9564 41.694 21.8357 41.938C19.716 42.182 16.6128 41.892 15.4144 41.5559C14.2161 41.2198 13.6781 41.067 13.6781 41.067L13.6012 41.2355Z" fill="#0A6EBD" stroke="#263238" stroke-width="0.164422" stroke-miterlimit="10" stroke-linecap="round" stroke-linejoin="round"/>
<path d="M18.7114 25.7419C18.7114 25.7419 15.748 25.799 15.5184 25.9997C15.2878 26.1995 14.3099 37.4135 14.0515 38.5C13.7922 39.5874 13.1023 40.9602 13.3606 41.3322C13.6199 41.7042 17.7909 42.4767 20.2366 42.4767C22.6824 42.4767 25.1846 41.5044 25.6745 40.9602C26.1634 40.417 25.9051 39.7016 25.818 39.3581C25.731 39.0147 25.2716 36.6695 25.3003 36.5839C25.329 36.4982 26.1634 33.666 26.1634 33.666C26.1634 33.666 28.235 29.0318 27.947 28.5456C27.659 28.0594 24.754 26.4859 24.754 26.4859L19.4606 25.6562L18.7114 25.7419Z" fill="#0A6EBD" stroke="#263238" stroke-width="0.164422" stroke-miterlimit="10" stroke-linecap="round" stroke-linejoin="round"/>
<path d="M14.0504 38.5C14.0504 38.5 14.9089 38.3306 15.6238 38.3674C16.3387 38.4042 16.8527 38.5497 16.8527 38.5497C16.8527 38.5497 16.0461 37.6013 15.6053 37.5286C15.1654 37.4559 14.2301 37.7837 14.2301 37.7837L14.0504 38.5Z" fill="#263238" stroke="#263238" stroke-width="0.164422" stroke-miterlimit="10" stroke-linecap="round" stroke-linejoin="round"/>
<path d="M21.1328 27.368C22.5495 27.368 23.698 26.5485 23.698 25.5375C23.698 24.5266 22.5495 23.707 21.1328 23.707C19.7161 23.707 18.5676 24.5266 18.5676 25.5375C18.5676 26.5485 19.7161 27.368 21.1328 27.368Z" fill="#263238" stroke="#263238" stroke-width="0.164422" stroke-miterlimit="10" stroke-linecap="round" stroke-linejoin="round"/>
<path d="M20.3917 31.98C20.5325 31.8806 20.6677 31.7977 20.7927 31.7388" stroke="#263238" stroke-width="0.164422" stroke-miterlimit="10" stroke-linecap="round" stroke-linejoin="round"/>
<path d="M18.1578 34.2014C18.1578 34.2014 19.1682 32.9704 20.0859 32.2153" stroke="#263238" stroke-width="0.164422" stroke-miterlimit="10" stroke-linecap="round" stroke-linejoin="round"/>
<path d="M19.3434 32.0791C19.3434 32.0791 18.5007 33.1527 18.2896 33.5459" stroke="#263238" stroke-width="0.164422" stroke-miterlimit="10" stroke-linecap="round" stroke-linejoin="round"/>
<path d="M19.5851 28.9102C19.6379 28.9801 19.6888 29.0418 19.7388 29.0925" stroke="#263238" stroke-width="0.164422" stroke-miterlimit="10" stroke-linecap="round" stroke-linejoin="round"/>
<path d="M18.421 26.7876C18.421 26.7876 18.9785 28.0251 19.4693 28.7479" stroke="#263238" stroke-width="0.164422" stroke-miterlimit="10" stroke-linecap="round" stroke-linejoin="round"/>
<path d="M18.1311 26.6826C18.1311 26.6826 18.6321 28.2801 18.8423 28.595" stroke="#263238" stroke-width="0.164422" stroke-miterlimit="10" stroke-linecap="round" stroke-linejoin="round"/>
<path d="M17.3291 31.6758C17.3541 31.8305 17.381 31.9631 17.4078 32.0625" stroke="#263238" stroke-width="0.164422" stroke-miterlimit="10" stroke-linecap="round" stroke-linejoin="round"/>
<path d="M17.016 28.3887C17.016 28.3887 17.1355 30.3435 17.2984 31.4769" stroke="#263238" stroke-width="0.164422" stroke-miterlimit="10" stroke-linecap="round" stroke-linejoin="round"/>
<path d="M15.3817 41.1553C15.8318 41.4849 16.6773 42.0328 17.6024 42.2694" stroke="#263238" stroke-width="0.164422" stroke-miterlimit="10" stroke-linecap="round" stroke-linejoin="round"/>
<path d="M15.0417 40.8892C15.0417 40.8892 15.1158 40.9527 15.2473 41.054" stroke="#263238" stroke-width="0.164422" stroke-miterlimit="10" stroke-linecap="round" stroke-linejoin="round"/>
<path d="M13.3503 36.5293C13.3503 36.5293 13.1243 37.1619 13.0391 37.3442C12.9539 37.5265 13.0104 37.7521 13.1243 37.8497C13.2373 37.9482 13.4633 38.1867 13.6902 38.2291C13.9161 38.2714 13.9874 38.2152 14.0152 38.1167C14.0439 38.0182 14.0439 38.0182 14.0439 38.0182C14.0439 38.0182 14.4958 38.2152 14.807 38.1867C15.1181 38.1582 15.4145 37.962 15.4145 37.962L15.8812 38.0182L16.3618 36.7393C16.3618 36.7393 15.6553 36.5146 15.3867 36.4299C15.1181 36.3452 13.9874 36.0505 13.6763 36.1205C13.3642 36.1914 13.3503 36.5293 13.3503 36.5293Z" fill="#EBC0BB" stroke="#263238" stroke-width="0.164422" stroke-miterlimit="10" stroke-linecap="round" stroke-linejoin="round"/>
<path d="M14.043 38.0192L13.5059 37.8921" stroke="#263238" stroke-width="0.164422" stroke-miterlimit="10" stroke-linecap="round" stroke-linejoin="round"/>
<path d="M16.2607 36.7684C16.2607 36.7684 15.7078 37.4755 15.6809 37.8162C15.655 38.1569 15.9449 38.1827 16.1819 38.2618C16.419 38.3401 17.4858 36.6901 17.408 36.6708C17.3293 36.6505 16.5607 36.4581 16.2607 36.7684Z" fill="#263238" stroke="#263238" stroke-width="0.164422" stroke-miterlimit="10" stroke-linecap="round" stroke-linejoin="round"/>
<path d="M24.797 29.7479C24.797 29.7479 22.768 33.5985 22.3994 34.5414C22.0308 35.4842 21.9512 35.7724 21.9512 35.7724L21.8197 36.5588C21.8197 36.5588 17.3931 36.533 17.0774 36.637C16.7616 36.742 15.6281 37.8156 16.1819 38.2613C16.7356 38.7069 18.5007 39.0992 20.3713 39.5973C22.242 40.0954 23.6116 40.252 23.9283 39.7023C24.2441 39.1526 27.0371 33.8867 27.5641 32.105C28.091 30.3234 29.2504 29.0923 28.592 28.0712C27.9336 27.0491 25.4304 26.9709 25.0878 27.0234" fill="#0A6EBD"/>
<path d="M24.797 29.7479C24.797 29.7479 22.768 33.5985 22.3994 34.5414C22.0308 35.4842 21.9512 35.7724 21.9512 35.7724L21.8197 36.5588C21.8197 36.5588 17.3931 36.533 17.0774 36.637C16.7616 36.742 15.6281 37.8156 16.1819 38.2613C16.7356 38.7069 18.5007 39.0992 20.3713 39.5973C22.242 40.0954 23.6116 40.252 23.9283 39.7023C24.2441 39.1526 27.0371 33.8867 27.5641 32.105C28.091 30.3234 29.2504 29.0923 28.592 28.0712C27.9336 27.0491 25.4304 26.9709 25.0878 27.0234" stroke="#263238" stroke-width="0.164422" stroke-miterlimit="10" stroke-linecap="round" stroke-linejoin="round"/>
<path d="M27.2362 31.6079C26.6074 32.118 25.5267 32.9412 24.7552 33.2552" stroke="#263238" stroke-width="0.164422" stroke-miterlimit="10" stroke-linecap="round" stroke-linejoin="round"/>
<path d="M27.7826 31.1479C27.7826 31.1479 27.6595 31.2529 27.4585 31.4168" stroke="#263238" stroke-width="0.164422" stroke-miterlimit="10" stroke-linecap="round" stroke-linejoin="round"/>
<path d="M25.8287 32.9272C25.8287 32.9272 25.0027 33.3379 24.4248 33.5561" stroke="#263238" stroke-width="0.164422" stroke-miterlimit="10" stroke-linecap="round" stroke-linejoin="round"/>
<path d="M21.7422 38.7998C21.7996 38.8882 21.8607 38.9646 21.9246 39.0235" stroke="#263238" stroke-width="0.164422" stroke-miterlimit="10" stroke-linecap="round" stroke-linejoin="round"/>
<path d="M21.0834 36.9429C21.0834 36.9429 21.263 37.8167 21.5612 38.464" stroke="#263238" stroke-width="0.164422" stroke-miterlimit="10" stroke-linecap="round" stroke-linejoin="round"/>
<path d="M20.438 37.2925C20.438 37.2925 20.4574 38.2841 20.5556 38.5171" stroke="#263238" stroke-width="0.164422" stroke-miterlimit="10" stroke-linecap="round" stroke-linejoin="round"/>
<path d="M22.1617 37.0723L24.7769 38.1459L25.0807 37.726L22.1617 37.0723Z" fill="#263238" stroke="#263238" stroke-width="0.164422" stroke-miterlimit="10" stroke-linecap="round" stroke-linejoin="round"/>
<path d="M21.7952 35.2719C21.7952 35.2719 23.3389 35.0804 23.5316 34.888C23.7242 34.6965 24.303 34.1735 24.4789 34.1385C24.6539 34.1035 25.4781 34.295 25.6717 34.295C25.8643 34.295 26.1449 33.946 26.356 33.9635C26.5663 33.981 26.6718 34.2425 26.6014 34.4515C26.5311 34.6605 26.1282 34.887 26.0402 34.9045C25.9523 34.922 25.8124 34.9745 25.8124 34.9745C25.8124 34.9745 26.5487 35.1145 26.7774 35.201C27.0052 35.2885 27.0052 35.4975 26.9172 35.7065C26.8293 35.9155 26.7422 36.038 26.6366 36.108C26.5311 36.178 26.3033 36.4744 26.3033 36.4744C26.3033 36.4744 26.3912 36.7709 26.2505 36.9624C26.1097 37.154 26.0051 37.2589 25.9347 37.3114C25.8643 37.3639 26.018 37.3924 25.8652 37.5748C25.7578 37.7018 25.7439 37.7525 25.2327 37.8344C25.0688 37.8611 24.3909 37.7294 23.9177 37.5729C23.4445 37.4164 22.6203 37.2239 22.6203 37.2239L21.4979 36.9624L21.7952 35.2719Z" fill="#EBC0BB" stroke="#263238" stroke-width="0.164422" stroke-miterlimit="10" stroke-linecap="round" stroke-linejoin="round"/>
<path d="M26.4244 35.6689C26.4244 35.6689 26.4411 36.0566 26.3401 36.191C26.2383 36.3254 26.0864 36.4102 26.0864 36.4102C26.0864 36.4102 26.1373 36.6118 26.0521 36.7978C25.9678 36.9829 25.9678 36.9829 25.9678 36.9829C25.9678 36.9829 25.8299 37.1477 25.8808 37.2582" stroke="#263238" stroke-width="0.164422" stroke-miterlimit="10" stroke-linecap="round" stroke-linejoin="round"/>
<path d="M20.7253 35.0674L21.8181 35.2386L21.5014 36.9549L20.8402 36.8122L20.7253 35.0674Z" fill="#263238" stroke="#263238" stroke-width="0.164422" stroke-miterlimit="10" stroke-linecap="round" stroke-linejoin="round"/>
<path d="M16.8989 25.9713C16.8989 25.9713 15.4607 25.2845 14.5402 25.6279C13.6197 25.9713 13.5623 27.916 13.5336 28.1738C13.5049 28.4316 12.4983 34.9248 12.3825 35.9828C12.2677 37.0408 17.7333 37.5564 18.9705 37.5278C20.2077 37.4993 20.7541 37.1273 20.8402 36.8124C20.9263 36.4975 21.3579 35.1817 21.0708 35.0105C20.7828 34.8392 15.633 33.7518 15.633 33.7518L15.345 33.4083C15.345 33.4083 15.9775 29.6323 16.0932 29.032" fill="#0A6EBD"/>
<path d="M16.8989 25.9713C16.8989 25.9713 15.4607 25.2845 14.5402 25.6279C13.6197 25.9713 13.5623 27.916 13.5336 28.1738C13.5049 28.4316 12.4983 34.9248 12.3825 35.9828C12.2677 37.0408 17.7333 37.5564 18.9705 37.5278C20.2077 37.4993 20.7541 37.1273 20.8402 36.8124C20.9263 36.4975 21.3579 35.1817 21.0708 35.0105C20.7828 34.8392 15.633 33.7518 15.633 33.7518L15.345 33.4083C15.345 33.4083 15.9775 29.6323 16.0932 29.032" stroke="#263238" stroke-width="0.164422" stroke-miterlimit="10" stroke-linecap="round" stroke-linejoin="round"/>
<path d="M13.9024 33.9155C13.832 33.9422 13.7662 33.9735 13.7061 34.0085" stroke="#263238" stroke-width="0.164422" stroke-miterlimit="10" stroke-linecap="round" stroke-linejoin="round"/>
<path d="M15.633 33.7518C15.633 33.7518 14.87 33.6846 14.2291 33.8218" stroke="#263238" stroke-width="0.164422" stroke-miterlimit="10" stroke-linecap="round" stroke-linejoin="round"/>
<path d="M13.5327 33.2084C13.5327 33.2084 14.4819 33.0942 15.0579 33.3511" stroke="#263238" stroke-width="0.164422" stroke-miterlimit="10" stroke-linecap="round" stroke-linejoin="round"/>
<path d="M19.3042 26.3202C19.3042 26.3202 20.4868 26.9795 21.3804 26.7787C22.2741 26.578 22.188 24.4851 22.188 24.4851L21.4675 23.998L19.3042 26.3202Z" fill="#EBC0BB" stroke="#263238" stroke-width="0.164422" stroke-miterlimit="10" stroke-linecap="round" stroke-linejoin="round"/>
<path d="M21.449 24.6978L20.5118 25.0237L19.3042 26.3201C19.3042 26.3201 19.6181 26.4951 20.0432 26.6369L21.449 24.6978Z" fill="#263238" stroke="#263238" stroke-width="0.164422" stroke-miterlimit="10" stroke-linecap="round" stroke-linejoin="round"/>
<path d="M17.6371 17.341C17.6371 17.341 15.3497 19.363 15.3266 21.0176C15.3034 22.6722 16.3666 24.441 16.3666 24.441C16.3666 24.441 15.2108 26.3709 15.1877 26.6701C15.1645 26.9685 15.8813 27.6351 15.9498 27.6351C16.0193 27.6351 16.712 27.0605 16.712 27.0605L16.3193 27.9104L17.4982 28.531C17.4982 28.531 18.0511 26.4399 18.353 25.7733C18.353 25.7733 17.0824 23.43 16.9898 22.511C16.8972 21.5921 16.9435 20.7423 17.1982 20.3049C17.4519 19.8685 18.6771 19.2479 18.7465 19.2018C18.816 19.1558 20.3875 20.443 20.6413 21.5221C20.895 22.6022 21.7553 24.5128 21.7553 24.5128C21.7553 24.5128 21.3571 26.6002 21.1728 27.1517C20.9876 27.7032 20.3644 28.3238 20.3644 28.3238C20.3644 28.3238 21.2886 28.6682 21.6581 28.7372C22.0276 28.8063 22.1202 28.8063 22.1202 28.8063C22.1202 28.8063 22.6749 27.8874 22.7212 27.8183C22.7675 27.7493 22.7675 28.7372 22.7675 28.7372C22.7675 28.7372 23.738 28.6682 24.7548 28.1166C25.7716 27.5651 26.3726 26.8755 26.3726 26.8755C26.3726 26.8755 26.9968 26.6002 27.2968 25.6803C27.5969 24.7614 26.9505 23.8194 26.1874 22.9226C25.4253 22.0267 25.1475 21.7505 24.8937 20.4182C24.64 19.0858 24.1769 17.6835 22.9295 16.8336C21.6812 15.9838 19.9717 15.9607 19.1401 16.4202C18.3067 16.8815 17.6371 17.341 17.6371 17.341Z" fill="#263238" stroke="#263238" stroke-width="0.164422" stroke-miterlimit="10" stroke-linecap="round" stroke-linejoin="round"/>
<path d="M18.7561 18.3501C18.7561 18.3501 16.9975 19.6972 16.7373 20.013C16.478 20.3288 16.6799 21.0166 16.6215 21.9052C16.5641 22.7937 17.0253 23.7402 17.2846 24.2273C17.5439 24.7144 18.2366 26.2346 18.7552 26.3488C19.2738 26.4639 19.3034 26.3202 19.3034 26.3202C19.3034 26.3202 21.2065 25.4317 21.7547 24.5137C21.7547 24.5137 21.4084 22.5064 21.2361 21.733C21.0629 20.9586 20.9768 20.7579 20.9768 20.7579C20.9768 20.7579 20.0248 19.4964 19.5923 19.095C19.159 18.6935 18.7561 18.3501 18.7561 18.3501Z" fill="#EBC0BB" stroke="#263238" stroke-width="0.164422" stroke-miterlimit="10" stroke-linecap="round" stroke-linejoin="round"/>
<path d="M17.4161 22.5589C17.4161 22.5589 17.6069 22.3287 17.8162 22.4429" stroke="#263238" stroke-width="0.164422" stroke-miterlimit="10" stroke-linecap="round" stroke-linejoin="round"/>
<path d="M18.0421 22.6695C18.0745 22.815 18.0264 22.9494 17.9347 22.9697C17.843 22.9899 17.7421 22.8887 17.7087 22.7432C17.6763 22.5977 17.7245 22.4633 17.8161 22.443C17.9087 22.4228 18.0097 22.524 18.0421 22.6695Z" fill="#263238"/>
<path d="M19.9394 22.6505C19.9718 22.796 19.9237 22.9304 19.832 22.9506C19.7403 22.9709 19.6394 22.8696 19.6061 22.7241C19.5736 22.5787 19.6218 22.4442 19.7135 22.424C19.8061 22.4037 19.907 22.505 19.9394 22.6505Z" fill="#263238"/>
<path d="M19.2792 22.4628C19.2792 22.4628 19.5098 22.3191 19.7931 22.4628" stroke="#263238" stroke-width="0.164422" stroke-miterlimit="10" stroke-linecap="round" stroke-linejoin="round"/>
<path d="M18.7562 18.3502C18.7562 18.3502 19.4471 20.2285 20.9769 20.7589C20.9769 20.7589 19.4341 19.8022 19.1887 18.2065" fill="#263238"/>
<path d="M18.7562 18.3502C18.7562 18.3502 19.4471 20.2285 20.9769 20.7589C20.9769 20.7589 19.4341 19.8022 19.1887 18.2065" stroke="#263238" stroke-width="0.164422" stroke-miterlimit="10" stroke-linecap="round" stroke-linejoin="round"/>
<path d="M18.7756 21.5533C18.7756 21.5533 18.6515 21.6757 18.8923 21.7752C19.1331 21.8755 19.9332 22.0514 20.1017 21.9317C20.2703 21.8129 19.2183 21.4805 18.7756 21.5533Z" fill="#263238" stroke="#263238" stroke-width="0.164422" stroke-miterlimit="10" stroke-linecap="round" stroke-linejoin="round"/>
<path d="M17.7096 21.5454C17.7096 21.5454 17.0336 21.8364 16.8743 21.9975C16.716 22.1596 17.6152 21.9644 17.7745 21.8023C17.9337 21.6412 17.7096 21.5454 17.7096 21.5454Z" fill="#263238" stroke="#263238" stroke-width="0.164422" stroke-miterlimit="10" stroke-linecap="round" stroke-linejoin="round"/>
<path d="M17.9476 22.0303C17.9476 22.0303 18.1819 22.4142 18.2171 22.5883C18.2523 22.7623 18.2699 23.0404 18.2699 23.0404" stroke="#263238" stroke-width="0.164422" stroke-miterlimit="10" stroke-linecap="round" stroke-linejoin="round"/>
<path d="M18.3218 24.0996C18.3218 24.0996 18.2866 24.3427 18.3746 24.4302C18.4616 24.5167 18.6718 24.6558 19.0561 24.4652" stroke="#263238" stroke-width="0.164422" stroke-miterlimit="10" stroke-linecap="round" stroke-linejoin="round"/>
<path d="M18.6543 25.1074C18.6543 25.1074 18.7765 25.1765 19.021 25.1074" stroke="#263238" stroke-width="0.164422" stroke-miterlimit="10" stroke-linecap="round" stroke-linejoin="round"/>
<path d="M18.7023 21.6648C18.7023 21.6648 18.5097 21.3342 18.7023 21.0562" stroke="#263238" stroke-width="0.164422" stroke-miterlimit="10" stroke-linecap="round" stroke-linejoin="round"/>
</svg>
