<svg width="56" height="56" viewBox="0 0 56 56" fill="none" xmlns="http://www.w3.org/2000/svg">
<path d="M43.208 30.7736C42.6422 30.6287 42.0641 30.9627 41.9167 31.5197C37.3838 47.1673 14.5058 44.2862 14.1182 28.0049C14.0263 17.1279 26.6332 10.3518 35.8663 16.2939L34.8389 17.7294C34.6271 18.0254 34.8201 18.4361 35.1862 18.4688L41.4382 19.0263C41.8045 19.0589 42.0692 18.689 41.9148 18.3604L39.2792 12.7506C39.1248 12.4221 38.667 12.3811 38.4551 12.6771L37.0883 14.5867C26.2701 7.71924 12.0335 15.325 12.0009 28.0051C11.9068 36.7122 19.4014 44.0921 28.2448 43.9989C35.4945 44.0877 42.2141 38.9637 43.9656 32.0446C44.113 31.4876 43.7736 30.9183 43.2078 30.7734L43.208 30.7736Z" fill="#0B1215"/>
<path d="M25.11 33V24.18H24.06L24.34 23.2H26.09V33H25.11ZM30.9081 33.182C30.3107 33.182 29.7671 33.0373 29.2771 32.748C28.7917 32.4587 28.4067 32.0713 28.1221 31.586C27.8374 31.096 27.6951 30.5593 27.6951 29.976H28.6751C28.6751 30.382 28.7754 30.7553 28.9761 31.096C29.1767 31.432 29.4451 31.7003 29.7811 31.901C30.1217 32.1017 30.4974 32.202 30.9081 32.202C31.3141 32.202 31.6851 32.1017 32.0211 31.901C32.3571 31.7003 32.6254 31.432 32.8261 31.096C33.0314 30.7553 33.1341 30.382 33.1341 29.976C33.1341 29.5653 33.0361 29.192 32.8401 28.856C32.6487 28.5153 32.3757 28.2447 32.0211 28.044C31.6711 27.8387 31.2534 27.736 30.7681 27.736H28.3881L29.3121 23.2H33.8971V24.18H30.1031L29.5921 26.756L30.7331 26.763C31.4004 26.7723 31.9861 26.9147 32.4901 27.19C32.9987 27.4653 33.3954 27.8433 33.6801 28.324C33.9694 28.8 34.1141 29.3507 34.1141 29.976C34.1141 30.4147 34.0301 30.8277 33.8621 31.215C33.6987 31.6023 33.4677 31.9453 33.1691 32.244C32.8751 32.538 32.5344 32.769 32.1471 32.937C31.7644 33.1003 31.3514 33.182 30.9081 33.182Z" fill="#0B1215"/>
</svg>
