<svg width="25" height="24" viewBox="0 0 25 24" fill="none" xmlns="http://www.w3.org/2000/svg">
<g clip-path="url(#clip0_1589_6075)">
<g clip-path="url(#clip1_1589_6075)">
<path d="M12.5002 0.833374C10.3905 0.833374 8.32821 1.45896 6.57409 2.63103C4.81996 3.8031 3.45279 5.46901 2.64545 7.41808C1.83812 9.36716 1.62688 11.5119 2.03846 13.581C2.45003 15.6501 3.46594 17.5508 4.9577 19.0425C6.44946 20.5343 8.35007 21.5502 10.4192 21.9618C12.4883 22.3733 14.633 22.1621 16.5821 21.3548C18.5312 20.5474 20.1971 19.1802 21.3692 17.4261C22.5412 15.672 23.1668 13.6097 23.1668 11.5C23.1668 8.67106 22.043 5.95796 20.0426 3.95757C18.0423 1.95718 15.3291 0.833374 12.5002 0.833374ZM12.5002 20.8334C10.6542 20.8334 8.8497 20.286 7.31485 19.2604C5.77999 18.2349 4.58371 16.7772 3.87729 15.0718C3.17087 13.3663 2.98604 11.4897 3.34617 9.6792C3.7063 7.86871 4.59521 6.20567 5.9005 4.90038C7.20579 3.59509 8.86884 2.70617 10.6793 2.34604C12.4898 1.98592 14.3664 2.17075 16.0719 2.87717C17.7773 3.58358 19.235 4.77986 20.2606 6.31472C21.2861 7.84958 21.8335 9.65408 21.8335 11.5C21.8335 13.9754 20.8502 16.3494 19.0998 18.0997C17.3495 19.85 14.9755 20.8334 12.5002 20.8334Z" fill="#0D1717"/>
<path d="M12.6932 5.44672C11.9707 5.43478 11.2545 5.5821 10.5955 5.87822C9.93641 6.17434 9.35066 6.61198 8.87984 7.16005C8.81443 7.22067 8.76184 7.29379 8.7252 7.3751C8.68856 7.4564 8.6686 7.54423 8.6665 7.63338C8.66646 7.71564 8.68296 7.79706 8.71503 7.87281C8.74709 7.94856 8.79407 8.01708 8.85316 8.0743C8.91225 8.13153 8.98224 8.17628 9.05898 8.2059C9.13572 8.23552 9.21763 8.2494 9.29984 8.24672C9.47595 8.24235 9.64436 8.17357 9.77317 8.05338C10.1295 7.63584 10.572 7.30044 11.0703 7.07027C11.5687 6.8401 12.1109 6.72062 12.6598 6.72005C14.2332 6.72005 15.2132 7.73338 15.2132 8.99338V9.02672C15.2132 10.5001 14.0398 11.3201 12.1865 11.4601C12.1115 11.4629 12.0379 11.4817 11.9706 11.515C11.9032 11.5483 11.8437 11.5954 11.7959 11.6533C11.7481 11.7112 11.713 11.7786 11.693 11.851C11.673 11.9233 11.6685 11.9991 11.6798 12.0734C11.6798 12.0734 11.6798 13.6201 11.6798 13.9067C11.6964 14.0717 11.7739 14.2246 11.8972 14.3356C12.0205 14.4465 12.1807 14.5075 12.3465 14.5067H12.4198C12.5849 14.4901 12.7378 14.4126 12.8487 14.2894C12.9597 14.1661 13.0207 14.0059 13.0198 13.8401V12.4667C15.0198 12.1867 16.6398 11.1334 16.6398 8.94672V8.91338C16.6198 6.91338 15.0598 5.44672 12.6932 5.44672Z" fill="#0D1717"/>
<path d="M12.3534 17.8C12.8136 17.8 13.1867 17.4269 13.1867 16.9666C13.1867 16.5064 12.8136 16.1333 12.3534 16.1333C11.8931 16.1333 11.52 16.5064 11.52 16.9666C11.52 17.4269 11.8931 17.8 12.3534 17.8Z" fill="#0D1717"/>
</g>
</g>
<defs>
<clipPath id="clip0_1589_6075">
<rect width="24" height="24" fill="white" transform="translate(0.5)"/>
</clipPath>
<clipPath id="clip1_1589_6075">
<rect width="24" height="24" fill="white" transform="translate(0.5 -0.5)"/>
</clipPath>
</defs>
</svg>
