<svg width="25" height="25" viewBox="0 0 25 25" fill="none" xmlns="http://www.w3.org/2000/svg">
<g clip-path="url(#clip0_1605_10283)">
<path d="M12.8186 12.4314L1.60718 23.6429M22.4186 3.70572L20.9786 7.95715C20.9289 8.05548 20.903 8.16411 20.903 8.27429C20.903 8.38447 20.9289 8.49311 20.9786 8.59144L23.67 12.1914C23.7474 12.2945 23.7941 12.4172 23.8049 12.5456C23.8157 12.674 23.7901 12.8028 23.7311 12.9173C23.672 13.0319 23.5819 13.1274 23.4711 13.1931C23.3602 13.2587 23.2331 13.2918 23.1043 13.2886H18.6129C18.5028 13.2918 18.3949 13.3197 18.297 13.3701C18.1991 13.4205 18.1137 13.4923 18.0472 13.58L15.5443 17.18C15.4709 17.2852 15.3695 17.3678 15.2515 17.4182C15.1335 17.4686 15.0037 17.485 14.8769 17.4653C14.7501 17.4457 14.6314 17.3909 14.5342 17.3071C14.437 17.2233 14.3653 17.1139 14.3272 16.9914L12.99 12.7057C12.9595 12.5998 12.9026 12.5033 12.8247 12.4254C12.7467 12.3474 12.6503 12.2905 12.5443 12.26L8.25861 10.9229C8.13609 10.8847 8.02674 10.813 7.94296 10.7158C7.85919 10.6186 7.80437 10.4999 7.78472 10.3731C7.76508 10.2463 7.7814 10.1165 7.83184 9.99857C7.88228 9.88059 7.9648 9.77913 8.07003 9.70572L11.7386 7.11715C11.8264 7.05061 11.8981 6.96526 11.9485 6.86736C11.9989 6.76946 12.0268 6.66151 12.03 6.55144V2.06001C12.0348 1.94204 12.07 1.8273 12.1321 1.72691C12.1943 1.62652 12.2813 1.54388 12.3847 1.48698C12.4882 1.43008 12.6046 1.40086 12.7226 1.40214C12.8407 1.40342 12.9564 1.43516 13.0586 1.49429L16.6586 4.18572C16.75 4.2492 16.8552 4.29007 16.9654 4.30497C17.0757 4.31987 17.1879 4.30838 17.2929 4.27144L21.5443 2.83144C21.6662 2.78859 21.7978 2.78106 21.9238 2.80973C22.0498 2.83841 22.1652 2.9021 22.2566 2.99349C22.3479 3.08487 22.4116 3.20022 22.4403 3.32623C22.469 3.45225 22.4615 3.5838 22.4186 3.70572Z" stroke="#0B1215" stroke-width="1.71429" stroke-linecap="round" stroke-linejoin="round"/>
</g>
<defs>
<clipPath id="clip0_1605_10283">
<rect width="24" height="24" fill="white" transform="translate(0.75 0.5)"/>
</clipPath>
</defs>
</svg>
