<svg width="24" height="25" viewBox="0 0 24 25" fill="none" xmlns="http://www.w3.org/2000/svg">
<path d="M9.76057 14.8667C9.18557 14.2927 8.83557 13.5127 8.83557 12.6377C8.83557 10.8847 10.2476 9.47168 11.9996 9.47168C12.8666 9.47168 13.6646 9.82268 14.2296 10.3967" stroke="#0D1717" stroke-width="1.5" stroke-linecap="round" stroke-linejoin="round"/>
<path d="M15.1047 13.1987C14.8727 14.4887 13.8567 15.5067 12.5677 15.7407" stroke="#0D1717" stroke-width="1.5" stroke-linecap="round" stroke-linejoin="round"/>
<path d="M6.65457 17.9722C5.06757 16.7262 3.72357 14.9062 2.74957 12.6372C3.73357 10.3582 5.08657 8.52823 6.68357 7.27223C8.27057 6.01623 10.1016 5.33423 11.9996 5.33423C13.9086 5.33423 15.7386 6.02623 17.3356 7.29123" stroke="#0D1717" stroke-width="1.5" stroke-linecap="round" stroke-linejoin="round"/>
<path d="M19.4476 9.49072C20.1356 10.4047 20.7406 11.4597 21.2496 12.6367C19.2826 17.1937 15.8066 19.9387 11.9996 19.9387C11.1366 19.9387 10.2856 19.7987 9.46759 19.5257" stroke="#0D1717" stroke-width="1.5" stroke-linecap="round" stroke-linejoin="round"/>
<path d="M19.887 4.74951L4.11298 20.5235" stroke="#0D1717" stroke-width="1.5" stroke-linecap="round" stroke-linejoin="round"/>
</svg>
