<svg width="24" height="24" viewBox="0 0 24 24" fill="none" xmlns="http://www.w3.org/2000/svg">
<g clip-path="url(#clip0_1346_8736)">
<path d="M15.172 6.99992L8.58602 13.5859C8.395 13.7704 8.24264 13.9911 8.13782 14.2351C8.033 14.4791 7.97783 14.7416 7.97552 15.0071C7.97321 15.2727 8.02381 15.536 8.12438 15.7818C8.22494 16.0276 8.37344 16.2509 8.56123 16.4387C8.74902 16.6265 8.97232 16.775 9.21811 16.8756C9.4639 16.9761 9.72726 17.0267 9.99282 17.0244C10.2584 17.0221 10.5208 16.9669 10.7648 16.8621C11.0088 16.7573 11.2295 16.6049 11.414 16.4139L17.828 9.82792C18.5567 9.07351 18.9598 8.0631 18.9507 7.01431C18.9416 5.96553 18.5209 4.96228 17.7793 4.22065C17.0377 3.47901 16.0344 3.05834 14.9856 3.04922C13.9368 3.04011 12.9264 3.44329 12.172 4.17192L5.75702 10.7569C4.63171 11.8822 3.99951 13.4085 3.99951 14.9999C3.99951 16.5914 4.63171 18.1176 5.75702 19.2429C6.88233 20.3682 8.40859 21.0004 10 21.0004C11.5915 21.0004 13.1177 20.3682 14.243 19.2429L20.5 12.9999" stroke="#0B1215" stroke-width="1.5" stroke-linecap="round" stroke-linejoin="round"/>
</g>
<defs>
<clipPath id="clip0_1346_8736">
<rect width="24" height="24" fill="white"/>
</clipPath>
</defs>
</svg>
