<svg width="38" height="38" viewBox="0 0 38 38" fill="none" xmlns="http://www.w3.org/2000/svg">
<path d="M11.0758 7.391C10.9341 7.30699 10.7727 7.26197 10.608 7.26053C10.4433 7.25909 10.2811 7.30128 10.1379 7.38281C9.99478 7.46434 9.87576 7.5823 9.79296 7.72472C9.71016 7.86714 9.66653 8.02893 9.6665 8.19367V29.8066C9.66653 29.9713 9.71016 30.1331 9.79296 30.2755C9.87576 30.4179 9.99478 30.5359 10.1379 30.6174C10.2811 30.6989 10.4433 30.7411 10.608 30.7397C10.7727 30.7383 10.9341 30.6932 11.0758 30.6092L29.3116 19.8028C29.4509 19.7201 29.5663 19.6027 29.6464 19.462C29.7265 19.3212 29.7687 19.1621 29.7687 19.0001C29.7687 18.8382 29.7265 18.679 29.6464 18.5383C29.5663 18.3975 29.4509 18.2801 29.3116 18.1974L11.0758 7.391Z" fill="white" stroke="white" stroke-width="1.5" stroke-linecap="round" stroke-linejoin="round"/>
</svg>
