<svg width="34" height="34" viewBox="0 0 34 34" fill="none" xmlns="http://www.w3.org/2000/svg">
<g clip-path="url(#clip0_1691_2830)">
<g clip-path="url(#clip1_1691_2830)">
<path d="M17.6648 16.3353L17.6648 8.51942C17.6518 8.35201 17.5762 8.19565 17.4529 8.08159C17.3297 7.96753 17.168 7.90417 17.0001 7.90417C16.8322 7.90417 16.6704 7.96753 16.5472 8.08159C16.424 8.19565 16.3484 8.35201 16.3354 8.51941L16.3354 16.3353L8.5148 16.3306C8.33726 16.3306 8.167 16.4011 8.04147 16.5266C7.91593 16.6522 7.8454 16.8224 7.8454 17C7.8454 17.1775 7.91593 17.3478 8.04147 17.4733C8.167 17.5989 8.33726 17.6694 8.5148 17.6694L16.3354 17.6647L16.3307 25.4853C16.3236 25.5769 16.3355 25.669 16.3657 25.7557C16.3959 25.8425 16.4437 25.9221 16.5061 25.9895C16.5685 26.057 16.6442 26.1108 16.7284 26.1476C16.8126 26.1844 16.9035 26.2034 16.9954 26.2034C17.0872 26.2034 17.1781 26.1844 17.2623 26.1476C17.3465 26.1108 17.4222 26.057 17.4846 25.9895C17.547 25.9221 17.5948 25.8425 17.625 25.7557C17.6552 25.669 17.6671 25.5769 17.66 25.4853L17.6648 17.6647H25.4806C25.6481 17.6517 25.8044 17.5761 25.9185 17.4528C26.0325 17.3296 26.0959 17.1679 26.0959 17C26.0959 16.8321 26.0325 16.6703 25.9185 16.5471C25.8044 16.4239 25.6481 16.3483 25.4806 16.3353H17.6648Z" fill="#0D1717"/>
</g>
</g>
<defs>
<clipPath id="clip0_1691_2830">
<rect width="24" height="24" fill="white" transform="translate(0.0292969 17) rotate(-45)"/>
</clipPath>
<clipPath id="clip1_1691_2830">
<rect width="24" height="24" fill="white" transform="translate(0.0292969 17) rotate(-45)"/>
</clipPath>
</defs>
</svg>
