<svg width="56" height="56" viewBox="0 0 56 56" fill="none" xmlns="http://www.w3.org/2000/svg">
<path d="M12.7922 30.7736C13.358 30.6287 13.9361 30.9627 14.0835 31.5197C18.6164 47.1673 41.4944 44.2862 41.882 28.0049C41.9739 17.1279 29.367 10.3518 20.1339 16.2939L21.1613 17.7294C21.3731 18.0254 21.1801 18.436 20.814 18.4688L14.562 19.0263C14.1957 19.0589 13.931 18.689 14.0854 18.3604L16.721 12.7506C16.8754 12.4221 17.3332 12.3811 17.5449 12.6771L18.9117 14.5867C29.7299 7.71924 43.9665 15.325 43.9991 28.0051C44.0932 36.7122 36.5986 44.0921 27.7552 43.9989C20.5057 44.0879 13.7861 38.9639 12.0344 32.0448C11.887 31.4878 12.2264 30.9186 12.7922 30.7736Z" fill="#0B1215"/>
<path d="M25.11 33V24.18H24.06L24.34 23.2H26.09V33H25.11ZM30.9081 33.182C30.3107 33.182 29.7671 33.0373 29.2771 32.748C28.7917 32.4587 28.4067 32.0713 28.1221 31.586C27.8374 31.096 27.6951 30.5593 27.6951 29.976H28.6751C28.6751 30.382 28.7754 30.7553 28.9761 31.096C29.1767 31.432 29.4451 31.7003 29.7811 31.901C30.1217 32.1017 30.4974 32.202 30.9081 32.202C31.3141 32.202 31.6851 32.1017 32.0211 31.901C32.3571 31.7003 32.6254 31.432 32.8261 31.096C33.0314 30.7553 33.1341 30.382 33.1341 29.976C33.1341 29.5653 33.0361 29.192 32.8401 28.856C32.6487 28.5153 32.3757 28.2447 32.0211 28.044C31.6711 27.8387 31.2534 27.736 30.7681 27.736H28.3881L29.3121 23.2H33.8971V24.18H30.1031L29.5921 26.756L30.7331 26.763C31.4004 26.7723 31.9861 26.9147 32.4901 27.19C32.9987 27.4653 33.3954 27.8433 33.6801 28.324C33.9694 28.8 34.1141 29.3507 34.1141 29.976C34.1141 30.4147 34.0301 30.8277 33.8621 31.215C33.6987 31.6023 33.4677 31.9453 33.1691 32.244C32.8751 32.538 32.5344 32.769 32.1471 32.937C31.7644 33.1003 31.3514 33.182 30.9081 33.182Z" fill="#0B1215"/>
</svg>
