<svg width="24" height="24" viewBox="0 0 24 24" fill="none" xmlns="http://www.w3.org/2000/svg">
<g clip-path="url(#clip0_1237_3223)">
<path d="M15.4605 3.15753C15.3496 3.0713 15.2168 3.01792 15.0771 3.00348C14.9374 2.98905 14.7964 3.01413 14.6703 3.07588C14.5441 3.13762 14.4379 3.23355 14.3635 3.35274C14.2892 3.47193 14.2499 3.60958 14.25 3.75003V6.73953C13.3883 6.77564 12.538 6.94986 11.7315 7.25553C10.4811 7.72819 9.39108 8.54712 8.589 9.61653C7.6545 10.8555 6.9675 12.5745 6.753 14.9325C6.7388 15.0862 6.77235 15.2405 6.84908 15.3744C6.9258 15.5083 7.04197 15.6153 7.18174 15.6808C7.3215 15.7462 7.47805 15.767 7.63004 15.7402C7.78203 15.7134 7.92205 15.6403 8.031 15.531C9.813 13.746 11.5845 12.867 12.894 12.4305C13.434 12.2505 13.896 12.1455 14.25 12.0855V15C14.25 15.1446 14.2917 15.2861 14.3702 15.4075C14.4487 15.5289 14.5606 15.625 14.6925 15.6843C14.8244 15.7436 14.9705 15.7635 15.1135 15.7416C15.2564 15.7197 15.3899 15.657 15.498 15.561L22.248 9.56103C22.3304 9.48794 22.3958 9.39757 22.4393 9.29637C22.4829 9.19516 22.5036 9.0856 22.5 8.97548C22.4965 8.86536 22.4687 8.75737 22.4186 8.65921C22.3686 8.56105 22.2975 8.47512 22.2105 8.40753L15.4605 3.15753ZM14.9145 8.24553H14.919C15.0236 8.25643 15.1293 8.24529 15.2294 8.21283C15.3294 8.18038 15.4216 8.12732 15.4998 8.05709C15.5781 7.98686 15.6408 7.901 15.6839 7.80506C15.727 7.70911 15.7495 7.60521 15.75 7.50003V5.28303L20.5785 9.03903L15.75 13.329V11.25C15.75 11.0511 15.671 10.8604 15.5303 10.7197C15.3897 10.5791 15.1989 10.5 15 10.5H14.9325C14.7036 10.5106 14.4753 10.5321 14.2485 10.5645C13.7985 10.6305 13.1685 10.7565 12.4185 11.007C11.0424 11.4744 9.7519 12.1635 8.598 13.047C8.889 11.973 9.312 11.151 9.7875 10.5195C10.4202 9.67489 11.2809 9.02853 12.2685 8.65653C13.0544 8.3597 13.8901 8.2166 14.73 8.23503C14.7975 8.23653 14.8485 8.23953 14.88 8.24253L14.9145 8.24553ZM6.75 4.50003C5.75544 4.50003 4.80161 4.89512 4.09835 5.59838C3.39509 6.30164 3 7.25547 3 8.25003V17.25C3 18.2446 3.39509 19.1984 4.09835 19.9017C4.80161 20.6049 5.75544 21 6.75 21H15.75C16.7446 21 17.6984 20.6049 18.4017 19.9017C19.1049 19.1984 19.5 18.2446 19.5 17.25V15.75C19.5 15.5511 19.421 15.3604 19.2803 15.2197C19.1397 15.079 18.9489 15 18.75 15C18.5511 15 18.3603 15.079 18.2197 15.2197C18.079 15.3604 18 15.5511 18 15.75V17.25C18 17.8468 17.7629 18.4191 17.341 18.841C16.919 19.263 16.3467 19.5 15.75 19.5H6.75C6.15326 19.5 5.58097 19.263 5.15901 18.841C4.73705 18.4191 4.5 17.8468 4.5 17.25V8.25003C4.5 7.6533 4.73705 7.081 5.15901 6.65904C5.58097 6.23709 6.15326 6.00003 6.75 6.00003H9.75C9.94891 6.00003 10.1397 5.92101 10.2803 5.78036C10.421 5.63971 10.5 5.44895 10.5 5.25003C10.5 5.05112 10.421 4.86035 10.2803 4.7197C10.1397 4.57905 9.94891 4.50003 9.75 4.50003H6.75Z" fill="#0D1717"/>
</g>
<defs>
<clipPath id="clip0_1237_3223">
<rect width="24" height="24" fill="white"/>
</clipPath>
</defs>
</svg>
