<svg width="44" height="44" viewBox="0 0 44 44" fill="none" xmlns="http://www.w3.org/2000/svg">
<g filter="url(#filter0_d_1756_4025)">
<g clip-path="url(#clip0_1756_4025)">
<g clip-path="url(#clip1_1756_4025)">
<path d="M38 5H6V37H38V5Z" fill="#C179FF"/>
<path d="M12.5253 14.8479C12.3764 14.8479 12.2313 14.7846 12.1271 14.6655C11.9373 14.446 11.9634 14.1148 12.1829 13.9251C13.2322 13.0246 14.568 12.459 15.9485 12.3362C16.2425 12.3065 16.4918 12.5223 16.5178 12.8125C16.5439 13.1028 16.3318 13.3558 16.0415 13.3818C14.8769 13.486 13.7494 13.9623 12.8639 14.7214C12.7634 14.8069 12.6443 14.8479 12.5215 14.8479H12.5253Z" fill="#0B1215"/>
<path d="M31.9779 14.8479C31.8551 14.8479 31.7361 14.8069 31.6356 14.7214C30.75 13.9623 29.6189 13.486 28.4579 13.3818C28.1677 13.3558 27.9556 13.099 27.9817 12.8125C28.0077 12.5223 28.257 12.3065 28.551 12.3362C29.9314 12.459 31.2672 13.0246 32.3203 13.9251C32.5398 14.1148 32.5658 14.446 32.3761 14.6655C32.2719 14.7883 32.1268 14.8479 31.9779 14.8479Z" fill="#0B1215"/>
<path d="M17.1985 20.6824C17.1985 21.9773 16.4581 23.0303 15.5427 23.0303C14.6274 23.0303 13.8906 21.981 13.8906 20.6824C13.8906 19.3838 14.6311 18.3345 15.5427 18.3345C16.4543 18.3345 17.1985 19.3875 17.1985 20.6824Z" fill="#0B1215"/>
<path d="M30.6126 20.6824C30.6126 21.9773 29.8721 23.0303 28.9605 23.0303C28.0489 23.0303 27.3047 21.981 27.3047 20.6824C27.3047 19.3838 28.0452 18.3345 28.9605 18.3345C29.8759 18.3345 30.6126 19.3875 30.6126 20.6824Z" fill="#0B1215"/>
<path d="M27.0667 29.5792C27.4834 29.6648 27.7737 29.0397 27.4946 28.6341C26.2741 26.8369 24.3802 25.6797 22.2518 25.6797C20.1234 25.6797 18.2295 26.8369 17.0053 28.6341C16.7262 29.0434 17.0165 29.6648 17.4332 29.5792C18.8769 29.2815 20.5141 29.1178 22.2481 29.1178C23.982 29.1178 25.6193 29.2853 27.0667 29.5792Z" fill="#0B1215"/>
</g>
</g>
</g>
<defs>
<filter id="filter0_d_1756_4025" x="0" y="0" width="44" height="44" filterUnits="userSpaceOnUse" color-interpolation-filters="sRGB">
<feFlood flood-opacity="0" result="BackgroundImageFix"/>
<feColorMatrix in="SourceAlpha" type="matrix" values="0 0 0 0 0 0 0 0 0 0 0 0 0 0 0 0 0 0 127 0" result="hardAlpha"/>
<feOffset dy="1"/>
<feGaussianBlur stdDeviation="3"/>
<feComposite in2="hardAlpha" operator="out"/>
<feColorMatrix type="matrix" values="0 0 0 0 0.616667 0 0 0 0 0.616667 0 0 0 0 0.616667 0 0 0 0.15 0"/>
<feBlend mode="normal" in2="BackgroundImageFix" result="effect1_dropShadow_1756_4025"/>
<feBlend mode="normal" in="SourceGraphic" in2="effect1_dropShadow_1756_4025" result="shape"/>
</filter>
<clipPath id="clip0_1756_4025">
<rect x="6" y="5" width="32" height="32" rx="8" fill="white"/>
</clipPath>
<clipPath id="clip1_1756_4025">
<rect x="6" y="5" width="32" height="32" rx="8" fill="white"/>
</clipPath>
</defs>
</svg>
