<svg width="44" height="44" viewBox="0 0 44 44" fill="none" xmlns="http://www.w3.org/2000/svg">
<g filter="url(#filter0_d_1589_6186)">
<g clip-path="url(#clip0_1589_6186)">
<g clip-path="url(#clip1_1589_6186)">
<path d="M38 5H6V37H38V5Z" fill="#64C6EA"/>
<path d="M28.057 27.1031C27.8635 27.1031 27.6738 27.0369 27.5212 26.9043C26.2115 25.7605 24.4291 25.0909 22.5017 25.0212C20.3584 24.9444 18.3194 25.628 16.9017 26.8974C16.5891 27.1798 16.0868 27.1659 15.7891 26.8729C15.4877 26.58 15.4989 26.1092 15.8152 25.8302C17.538 24.2888 20.0012 23.4553 22.5612 23.546C24.8645 23.6297 27.0077 24.4353 28.5966 25.8233C28.9166 26.1022 28.9315 26.5695 28.6375 26.866C28.4812 27.0229 28.2728 27.0996 28.0608 27.0996L28.057 27.1031Z" fill="#0B1215"/>
<path d="M31.9314 22.7857C31.883 22.7857 31.8346 22.7787 31.7825 22.7648L28.363 21.8302C28.1584 21.7744 28.0095 21.607 27.9872 21.4047C27.9649 21.2059 28.0765 21.0141 28.2663 20.92C28.2663 20.92 30.9267 19.6296 31.723 19.2321C31.9798 19.103 32.296 19.1937 32.4337 19.4343C32.5714 19.675 32.4746 19.9714 32.2179 20.1004C31.7714 20.3236 30.737 20.8293 29.9146 21.2268L32.0765 21.8197C32.3556 21.8964 32.5156 22.1684 32.4337 22.43C32.3667 22.6462 32.1584 22.7857 31.9314 22.7857Z" fill="#0B1215"/>
<path d="M12.6343 22.7857C12.4074 22.7857 12.199 22.6462 12.132 22.43C12.0501 22.1684 12.2101 21.8964 12.4892 21.8197L14.6511 21.2268C13.8288 20.8258 12.7943 20.3236 12.3478 20.1004C12.0911 19.9714 11.9943 19.675 12.132 19.4343C12.2697 19.1937 12.586 19.103 12.8427 19.2321C13.639 19.6296 16.2995 20.92 16.2995 20.92C16.4892 21.0141 16.6008 21.2059 16.5822 21.4047C16.5599 21.6035 16.4111 21.7744 16.2064 21.8302L12.7869 22.7648C12.7385 22.7787 12.6901 22.7857 12.6381 22.7857H12.6343Z" fill="#0B1215"/>
<path d="M32.7047 17.5441C32.6787 17.5441 32.6526 17.5441 32.6229 17.5372C30.0033 17.157 28.6899 15.1692 28.634 15.0821C28.4852 14.8484 28.5633 14.5485 28.8089 14.4055C29.0582 14.2625 29.3782 14.3393 29.5308 14.5694C29.5494 14.5973 30.6657 16.2538 32.7829 16.5607C33.0694 16.6025 33.2666 16.8536 33.2219 17.1222C33.181 17.3663 32.9578 17.5406 32.7047 17.5406V17.5441Z" fill="#0B1215"/>
<path d="M11.8565 17.5441C11.6035 17.5441 11.3765 17.3698 11.3393 17.1257C11.2947 16.8571 11.4919 16.606 11.7784 16.5642C13.9179 16.2538 15.0156 14.5904 15.0268 14.5729C15.1756 14.3393 15.4993 14.266 15.7486 14.409C15.9979 14.552 16.0761 14.8519 15.9235 15.0856C15.8677 15.1693 14.5542 17.1605 11.9347 17.5407C11.9086 17.5441 11.8826 17.5476 11.8528 17.5476L11.8565 17.5441Z" fill="#0B1215"/>
</g>
</g>
</g>
<defs>
<filter id="filter0_d_1589_6186" x="0" y="0" width="44" height="44" filterUnits="userSpaceOnUse" color-interpolation-filters="sRGB">
<feFlood flood-opacity="0" result="BackgroundImageFix"/>
<feColorMatrix in="SourceAlpha" type="matrix" values="0 0 0 0 0 0 0 0 0 0 0 0 0 0 0 0 0 0 127 0" result="hardAlpha"/>
<feOffset dy="1"/>
<feGaussianBlur stdDeviation="3"/>
<feComposite in2="hardAlpha" operator="out"/>
<feColorMatrix type="matrix" values="0 0 0 0 0.616667 0 0 0 0 0.616667 0 0 0 0 0.616667 0 0 0 0.15 0"/>
<feBlend mode="normal" in2="BackgroundImageFix" result="effect1_dropShadow_1589_6186"/>
<feBlend mode="normal" in="SourceGraphic" in2="effect1_dropShadow_1589_6186" result="shape"/>
</filter>
<clipPath id="clip0_1589_6186">
<rect x="6" y="5" width="32" height="32" rx="8" fill="white"/>
</clipPath>
<clipPath id="clip1_1589_6186">
<rect x="6" y="5" width="32" height="32" rx="8" fill="white"/>
</clipPath>
</defs>
</svg>
